<?xml version="1.0" standalone="no"?>
<!DOCTYPE svg PUBLIC "-//W3C//DTD SVG 1.1//EN" "http://www.w3.org/Graphics/SVG/1.1/DTD/svg11.dtd" >
<svg xmlns="http://www.w3.org/2000/svg" xmlns:xlink="http://www.w3.org/1999/xlink" version="1.1">
<metadata>
Created by FontForge 20170924 at Mon Jan  8 06:15:27 2018
 By www-data
Typeface (c) (your company). 2018. All Rights Reserved
</metadata>
<defs>
<font id="Dice" horiz-adv-x="1600" >
  <font-face 
    font-family="Dice"
    font-weight="400"
    font-stretch="normal"
    units-per-em="2048"
    panose-1="2 0 5 0 0 0 0 0 0 0"
    ascent="1638"
    descent="-410"
    x-height="1500"
    cap-height="1500"
    bbox="0 -476 1500 1500"
    underline-thickness="150"
    underline-position="-292"
    unicode-range="U+0020-00F7"
  />
<missing-glyph horiz-adv-x="924" 
d="M0 0v1434h824v-1434h-824zM50 50h724v1334h-724v-1334zM225 1148q31 28 58 43q53 30 112 30q92 0 148 -47.5t56 -127.5q0 -49 -23 -98.5t-87 -129.5q-63 -80 -99 -132t-36 -99q0 -38 24 -133h-32q-35 97 -35 148q0 76 81.5 218t81.5 217q0 57 -33 90t-91 33
q-38 0 -69 -17q-26 -15 -56 -40v45zM289 334l57 58q11 10 20 10q10 0 22 -11l56 -60q9 -11 9 -20q0 -11 -10 -22l-56 -62q-14 -14 -21 -14q-11 0 -20 10l-61 71q-7 9 -7 18q0 10 11 22z" />
    <glyph glyph-name=".notdef" horiz-adv-x="924" 
d="M0 0v1434h824v-1434h-824zM50 50h724v1334h-724v-1334zM225 1148q31 28 58 43q53 30 112 30q92 0 148 -47.5t56 -127.5q0 -49 -23 -98.5t-87 -129.5q-63 -80 -99 -132t-36 -99q0 -38 24 -133h-32q-35 97 -35 148q0 76 81.5 218t81.5 217q0 57 -33 90t-91 33
q-38 0 -69 -17q-26 -15 -56 -40v45zM289 334l57 58q11 10 20 10q10 0 22 -11l56 -60q9 -11 9 -20q0 -11 -10 -22l-56 -62q-14 -14 -21 -14q-11 0 -20 10l-61 71q-7 9 -7 18q0 10 11 22z" />
    <glyph glyph-name=".null" horiz-adv-x="0" 
 />
    <glyph glyph-name="nonmarkingreturn" horiz-adv-x="508" 
 />
    <glyph glyph-name="space" unicode=" " horiz-adv-x="1500" 
 />
    <glyph glyph-name="space" unicode="&#xa0;" horiz-adv-x="1500" 
 />
    <glyph glyph-name="exclam" unicode="!" 
d="M701 337q-24 -13 -37.5 -37t-13.5 -50t13 -50t37 -37t50 -13t50 13t37 37t13 50t-13.5 50t-37.5 37t-49 13t-49 -13zM701 837q-24 -13 -37.5 -37t-13.5 -50t13 -50t37 -37t50 -13t50 13t37 37t13 50t-13.5 50t-37.5 37t-49 13t-49 -13zM701 1087q-24 -13 -37.5 -37
t-13.5 -50t13 -50t37 -37t50 -13t50 13t37 37t13 50t-13.5 50t-37.5 37t-49 13t-49 -13zM701 1337q-24 -13 -37.5 -37t-13.5 -50t13 -50t37 -37t50 -13t50 13t37 37t13 50t-13.5 50t-37.5 37t-49 13t-49 -13zM100 0q-26 0 -50 13t-37 37t-13 50v1300q0 26 13.5 50t37.5 37
t49 13h1300q25 0 49 -13t37.5 -37t13.5 -50v-1300q0 -26 -13 -50t-37 -37t-50 -13h-1300z" />
    <glyph glyph-name="quotedbl" unicode="&#x22;" 
d="M451 1087q-24 -13 -37.5 -37t-13.5 -50t13 -50t37 -37t50 -13t50 13t37 37t13 50t-13.5 50t-37.5 37t-49 13t-49 -13zM451 1337q-24 -13 -37.5 -37t-13.5 -50t13 -50t37 -37t50 -13t50 13t37 37t13 50t-13.5 50t-37.5 37t-49 13t-49 -13zM951 1087q-24 -13 -37.5 -37
t-13.5 -50t13 -50t37 -37t50 -13t50 13t37 37t13 50t-13.5 50t-37.5 37t-49 13t-49 -13zM951 1337q-24 -13 -37.5 -37t-13.5 -50t13 -50t37 -37t50 -13t50 13t37 37t13 50t-13.5 50t-37.5 37t-49 13t-49 -13zM100 0q-26 0 -50 13t-37 37t-13 50v1300q0 26 13.5 50t37.5 37
t49 13h1300q25 0 49 -13t37.5 -37t13.5 -50v-1300q0 -26 -13 -50t-37 -37t-50 -13h-1300z" />
    <glyph glyph-name="numbersign" unicode="#" 
d="M201 587q-24 -13 -37.5 -37t-13.5 -50t13 -50t37 -37t50 -13t50 13t37 37t13 50t-13.5 50t-37.5 37t-49 13t-49 -13zM201 1087q-24 -13 -37.5 -37t-13.5 -50t13 -50t37 -37t50 -13t50 13t37 37t13 50t-13.5 50t-37.5 37t-49 13t-49 -13zM451 337q-24 -13 -37.5 -37
t-13.5 -50t13 -50t37 -37t50 -13t50 13t37 37t13 50t-13.5 50t-37.5 37t-49 13t-49 -13zM451 587q-24 -13 -37.5 -37t-13.5 -50t13 -50t37 -37t50 -13t50 13t37 37t13 50t-13.5 50t-37.5 37t-49 13t-49 -13zM451 837q-24 -13 -37.5 -37t-13.5 -50t13 -50t37 -37t50 -13
t50 13t37 37t13 50t-13.5 50t-37.5 37t-49 13t-49 -13zM451 1087q-24 -13 -37.5 -37t-13.5 -50t13 -50t37 -37t50 -13t50 13t37 37t13 50t-13.5 50t-37.5 37t-49 13t-49 -13zM451 1337q-24 -13 -37.5 -37t-13.5 -50t13 -50t37 -37t50 -13t50 13t37 37t13 50t-13.5 50
t-37.5 37t-49 13t-49 -13zM701 587q-24 -13 -37.5 -37t-13.5 -50t13 -50t37 -37t50 -13t50 13t37 37t13 50t-13.5 50t-37.5 37t-49 13t-49 -13zM701 1087q-24 -13 -37.5 -37t-13.5 -50t13 -50t37 -37t50 -13t50 13t37 37t13 50t-13.5 50t-37.5 37t-49 13t-49 -13zM951 337
q-24 -13 -37.5 -37t-13.5 -50t13 -50t37 -37t50 -13t50 13t37 37t13 50t-13.5 50t-37.5 37t-49 13t-49 -13zM951 587q-24 -13 -37.5 -37t-13.5 -50t13 -50t37 -37t50 -13t50 13t37 37t13 50t-13.5 50t-37.5 37t-49 13t-49 -13zM951 837q-24 -13 -37.5 -37t-13.5 -50t13 -50
t37 -37t50 -13t50 13t37 37t13 50t-13.5 50t-37.5 37t-49 13t-49 -13zM951 1087q-24 -13 -37.5 -37t-13.5 -50t13 -50t37 -37t50 -13t50 13t37 37t13 50t-13.5 50t-37.5 37t-49 13t-49 -13zM951 1337q-24 -13 -37.5 -37t-13.5 -50t13 -50t37 -37t50 -13t50 13t37 37t13 50
t-13.5 50t-37.5 37t-49 13t-49 -13zM1201 587q-24 -13 -37.5 -37t-13.5 -50t13 -50t37 -37t50 -13t50 13t37 37t13 50t-13.5 50t-37.5 37t-49 13t-49 -13zM1201 1087q-24 -13 -37.5 -37t-13.5 -50t13 -50t37 -37t50 -13t50 13t37 37t13 50t-13.5 50t-37.5 37t-49 13t-49 -13
zM100 0q-26 0 -50 13t-37 37t-13 50v1300q0 26 13.5 50t37.5 37t49 13h1300q25 0 49 -13t37.5 -37t13.5 -50v-1300q0 -26 -13 -50t-37 -37t-50 -13h-1300z" />
    <glyph glyph-name="dollar" unicode="$" 
d="M201 337q-24 -13 -37.5 -37t-13.5 -50t13 -50t37 -37t50 -13t50 13t37 37t13 50t-13.5 50t-37.5 37t-49 13t-49 -13zM201 1087q-24 -13 -37.5 -37t-13.5 -50t13 -50t37 -37t50 -13t50 13t37 37t13 50t-13.5 50t-37.5 37t-49 13t-49 -13zM451 337q-24 -13 -37.5 -37
t-13.5 -50t13 -50t37 -37t50 -13t50 13t37 37t13 50t-13.5 50t-37.5 37t-49 13t-49 -13zM451 837q-24 -13 -37.5 -37t-13.5 -50t13 -50t37 -37t50 -13t50 13t37 37t13 50t-13.5 50t-37.5 37t-49 13t-49 -13zM451 1337q-24 -13 -37.5 -37t-13.5 -50t13 -50t37 -37t50 -13
t50 13t37 37t13 50t-13.5 50t-37.5 37t-49 13t-49 -13zM701 337q-24 -13 -37.5 -37t-13.5 -50t13 -50t37 -37t50 -13t50 13t37 37t13 50t-13.5 50t-37.5 37t-49 13t-49 -13zM701 587q-24 -13 -37.5 -37t-13.5 -50t13 -50t37 -37t50 -13t50 13t37 37t13 50t-13.5 50t-37.5 37
t-49 13t-49 -13zM701 837q-24 -13 -37.5 -37t-13.5 -50t13 -50t37 -37t50 -13t50 13t37 37t13 50t-13.5 50t-37.5 37t-49 13t-49 -13zM701 1087q-24 -13 -37.5 -37t-13.5 -50t13 -50t37 -37t50 -13t50 13t37 37t13 50t-13.5 50t-37.5 37t-49 13t-49 -13zM701 1337
q-24 -13 -37.5 -37t-13.5 -50t13 -50t37 -37t50 -13t50 13t37 37t13 50t-13.5 50t-37.5 37t-49 13t-49 -13zM951 337q-24 -13 -37.5 -37t-13.5 -50t13 -50t37 -37t50 -13t50 13t37 37t13 50t-13.5 50t-37.5 37t-49 13t-49 -13zM951 837q-24 -13 -37.5 -37t-13.5 -50t13 -50
t37 -37t50 -13t50 13t37 37t13 50t-13.5 50t-37.5 37t-49 13t-49 -13zM951 1337q-24 -13 -37.5 -37t-13.5 -50t13 -50t37 -37t50 -13t50 13t37 37t13 50t-13.5 50t-37.5 37t-49 13t-49 -13zM1201 587q-24 -13 -37.5 -37t-13.5 -50t13 -50t37 -37t50 -13t50 13t37 37t13 50
t-13.5 50t-37.5 37t-49 13t-49 -13zM1201 1337q-24 -13 -37.5 -37t-13.5 -50t13 -50t37 -37t50 -13t50 13t37 37t13 50t-13.5 50t-37.5 37t-49 13t-49 -13zM100 0q-26 0 -50 13t-37 37t-13 50v1300q0 26 13.5 50t37.5 37t49 13h1300q25 0 49 -13t37.5 -37t13.5 -50v-1300
q0 -26 -13 -50t-37 -37t-50 -13h-1300z" />
    <glyph glyph-name="percent" unicode="%" 
d="M201 337q-24 -13 -37.5 -37t-13.5 -50t13 -50t37 -37t50 -13t50 13t37 37t13 50t-13.5 50t-37.5 37t-49 13t-49 -13zM201 1337q-24 -13 -37.5 -37t-13.5 -50t13 -50t37 -37t50 -13t50 13t37 37t13 50t-13.5 50t-37.5 37t-49 13t-49 -13zM451 587q-24 -13 -37.5 -37
t-13.5 -50t13 -50t37 -37t50 -13t50 13t37 37t13 50t-13.5 50t-37.5 37t-49 13t-49 -13zM701 837q-24 -13 -37.5 -37t-13.5 -50t13 -50t37 -37t50 -13t50 13t37 37t13 50t-13.5 50t-37.5 37t-49 13t-49 -13zM951 1087q-24 -13 -37.5 -37t-13.5 -50t13 -50t37 -37t50 -13
t50 13t37 37t13 50t-13.5 50t-37.5 37t-49 13t-49 -13zM1201 337q-24 -13 -37.5 -37t-13.5 -50t13 -50t37 -37t50 -13t50 13t37 37t13 50t-13.5 50t-37.5 37t-49 13t-49 -13zM1201 1337q-24 -13 -37.5 -37t-13.5 -50t13 -50t37 -37t50 -13t50 13t37 37t13 50t-13.5 50
t-37.5 37t-49 13t-49 -13zM100 0q-26 0 -50 13t-37 37t-13 50v1300q0 26 13.5 50t37.5 37t49 13h1300q25 0 49 -13t37.5 -37t13.5 -50v-1300q0 -26 -13 -50t-37 -37t-50 -13h-1300z" />
    <glyph glyph-name="ampersand" unicode="&#x26;" 
d="M201 337q-24 -13 -37.5 -37t-13.5 -50t13 -50t37 -37t50 -13t50 13t37 37t13 50t-13.5 50t-37.5 37t-49 13t-49 -13zM201 587q-24 -13 -37.5 -37t-13.5 -50t13 -50t37 -37t50 -13t50 13t37 37t13 50t-13.5 50t-37.5 37t-49 13t-49 -13zM201 1087q-24 -13 -37.5 -37
t-13.5 -50t13 -50t37 -37t50 -13t50 13t37 37t13 50t-13.5 50t-37.5 37t-49 13t-49 -13zM201 1337q-24 -13 -37.5 -37t-13.5 -50t13 -50t37 -37t50 -13t50 13t37 37t13 50t-13.5 50t-37.5 37t-49 13t-49 -13zM451 337q-24 -13 -37.5 -37t-13.5 -50t13 -50t37 -37t50 -13
t50 13t37 37t13 50t-13.5 50t-37.5 37t-49 13t-49 -13zM451 837q-24 -13 -37.5 -37t-13.5 -50t13 -50t37 -37t50 -13t50 13t37 37t13 50t-13.5 50t-37.5 37t-49 13t-49 -13zM451 1087q-24 -13 -37.5 -37t-13.5 -50t13 -50t37 -37t50 -13t50 13t37 37t13 50t-13.5 50
t-37.5 37t-49 13t-49 -13zM451 1337q-24 -13 -37.5 -37t-13.5 -50t13 -50t37 -37t50 -13t50 13t37 37t13 50t-13.5 50t-37.5 37t-49 13t-49 -13zM701 337q-24 -13 -37.5 -37t-13.5 -50t13 -50t37 -37t50 -13t50 13t37 37t13 50t-13.5 50t-37.5 37t-49 13t-49 -13zM701 837
q-24 -13 -37.5 -37t-13.5 -50t13 -50t37 -37t50 -13t50 13t37 37t13 50t-13.5 50t-37.5 37t-49 13t-49 -13zM701 1087q-24 -13 -37.5 -37t-13.5 -50t13 -50t37 -37t50 -13t50 13t37 37t13 50t-13.5 50t-37.5 37t-49 13t-49 -13zM951 587q-24 -13 -37.5 -37t-13.5 -50t13 -50
t37 -37t50 -13t50 13t37 37t13 50t-13.5 50t-37.5 37t-49 13t-49 -13zM951 1337q-24 -13 -37.5 -37t-13.5 -50t13 -50t37 -37t50 -13t50 13t37 37t13 50t-13.5 50t-37.5 37t-49 13t-49 -13zM1201 337q-24 -13 -37.5 -37t-13.5 -50t13 -50t37 -37t50 -13t50 13t37 37t13 50
t-13.5 50t-37.5 37t-49 13t-49 -13zM1201 837q-24 -13 -37.5 -37t-13.5 -50t13 -50t37 -37t50 -13t50 13t37 37t13 50t-13.5 50t-37.5 37t-49 13t-49 -13zM100 0q-26 0 -50 13t-37 37t-13 50v1300q0 26 13.5 50t37.5 37t49 13h1300q25 0 49 -13t37.5 -37t13.5 -50v-1300
q0 -26 -13 -50t-37 -37t-50 -13h-1300z" />
    <glyph glyph-name="quotesingle" unicode="'" 
d="M701 1087q-24 -13 -37.5 -37t-13.5 -50t13 -50t37 -37t50 -13t50 13t37 37t13 50t-13.5 50t-37.5 37t-49 13t-49 -13zM701 1337q-24 -13 -37.5 -37t-13.5 -50t13 -50t37 -37t50 -13t50 13t37 37t13 50t-13.5 50t-37.5 37t-49 13t-49 -13zM100 0q-26 0 -50 13t-37 37
t-13 50v1300q0 26 13.5 50t37.5 37t49 13h1300q25 0 49 -13t37.5 -37t13.5 -50v-1300q0 -26 -13 -50t-37 -37t-50 -13h-1300z" />
    <glyph glyph-name="parenleft" unicode="(" 
d="M451 587q-24 -13 -37.5 -37t-13.5 -50t13 -50t37 -37t50 -13t50 13t37 37t13 50t-13.5 50t-37.5 37t-49 13t-49 -13zM451 837q-24 -13 -37.5 -37t-13.5 -50t13 -50t37 -37t50 -13t50 13t37 37t13 50t-13.5 50t-37.5 37t-49 13t-49 -13zM451 1087q-24 -13 -37.5 -37
t-13.5 -50t13 -50t37 -37t50 -13t50 13t37 37t13 50t-13.5 50t-37.5 37t-49 13t-49 -13zM701 337q-24 -13 -37.5 -37t-13.5 -50t13 -50t37 -37t50 -13t50 13t37 37t13 50t-13.5 50t-37.5 37t-49 13t-49 -13zM701 1337q-24 -13 -37.5 -37t-13.5 -50t13 -50t37 -37t50 -13
t50 13t37 37t13 50t-13.5 50t-37.5 37t-49 13t-49 -13zM951 337q-24 -13 -37.5 -37t-13.5 -50t13 -50t37 -37t50 -13t50 13t37 37t13 50t-13.5 50t-37.5 37t-49 13t-49 -13zM951 1337q-24 -13 -37.5 -37t-13.5 -50t13 -50t37 -37t50 -13t50 13t37 37t13 50t-13.5 50
t-37.5 37t-49 13t-49 -13zM100 0q-26 0 -50 13t-37 37t-13 50v1300q0 26 13.5 50t37.5 37t49 13h1300q25 0 49 -13t37.5 -37t13.5 -50v-1300q0 -26 -13 -50t-37 -37t-50 -13h-1300z" />
    <glyph glyph-name="parenright" unicode=")" 
d="M451 337q-24 -13 -37.5 -37t-13.5 -50t13 -50t37 -37t50 -13t50 13t37 37t13 50t-13.5 50t-37.5 37t-49 13t-49 -13zM451 1337q-24 -13 -37.5 -37t-13.5 -50t13 -50t37 -37t50 -13t50 13t37 37t13 50t-13.5 50t-37.5 37t-49 13t-49 -13zM701 337q-24 -13 -37.5 -37
t-13.5 -50t13 -50t37 -37t50 -13t50 13t37 37t13 50t-13.5 50t-37.5 37t-49 13t-49 -13zM701 1337q-24 -13 -37.5 -37t-13.5 -50t13 -50t37 -37t50 -13t50 13t37 37t13 50t-13.5 50t-37.5 37t-49 13t-49 -13zM951 587q-24 -13 -37.5 -37t-13.5 -50t13 -50t37 -37t50 -13
t50 13t37 37t13 50t-13.5 50t-37.5 37t-49 13t-49 -13zM951 837q-24 -13 -37.5 -37t-13.5 -50t13 -50t37 -37t50 -13t50 13t37 37t13 50t-13.5 50t-37.5 37t-49 13t-49 -13zM951 1087q-24 -13 -37.5 -37t-13.5 -50t13 -50t37 -37t50 -13t50 13t37 37t13 50t-13.5 50
t-37.5 37t-49 13t-49 -13zM100 0q-26 0 -50 13t-37 37t-13 50v1300q0 26 13.5 50t37.5 37t49 13h1300q25 0 49 -13t37.5 -37t13.5 -50v-1300q0 -26 -13 -50t-37 -37t-50 -13h-1300z" />
    <glyph glyph-name="asterisk" unicode="*" 
d="M201 337q-24 -13 -37.5 -37t-13.5 -50t13 -50t37 -37t50 -13t50 13t37 37t13 50t-13.5 50t-37.5 37t-49 13t-49 -13zM201 837q-24 -13 -37.5 -37t-13.5 -50t13 -50t37 -37t50 -13t50 13t37 37t13 50t-13.5 50t-37.5 37t-49 13t-49 -13zM201 1337q-24 -13 -37.5 -37
t-13.5 -50t13 -50t37 -37t50 -13t50 13t37 37t13 50t-13.5 50t-37.5 37t-49 13t-49 -13zM451 587q-24 -13 -37.5 -37t-13.5 -50t13 -50t37 -37t50 -13t50 13t37 37t13 50t-13.5 50t-37.5 37t-49 13t-49 -13zM451 837q-24 -13 -37.5 -37t-13.5 -50t13 -50t37 -37t50 -13
t50 13t37 37t13 50t-13.5 50t-37.5 37t-49 13t-49 -13zM451 1087q-24 -13 -37.5 -37t-13.5 -50t13 -50t37 -37t50 -13t50 13t37 37t13 50t-13.5 50t-37.5 37t-49 13t-49 -13zM701 337q-24 -13 -37.5 -37t-13.5 -50t13 -50t37 -37t50 -13t50 13t37 37t13 50t-13.5 50
t-37.5 37t-49 13t-49 -13zM701 587q-24 -13 -37.5 -37t-13.5 -50t13 -50t37 -37t50 -13t50 13t37 37t13 50t-13.5 50t-37.5 37t-49 13t-49 -13zM701 837q-24 -13 -37.5 -37t-13.5 -50t13 -50t37 -37t50 -13t50 13t37 37t13 50t-13.5 50t-37.5 37t-49 13t-49 -13zM701 1087
q-24 -13 -37.5 -37t-13.5 -50t13 -50t37 -37t50 -13t50 13t37 37t13 50t-13.5 50t-37.5 37t-49 13t-49 -13zM701 1337q-24 -13 -37.5 -37t-13.5 -50t13 -50t37 -37t50 -13t50 13t37 37t13 50t-13.5 50t-37.5 37t-49 13t-49 -13zM951 587q-24 -13 -37.5 -37t-13.5 -50t13 -50
t37 -37t50 -13t50 13t37 37t13 50t-13.5 50t-37.5 37t-49 13t-49 -13zM951 837q-24 -13 -37.5 -37t-13.5 -50t13 -50t37 -37t50 -13t50 13t37 37t13 50t-13.5 50t-37.5 37t-49 13t-49 -13zM951 1087q-24 -13 -37.5 -37t-13.5 -50t13 -50t37 -37t50 -13t50 13t37 37t13 50
t-13.5 50t-37.5 37t-49 13t-49 -13zM1201 337q-24 -13 -37.5 -37t-13.5 -50t13 -50t37 -37t50 -13t50 13t37 37t13 50t-13.5 50t-37.5 37t-49 13t-49 -13zM1201 837q-24 -13 -37.5 -37t-13.5 -50t13 -50t37 -37t50 -13t50 13t37 37t13 50t-13.5 50t-37.5 37t-49 13t-49 -13z
M1201 1337q-24 -13 -37.5 -37t-13.5 -50t13 -50t37 -37t50 -13t50 13t37 37t13 50t-13.5 50t-37.5 37t-49 13t-49 -13zM100 0q-26 0 -50 13t-37 37t-13 50v1300q0 26 13.5 50t37.5 37t49 13h1300q25 0 49 -13t37.5 -37t13.5 -50v-1300q0 -26 -13 -50t-37 -37t-50 -13h-1300z
" />
    <glyph glyph-name="plus" unicode="+" 
d="M201 837q-24 -13 -37.5 -37t-13.5 -50t13 -50t37 -37t50 -13t50 13t37 37t13 50t-13.5 50t-37.5 37t-49 13t-49 -13zM451 837q-24 -13 -37.5 -37t-13.5 -50t13 -50t37 -37t50 -13t50 13t37 37t13 50t-13.5 50t-37.5 37t-49 13t-49 -13zM701 337q-24 -13 -37.5 -37
t-13.5 -50t13 -50t37 -37t50 -13t50 13t37 37t13 50t-13.5 50t-37.5 37t-49 13t-49 -13zM701 587q-24 -13 -37.5 -37t-13.5 -50t13 -50t37 -37t50 -13t50 13t37 37t13 50t-13.5 50t-37.5 37t-49 13t-49 -13zM701 837q-24 -13 -37.5 -37t-13.5 -50t13 -50t37 -37t50 -13
t50 13t37 37t13 50t-13.5 50t-37.5 37t-49 13t-49 -13zM701 1087q-24 -13 -37.5 -37t-13.5 -50t13 -50t37 -37t50 -13t50 13t37 37t13 50t-13.5 50t-37.5 37t-49 13t-49 -13zM701 1337q-24 -13 -37.5 -37t-13.5 -50t13 -50t37 -37t50 -13t50 13t37 37t13 50t-13.5 50
t-37.5 37t-49 13t-49 -13zM951 837q-24 -13 -37.5 -37t-13.5 -50t13 -50t37 -37t50 -13t50 13t37 37t13 50t-13.5 50t-37.5 37t-49 13t-49 -13zM1201 837q-24 -13 -37.5 -37t-13.5 -50t13 -50t37 -37t50 -13t50 13t37 37t13 50t-13.5 50t-37.5 37t-49 13t-49 -13zM100 0
q-26 0 -50 13t-37 37t-13 50v1300q0 26 13.5 50t37.5 37t49 13h1300q25 0 49 -13t37.5 -37t13.5 -50v-1300q0 -26 -13 -50t-37 -37t-50 -13h-1300z" />
    <glyph glyph-name="comma" unicode="," 
d="M701 337q-24 -13 -37.5 -37t-13.5 -50t13 -50t37 -37t50 -13t50 13t37 37t13 50t-13.5 50t-37.5 37t-49 13t-49 -13zM701 587q-24 -13 -37.5 -37t-13.5 -50t13 -50t37 -37t50 -13t50 13t37 37t13 50t-13.5 50t-37.5 37t-49 13t-49 -13zM100 0q-26 0 -50 13t-37 37t-13 50
v1300q0 26 13.5 50t37.5 37t49 13h1300q25 0 49 -13t37.5 -37t13.5 -50v-1300q0 -26 -13 -50t-37 -37t-50 -13h-1300z" />
    <glyph glyph-name="hyphen" unicode="-" 
d="M451 837q-24 -13 -37.5 -37t-13.5 -50t13 -50t37 -37t50 -13t50 13t37 37t13 50t-13.5 50t-37.5 37t-49 13t-49 -13zM701 837q-24 -13 -37.5 -37t-13.5 -50t13 -50t37 -37t50 -13t50 13t37 37t13 50t-13.5 50t-37.5 37t-49 13t-49 -13zM951 837q-24 -13 -37.5 -37
t-13.5 -50t13 -50t37 -37t50 -13t50 13t37 37t13 50t-13.5 50t-37.5 37t-49 13t-49 -13zM100 0q-26 0 -50 13t-37 37t-13 50v1300q0 26 13.5 50t37.5 37t49 13h1300q25 0 49 -13t37.5 -37t13.5 -50v-1300q0 -26 -13 -50t-37 -37t-50 -13h-1300z" />
    <glyph glyph-name="hyphen" unicode="&#xad;" 
d="M451 837q-24 -13 -37.5 -37t-13.5 -50t13 -50t37 -37t50 -13t50 13t37 37t13 50t-13.5 50t-37.5 37t-49 13t-49 -13zM701 837q-24 -13 -37.5 -37t-13.5 -50t13 -50t37 -37t50 -13t50 13t37 37t13 50t-13.5 50t-37.5 37t-49 13t-49 -13zM951 837q-24 -13 -37.5 -37
t-13.5 -50t13 -50t37 -37t50 -13t50 13t37 37t13 50t-13.5 50t-37.5 37t-49 13t-49 -13zM100 0q-26 0 -50 13t-37 37t-13 50v1300q0 26 13.5 50t37.5 37t49 13h1300q25 0 49 -13t37.5 -37t13.5 -50v-1300q0 -26 -13 -50t-37 -37t-50 -13h-1300z" />
    <glyph glyph-name="period" unicode="." 
d="M701 337q-24 -13 -37.5 -37t-13.5 -50t13 -50t37 -37t50 -13t50 13t37 37t13 50t-13.5 50t-37.5 37t-49 13t-49 -13zM100 0q-26 0 -50 13t-37 37t-13 50v1300q0 26 13.5 50t37.5 37t49 13h1300q25 0 49 -13t37.5 -37t13.5 -50v-1300q0 -26 -13 -50t-37 -37t-50 -13h-1300
z" />
    <glyph glyph-name="slash" unicode="/" 
d="M201 337q-24 -13 -37.5 -37t-13.5 -50t13 -50t37 -37t50 -13t50 13t37 37t13 50t-13.5 50t-37.5 37t-49 13t-49 -13zM451 587q-24 -13 -37.5 -37t-13.5 -50t13 -50t37 -37t50 -13t50 13t37 37t13 50t-13.5 50t-37.5 37t-49 13t-49 -13zM701 837q-24 -13 -37.5 -37
t-13.5 -50t13 -50t37 -37t50 -13t50 13t37 37t13 50t-13.5 50t-37.5 37t-49 13t-49 -13zM951 1087q-24 -13 -37.5 -37t-13.5 -50t13 -50t37 -37t50 -13t50 13t37 37t13 50t-13.5 50t-37.5 37t-49 13t-49 -13zM1201 1337q-24 -13 -37.5 -37t-13.5 -50t13 -50t37 -37t50 -13
t50 13t37 37t13 50t-13.5 50t-37.5 37t-49 13t-49 -13zM100 0q-26 0 -50 13t-37 37t-13 50v1300q0 26 13.5 50t37.5 37t49 13h1300q25 0 49 -13t37.5 -37t13.5 -50v-1300q0 -26 -13 -50t-37 -37t-50 -13h-1300z" />
    <glyph glyph-name="zero" unicode="0" 
d="M100 0q-26 0 -50 13t-37 37t-13 50v1300q0 26 13.5 50t37.5 37t49 13h1300q25 0 49 -13t37.5 -37t13.5 -50v-1300q0 -26 -13 -50t-37 -37t-50 -13h-1300z" />
    <glyph glyph-name="one" unicode="1" 
d="M680 874.5q-34 -18.5 -53.5 -53t-19.5 -71.5t19 -71t53 -53t71 -19t71 19t53 53t19 71t-19.5 71.5t-53.5 53t-70 18.5t-70 -18.5zM100 0q-26 0 -50 13t-37 37t-13 50v1300q0 26 13.5 50t37.5 37t49 13h1300q25 0 49 -13t37.5 -37t13.5 -50v-1300q0 -26 -13 -50t-37 -37
t-50 -13h-1300z" />
    <glyph glyph-name="two" unicode="2" 
d="M322.5 517.5q-34.5 -18.5 -53.5 -53t-19 -71.5t19 -71t53 -53t71 -19t71 19t53 53t19 71t-19.5 71.5t-53.5 53t-70 18.5t-70.5 -18.5zM1037 1231.5q-34 -18.5 -53.5 -53t-19.5 -71.5t19 -71t53 -53t71 -19t71 19t53 53t19 71t-19.5 71.5t-53.5 53t-70 18.5t-70 -18.5z
M100 0q-26 0 -50 13t-37 37t-13 50v1300q0 26 13.5 50t37.5 37t49 13h1300q25 0 49 -13t37.5 -37t13.5 -50v-1300q0 -26 -13 -50t-37 -37t-50 -13h-1300z" />
    <glyph glyph-name="three" unicode="3" 
d="M322.5 517.5q-34.5 -18.5 -53.5 -53t-19 -71.5t19 -71t53 -53t71 -19t71 19t53 53t19 71t-19.5 71.5t-53.5 53t-70 18.5t-70.5 -18.5zM680 874.5q-34 -18.5 -53.5 -53t-19.5 -71.5t19 -71t53 -53t71 -19t71 19t53 53t19 71t-19.5 71.5t-53.5 53t-70 18.5t-70 -18.5z
M1037 1231.5q-34 -18.5 -53.5 -53t-19.5 -71.5t19 -71t53 -53t71 -19t71 19t53 53t19 71t-19.5 71.5t-53.5 53t-70 18.5t-70 -18.5zM100 0q-26 0 -50 13t-37 37t-13 50v1300q0 26 13.5 50t37.5 37t49 13h1300q25 0 49 -13t37.5 -37t13.5 -50v-1300q0 -26 -13 -50t-37 -37
t-50 -13h-1300z" />
    <glyph glyph-name="four" unicode="4" 
d="M322.5 517.5q-34.5 -18.5 -53.5 -53t-19 -71.5t19 -71t53 -53t71 -19t71 19t53 53t19 71t-19.5 71.5t-53.5 53t-70 18.5t-70.5 -18.5zM322.5 1231.5q-34.5 -18.5 -53.5 -53t-19 -71.5t19 -71t53 -53t71 -19t71 19t53 53t19 71t-19.5 71.5t-53.5 53t-70 18.5t-70.5 -18.5z
M1037 517.5q-34 -18.5 -53.5 -53t-19.5 -71.5t19 -71t53 -53t71 -19t71 19t53 53t19 71t-19.5 71.5t-53.5 53t-70 18.5t-70 -18.5zM1037 1231.5q-34 -18.5 -53.5 -53t-19.5 -71.5t19 -71t53 -53t71 -19t71 19t53 53t19 71t-19.5 71.5t-53.5 53t-70 18.5t-70 -18.5zM100 0
q-26 0 -50 13t-37 37t-13 50v1300q0 26 13.5 50t37.5 37t49 13h1300q25 0 49 -13t37.5 -37t13.5 -50v-1300q0 -26 -13 -50t-37 -37t-50 -13h-1300z" />
    <glyph glyph-name="five" unicode="5" 
d="M322.5 517.5q-34.5 -18.5 -53.5 -53t-19 -71.5t19 -71t53 -53t71 -19t71 19t53 53t19 71t-19.5 71.5t-53.5 53t-70 18.5t-70.5 -18.5zM322.5 1231.5q-34.5 -18.5 -53.5 -53t-19 -71.5t19 -71t53 -53t71 -19t71 19t53 53t19 71t-19.5 71.5t-53.5 53t-70 18.5t-70.5 -18.5z
M680 874.5q-34 -18.5 -53.5 -53t-19.5 -71.5t19 -71t53 -53t71 -19t71 19t53 53t19 71t-19.5 71.5t-53.5 53t-70 18.5t-70 -18.5zM1037 517.5q-34 -18.5 -53.5 -53t-19.5 -71.5t19 -71t53 -53t71 -19t71 19t53 53t19 71t-19.5 71.5t-53.5 53t-70 18.5t-70 -18.5z
M1037 1231.5q-34 -18.5 -53.5 -53t-19.5 -71.5t19 -71t53 -53t71 -19t71 19t53 53t19 71t-19.5 71.5t-53.5 53t-70 18.5t-70 -18.5zM100 0q-26 0 -50 13t-37 37t-13 50v1300q0 26 13.5 50t37.5 37t49 13h1300q25 0 49 -13t37.5 -37t13.5 -50v-1300q0 -26 -13 -50t-37 -37
t-50 -13h-1300z" />
    <glyph glyph-name="six" unicode="6" 
d="M322.5 517.5q-34.5 -18.5 -53.5 -53t-19 -71.5t19 -71t53 -53t71 -19t71 19t53 53t19 71t-19.5 71.5t-53.5 53t-70 18.5t-70.5 -18.5zM322.5 874.5q-34.5 -18.5 -53.5 -53t-19 -71.5t19 -71t53 -53t71 -19t71 19t53 53t19 71t-19.5 71.5t-53.5 53t-70 18.5t-70.5 -18.5z
M322.5 1231.5q-34.5 -18.5 -53.5 -53t-19 -71.5t19 -71t53 -53t71 -19t71 19t53 53t19 71t-19.5 71.5t-53.5 53t-70 18.5t-70.5 -18.5zM1037 517.5q-34 -18.5 -53.5 -53t-19.5 -71.5t19 -71t53 -53t71 -19t71 19t53 53t19 71t-19.5 71.5t-53.5 53t-70 18.5t-70 -18.5z
M1037 874.5q-34 -18.5 -53.5 -53t-19.5 -71.5t19 -71t53 -53t71 -19t71 19t53 53t19 71t-19.5 71.5t-53.5 53t-70 18.5t-70 -18.5zM1037 1231.5q-34 -18.5 -53.5 -53t-19.5 -71.5t19 -71t53 -53t71 -19t71 19t53 53t19 71t-19.5 71.5t-53.5 53t-70 18.5t-70 -18.5zM100 0
q-26 0 -50 13t-37 37t-13 50v1300q0 26 13.5 50t37.5 37t49 13h1300q25 0 49 -13t37.5 -37t13.5 -50v-1300q0 -26 -13 -50t-37 -37t-50 -13h-1300z" />
    <glyph glyph-name="seven" unicode="7" 
d="M322.5 517.5q-34.5 -18.5 -53.5 -53t-19 -71.5t19 -71t53 -53t71 -19t71 19t53 53t19 71t-19.5 71.5t-53.5 53t-70 18.5t-70.5 -18.5zM322.5 874.5q-34.5 -18.5 -53.5 -53t-19 -71.5t19 -71t53 -53t71 -19t71 19t53 53t19 71t-19.5 71.5t-53.5 53t-70 18.5t-70.5 -18.5z
M322.5 1231.5q-34.5 -18.5 -53.5 -53t-19 -71.5t19 -71t53 -53t71 -19t71 19t53 53t19 71t-19.5 71.5t-53.5 53t-70 18.5t-70.5 -18.5zM680 874.5q-34 -18.5 -53.5 -53t-19.5 -71.5t19 -71t53 -53t71 -19t71 19t53 53t19 71t-19.5 71.5t-53.5 53t-70 18.5t-70 -18.5z
M1037 517.5q-34 -18.5 -53.5 -53t-19.5 -71.5t19 -71t53 -53t71 -19t71 19t53 53t19 71t-19.5 71.5t-53.5 53t-70 18.5t-70 -18.5zM1037 874.5q-34 -18.5 -53.5 -53t-19.5 -71.5t19 -71t53 -53t71 -19t71 19t53 53t19 71t-19.5 71.5t-53.5 53t-70 18.5t-70 -18.5z
M1037 1231.5q-34 -18.5 -53.5 -53t-19.5 -71.5t19 -71t53 -53t71 -19t71 19t53 53t19 71t-19.5 71.5t-53.5 53t-70 18.5t-70 -18.5zM100 0q-26 0 -50 13t-37 37t-13 50v1300q0 26 13.5 50t37.5 37t49 13h1300q25 0 49 -13t37.5 -37t13.5 -50v-1300q0 -26 -13 -50t-37 -37
t-50 -13h-1300z" />
    <glyph glyph-name="eight" unicode="8" 
d="M322.5 517.5q-34.5 -18.5 -53.5 -53t-19 -71.5t19 -71t53 -53t71 -19t71 19t53 53t19 71t-19.5 71.5t-53.5 53t-70 18.5t-70.5 -18.5zM322.5 874.5q-34.5 -18.5 -53.5 -53t-19 -71.5t19 -71t53 -53t71 -19t71 19t53 53t19 71t-19.5 71.5t-53.5 53t-70 18.5t-70.5 -18.5z
M322.5 1231.5q-34.5 -18.5 -53.5 -53t-19 -71.5t19 -71t53 -53t71 -19t71 19t53 53t19 71t-19.5 71.5t-53.5 53t-70 18.5t-70.5 -18.5zM680 517.5q-34 -18.5 -53.5 -53t-19.5 -71.5t19 -71t53 -53t71 -19t71 19t53 53t19 71t-19.5 71.5t-53.5 53t-70 18.5t-70 -18.5z
M680 1231.5q-34 -18.5 -53.5 -53t-19.5 -71.5t19 -71t53 -53t71 -19t71 19t53 53t19 71t-19.5 71.5t-53.5 53t-70 18.5t-70 -18.5zM1037 517.5q-34 -18.5 -53.5 -53t-19.5 -71.5t19 -71t53 -53t71 -19t71 19t53 53t19 71t-19.5 71.5t-53.5 53t-70 18.5t-70 -18.5z
M1037 874.5q-34 -18.5 -53.5 -53t-19.5 -71.5t19 -71t53 -53t71 -19t71 19t53 53t19 71t-19.5 71.5t-53.5 53t-70 18.5t-70 -18.5zM1037 1231.5q-34 -18.5 -53.5 -53t-19.5 -71.5t19 -71t53 -53t71 -19t71 19t53 53t19 71t-19.5 71.5t-53.5 53t-70 18.5t-70 -18.5zM100 0
q-26 0 -50 13t-37 37t-13 50v1300q0 26 13.5 50t37.5 37t49 13h1300q25 0 49 -13t37.5 -37t13.5 -50v-1300q0 -26 -13 -50t-37 -37t-50 -13h-1300z" />
    <glyph glyph-name="nine" unicode="9" 
d="M322.5 517.5q-34.5 -18.5 -53.5 -53t-19 -71.5t19 -71t53 -53t71 -19t71 19t53 53t19 71t-19.5 71.5t-53.5 53t-70 18.5t-70.5 -18.5zM322.5 874.5q-34.5 -18.5 -53.5 -53t-19 -71.5t19 -71t53 -53t71 -19t71 19t53 53t19 71t-19.5 71.5t-53.5 53t-70 18.5t-70.5 -18.5z
M322.5 1231.5q-34.5 -18.5 -53.5 -53t-19 -71.5t19 -71t53 -53t71 -19t71 19t53 53t19 71t-19.5 71.5t-53.5 53t-70 18.5t-70.5 -18.5zM680 517.5q-34 -18.5 -53.5 -53t-19.5 -71.5t19 -71t53 -53t71 -19t71 19t53 53t19 71t-19.5 71.5t-53.5 53t-70 18.5t-70 -18.5z
M680 874.5q-34 -18.5 -53.5 -53t-19.5 -71.5t19 -71t53 -53t71 -19t71 19t53 53t19 71t-19.5 71.5t-53.5 53t-70 18.5t-70 -18.5zM680 1231.5q-34 -18.5 -53.5 -53t-19.5 -71.5t19 -71t53 -53t71 -19t71 19t53 53t19 71t-19.5 71.5t-53.5 53t-70 18.5t-70 -18.5zM1037 517.5
q-34 -18.5 -53.5 -53t-19.5 -71.5t19 -71t53 -53t71 -19t71 19t53 53t19 71t-19.5 71.5t-53.5 53t-70 18.5t-70 -18.5zM1037 874.5q-34 -18.5 -53.5 -53t-19.5 -71.5t19 -71t53 -53t71 -19t71 19t53 53t19 71t-19.5 71.5t-53.5 53t-70 18.5t-70 -18.5zM1037 1231.5
q-34 -18.5 -53.5 -53t-19.5 -71.5t19 -71t53 -53t71 -19t71 19t53 53t19 71t-19.5 71.5t-53.5 53t-70 18.5t-70 -18.5zM100 0q-26 0 -50 13t-37 37t-13 50v1300q0 26 13.5 50t37.5 37t49 13h1300q25 0 49 -13t37.5 -37t13.5 -50v-1300q0 -26 -13 -50t-37 -37t-50 -13h-1300z
" />
    <glyph glyph-name="colon" unicode=":" 
d="M701 587q-24 -13 -37.5 -37t-13.5 -50t13 -50t37 -37t50 -13t50 13t37 37t13 50t-13.5 50t-37.5 37t-49 13t-49 -13zM701 1087q-24 -13 -37.5 -37t-13.5 -50t13 -50t37 -37t50 -13t50 13t37 37t13 50t-13.5 50t-37.5 37t-49 13t-49 -13zM100 0q-26 0 -50 13t-37 37
t-13 50v1300q0 26 13.5 50t37.5 37t49 13h1300q25 0 49 -13t37.5 -37t13.5 -50v-1300q0 -26 -13 -50t-37 -37t-50 -13h-1300z" />
    <glyph glyph-name="semicolon" unicode=";" 
d="M701 337q-24 -13 -37.5 -37t-13.5 -50t13 -50t37 -37t50 -13t50 13t37 37t13 50t-13.5 50t-37.5 37t-49 13t-49 -13zM701 587q-24 -13 -37.5 -37t-13.5 -50t13 -50t37 -37t50 -13t50 13t37 37t13 50t-13.5 50t-37.5 37t-49 13t-49 -13zM701 1087q-24 -13 -37.5 -37
t-13.5 -50t13 -50t37 -37t50 -13t50 13t37 37t13 50t-13.5 50t-37.5 37t-49 13t-49 -13zM100 0q-26 0 -50 13t-37 37t-13 50v1300q0 26 13.5 50t37.5 37t49 13h1300q25 0 49 -13t37.5 -37t13.5 -50v-1300q0 -26 -13 -50t-37 -37t-50 -13h-1300z" />
    <glyph glyph-name="semicolon" unicode="&#x37e;" 
d="M701 337q-24 -13 -37.5 -37t-13.5 -50t13 -50t37 -37t50 -13t50 13t37 37t13 50t-13.5 50t-37.5 37t-49 13t-49 -13zM701 587q-24 -13 -37.5 -37t-13.5 -50t13 -50t37 -37t50 -13t50 13t37 37t13 50t-13.5 50t-37.5 37t-49 13t-49 -13zM701 1087q-24 -13 -37.5 -37
t-13.5 -50t13 -50t37 -37t50 -13t50 13t37 37t13 50t-13.5 50t-37.5 37t-49 13t-49 -13zM100 0q-26 0 -50 13t-37 37t-13 50v1300q0 26 13.5 50t37.5 37t49 13h1300q25 0 49 -13t37.5 -37t13.5 -50v-1300q0 -26 -13 -50t-37 -37t-50 -13h-1300z" />
    <glyph glyph-name="less" unicode="&#x3c;" 
d="M451 837q-24 -13 -37.5 -37t-13.5 -50t13 -50t37 -37t50 -13t50 13t37 37t13 50t-13.5 50t-37.5 37t-49 13t-49 -13zM701 587q-24 -13 -37.5 -37t-13.5 -50t13 -50t37 -37t50 -13t50 13t37 37t13 50t-13.5 50t-37.5 37t-49 13t-49 -13zM701 1087q-24 -13 -37.5 -37
t-13.5 -50t13 -50t37 -37t50 -13t50 13t37 37t13 50t-13.5 50t-37.5 37t-49 13t-49 -13zM951 337q-24 -13 -37.5 -37t-13.5 -50t13 -50t37 -37t50 -13t50 13t37 37t13 50t-13.5 50t-37.5 37t-49 13t-49 -13zM951 1337q-24 -13 -37.5 -37t-13.5 -50t13 -50t37 -37t50 -13
t50 13t37 37t13 50t-13.5 50t-37.5 37t-49 13t-49 -13zM100 0q-26 0 -50 13t-37 37t-13 50v1300q0 26 13.5 50t37.5 37t49 13h1300q25 0 49 -13t37.5 -37t13.5 -50v-1300q0 -26 -13 -50t-37 -37t-50 -13h-1300z" />
    <glyph glyph-name="equal" unicode="=" 
d="M201 587q-24 -13 -37.5 -37t-13.5 -50t13 -50t37 -37t50 -13t50 13t37 37t13 50t-13.5 50t-37.5 37t-49 13t-49 -13zM201 1087q-24 -13 -37.5 -37t-13.5 -50t13 -50t37 -37t50 -13t50 13t37 37t13 50t-13.5 50t-37.5 37t-49 13t-49 -13zM451 587q-24 -13 -37.5 -37
t-13.5 -50t13 -50t37 -37t50 -13t50 13t37 37t13 50t-13.5 50t-37.5 37t-49 13t-49 -13zM451 1087q-24 -13 -37.5 -37t-13.5 -50t13 -50t37 -37t50 -13t50 13t37 37t13 50t-13.5 50t-37.5 37t-49 13t-49 -13zM701 587q-24 -13 -37.5 -37t-13.5 -50t13 -50t37 -37t50 -13
t50 13t37 37t13 50t-13.5 50t-37.5 37t-49 13t-49 -13zM701 1087q-24 -13 -37.5 -37t-13.5 -50t13 -50t37 -37t50 -13t50 13t37 37t13 50t-13.5 50t-37.5 37t-49 13t-49 -13zM951 587q-24 -13 -37.5 -37t-13.5 -50t13 -50t37 -37t50 -13t50 13t37 37t13 50t-13.5 50
t-37.5 37t-49 13t-49 -13zM951 1087q-24 -13 -37.5 -37t-13.5 -50t13 -50t37 -37t50 -13t50 13t37 37t13 50t-13.5 50t-37.5 37t-49 13t-49 -13zM1201 587q-24 -13 -37.5 -37t-13.5 -50t13 -50t37 -37t50 -13t50 13t37 37t13 50t-13.5 50t-37.5 37t-49 13t-49 -13z
M1201 1087q-24 -13 -37.5 -37t-13.5 -50t13 -50t37 -37t50 -13t50 13t37 37t13 50t-13.5 50t-37.5 37t-49 13t-49 -13zM100 0q-26 0 -50 13t-37 37t-13 50v1300q0 26 13.5 50t37.5 37t49 13h1300q25 0 49 -13t37.5 -37t13.5 -50v-1300q0 -26 -13 -50t-37 -37t-50 -13h-1300z
" />
    <glyph glyph-name="greater" unicode="&#x3e;" 
d="M451 337q-24 -13 -37.5 -37t-13.5 -50t13 -50t37 -37t50 -13t50 13t37 37t13 50t-13.5 50t-37.5 37t-49 13t-49 -13zM451 1337q-24 -13 -37.5 -37t-13.5 -50t13 -50t37 -37t50 -13t50 13t37 37t13 50t-13.5 50t-37.5 37t-49 13t-49 -13zM701 587q-24 -13 -37.5 -37
t-13.5 -50t13 -50t37 -37t50 -13t50 13t37 37t13 50t-13.5 50t-37.5 37t-49 13t-49 -13zM701 1087q-24 -13 -37.5 -37t-13.5 -50t13 -50t37 -37t50 -13t50 13t37 37t13 50t-13.5 50t-37.5 37t-49 13t-49 -13zM951 837q-24 -13 -37.5 -37t-13.5 -50t13 -50t37 -37t50 -13
t50 13t37 37t13 50t-13.5 50t-37.5 37t-49 13t-49 -13zM100 0q-26 0 -50 13t-37 37t-13 50v1300q0 26 13.5 50t37.5 37t49 13h1300q25 0 49 -13t37.5 -37t13.5 -50v-1300q0 -26 -13 -50t-37 -37t-50 -13h-1300z" />
    <glyph glyph-name="question" unicode="?" 
d="M451 1337q-24 -13 -37.5 -37t-13.5 -50t13 -50t37 -37t50 -13t50 13t37 37t13 50t-13.5 50t-37.5 37t-49 13t-49 -13zM701 337q-24 -13 -37.5 -37t-13.5 -50t13 -50t37 -37t50 -13t50 13t37 37t13 50t-13.5 50t-37.5 37t-49 13t-49 -13zM701 837q-24 -13 -37.5 -37
t-13.5 -50t13 -50t37 -37t50 -13t50 13t37 37t13 50t-13.5 50t-37.5 37t-49 13t-49 -13zM701 1337q-24 -13 -37.5 -37t-13.5 -50t13 -50t37 -37t50 -13t50 13t37 37t13 50t-13.5 50t-37.5 37t-49 13t-49 -13zM951 837q-24 -13 -37.5 -37t-13.5 -50t13 -50t37 -37t50 -13
t50 13t37 37t13 50t-13.5 50t-37.5 37t-49 13t-49 -13zM951 1337q-24 -13 -37.5 -37t-13.5 -50t13 -50t37 -37t50 -13t50 13t37 37t13 50t-13.5 50t-37.5 37t-49 13t-49 -13zM1201 837q-24 -13 -37.5 -37t-13.5 -50t13 -50t37 -37t50 -13t50 13t37 37t13 50t-13.5 50
t-37.5 37t-49 13t-49 -13zM1201 1087q-24 -13 -37.5 -37t-13.5 -50t13 -50t37 -37t50 -13t50 13t37 37t13 50t-13.5 50t-37.5 37t-49 13t-49 -13zM100 0q-26 0 -50 13t-37 37t-13 50v1300q0 26 13.5 50t37.5 37t49 13h1300q25 0 49 -13t37.5 -37t13.5 -50v-1300
q0 -26 -13 -50t-37 -37t-50 -13h-1300zM201 1337q-24 -13 -37.5 -37t-13.5 -50t13 -50t37 -37t50 -13t50 13t37 37t13 50t-13.5 50t-37.5 37t-49 13t-49 -13z" />
    <glyph glyph-name="at" unicode="@" 
d="M201 587q-24 -13 -37.5 -37t-13.5 -50t13 -50t37 -37t50 -13t50 13t37 37t13 50t-13.5 50t-37.5 37t-49 13t-49 -13zM201 837q-24 -13 -37.5 -37t-13.5 -50t13 -50t37 -37t50 -13t50 13t37 37t13 50t-13.5 50t-37.5 37t-49 13t-49 -13zM201 1087q-24 -13 -37.5 -37
t-13.5 -50t13 -50t37 -37t50 -13t50 13t37 37t13 50t-13.5 50t-37.5 37t-49 13t-49 -13zM451 337q-24 -13 -37.5 -37t-13.5 -50t13 -50t37 -37t50 -13t50 13t37 37t13 50t-13.5 50t-37.5 37t-49 13t-49 -13zM451 1337q-24 -13 -37.5 -37t-13.5 -50t13 -50t37 -37t50 -13
t50 13t37 37t13 50t-13.5 50t-37.5 37t-49 13t-49 -13zM701 337q-24 -13 -37.5 -37t-13.5 -50t13 -50t37 -37t50 -13t50 13t37 37t13 50t-13.5 50t-37.5 37t-49 13t-49 -13zM701 837q-24 -13 -37.5 -37t-13.5 -50t13 -50t37 -37t50 -13t50 13t37 37t13 50t-13.5 50t-37.5 37
t-49 13t-49 -13zM701 1087q-24 -13 -37.5 -37t-13.5 -50t13 -50t37 -37t50 -13t50 13t37 37t13 50t-13.5 50t-37.5 37t-49 13t-49 -13zM701 1337q-24 -13 -37.5 -37t-13.5 -50t13 -50t37 -37t50 -13t50 13t37 37t13 50t-13.5 50t-37.5 37t-49 13t-49 -13zM951 337
q-24 -13 -37.5 -37t-13.5 -50t13 -50t37 -37t50 -13t50 13t37 37t13 50t-13.5 50t-37.5 37t-49 13t-49 -13zM951 837q-24 -13 -37.5 -37t-13.5 -50t13 -50t37 -37t50 -13t50 13t37 37t13 50t-13.5 50t-37.5 37t-49 13t-49 -13zM951 1087q-24 -13 -37.5 -37t-13.5 -50t13 -50
t37 -37t50 -13t50 13t37 37t13 50t-13.5 50t-37.5 37t-49 13t-49 -13zM951 1337q-24 -13 -37.5 -37t-13.5 -50t13 -50t37 -37t50 -13t50 13t37 37t13 50t-13.5 50t-37.5 37t-49 13t-49 -13zM1201 337q-24 -13 -37.5 -37t-13.5 -50t13 -50t37 -37t50 -13t50 13t37 37t13 50
t-13.5 50t-37.5 37t-49 13t-49 -13zM1201 1087q-24 -13 -37.5 -37t-13.5 -50t13 -50t37 -37t50 -13t50 13t37 37t13 50t-13.5 50t-37.5 37t-49 13t-49 -13zM100 0q-26 0 -50 13t-37 37t-13 50v1300q0 26 13.5 50t37.5 37t49 13h1300q25 0 49 -13t37.5 -37t13.5 -50v-1300
q0 -26 -13 -50t-37 -37t-50 -13h-1300z" />
    <glyph glyph-name="A" unicode="A" 
d="M201 337q-24 -13 -37.5 -37t-13.5 -50t13 -50t37 -37t50 -13t50 13t37 37t13 50t-13.5 50t-37.5 37t-49 13t-49 -13zM201 587q-24 -13 -37.5 -37t-13.5 -50t13 -50t37 -37t50 -13t50 13t37 37t13 50t-13.5 50t-37.5 37t-49 13t-49 -13zM201 837q-24 -13 -37.5 -37
t-13.5 -50t13 -50t37 -37t50 -13t50 13t37 37t13 50t-13.5 50t-37.5 37t-49 13t-49 -13zM451 587q-24 -13 -37.5 -37t-13.5 -50t13 -50t37 -37t50 -13t50 13t37 37t13 50t-13.5 50t-37.5 37t-49 13t-49 -13zM451 1087q-24 -13 -37.5 -37t-13.5 -50t13 -50t37 -37t50 -13
t50 13t37 37t13 50t-13.5 50t-37.5 37t-49 13t-49 -13zM701 587q-24 -13 -37.5 -37t-13.5 -50t13 -50t37 -37t50 -13t50 13t37 37t13 50t-13.5 50t-37.5 37t-49 13t-49 -13zM701 1337q-24 -13 -37.5 -37t-13.5 -50t13 -50t37 -37t50 -13t50 13t37 37t13 50t-13.5 50
t-37.5 37t-49 13t-49 -13zM951 587q-24 -13 -37.5 -37t-13.5 -50t13 -50t37 -37t50 -13t50 13t37 37t13 50t-13.5 50t-37.5 37t-49 13t-49 -13zM951 1087q-24 -13 -37.5 -37t-13.5 -50t13 -50t37 -37t50 -13t50 13t37 37t13 50t-13.5 50t-37.5 37t-49 13t-49 -13zM1201 337
q-24 -13 -37.5 -37t-13.5 -50t13 -50t37 -37t50 -13t50 13t37 37t13 50t-13.5 50t-37.5 37t-49 13t-49 -13zM1201 587q-24 -13 -37.5 -37t-13.5 -50t13 -50t37 -37t50 -13t50 13t37 37t13 50t-13.5 50t-37.5 37t-49 13t-49 -13zM1201 837q-24 -13 -37.5 -37t-13.5 -50
t13 -50t37 -37t50 -13t50 13t37 37t13 50t-13.5 50t-37.5 37t-49 13t-49 -13zM100 0q-26 0 -50 13t-37 37t-13 50v1300q0 26 13.5 50t37.5 37t49 13h1300q25 0 49 -13t37.5 -37t13.5 -50v-1300q0 -26 -13 -50t-37 -37t-50 -13h-1300z" />
    <glyph glyph-name="B" unicode="B" 
d="M201 337q-24 -13 -37.5 -37t-13.5 -50t13 -50t37 -37t50 -13t50 13t37 37t13 50t-13.5 50t-37.5 37t-49 13t-49 -13zM201 587q-24 -13 -37.5 -37t-13.5 -50t13 -50t37 -37t50 -13t50 13t37 37t13 50t-13.5 50t-37.5 37t-49 13t-49 -13zM201 837q-24 -13 -37.5 -37
t-13.5 -50t13 -50t37 -37t50 -13t50 13t37 37t13 50t-13.5 50t-37.5 37t-49 13t-49 -13zM201 1087q-24 -13 -37.5 -37t-13.5 -50t13 -50t37 -37t50 -13t50 13t37 37t13 50t-13.5 50t-37.5 37t-49 13t-49 -13zM201 1337q-24 -13 -37.5 -37t-13.5 -50t13 -50t37 -37t50 -13
t50 13t37 37t13 50t-13.5 50t-37.5 37t-49 13t-49 -13zM451 337q-24 -13 -37.5 -37t-13.5 -50t13 -50t37 -37t50 -13t50 13t37 37t13 50t-13.5 50t-37.5 37t-49 13t-49 -13zM451 837q-24 -13 -37.5 -37t-13.5 -50t13 -50t37 -37t50 -13t50 13t37 37t13 50t-13.5 50t-37.5 37
t-49 13t-49 -13zM451 1337q-24 -13 -37.5 -37t-13.5 -50t13 -50t37 -37t50 -13t50 13t37 37t13 50t-13.5 50t-37.5 37t-49 13t-49 -13zM701 337q-24 -13 -37.5 -37t-13.5 -50t13 -50t37 -37t50 -13t50 13t37 37t13 50t-13.5 50t-37.5 37t-49 13t-49 -13zM701 837
q-24 -13 -37.5 -37t-13.5 -50t13 -50t37 -37t50 -13t50 13t37 37t13 50t-13.5 50t-37.5 37t-49 13t-49 -13zM701 1337q-24 -13 -37.5 -37t-13.5 -50t13 -50t37 -37t50 -13t50 13t37 37t13 50t-13.5 50t-37.5 37t-49 13t-49 -13zM951 337q-24 -13 -37.5 -37t-13.5 -50t13 -50
t37 -37t50 -13t50 13t37 37t13 50t-13.5 50t-37.5 37t-49 13t-49 -13zM951 837q-24 -13 -37.5 -37t-13.5 -50t13 -50t37 -37t50 -13t50 13t37 37t13 50t-13.5 50t-37.5 37t-49 13t-49 -13zM951 1337q-24 -13 -37.5 -37t-13.5 -50t13 -50t37 -37t50 -13t50 13t37 37t13 50
t-13.5 50t-37.5 37t-49 13t-49 -13zM1201 587q-24 -13 -37.5 -37t-13.5 -50t13 -50t37 -37t50 -13t50 13t37 37t13 50t-13.5 50t-37.5 37t-49 13t-49 -13zM1201 1087q-24 -13 -37.5 -37t-13.5 -50t13 -50t37 -37t50 -13t50 13t37 37t13 50t-13.5 50t-37.5 37t-49 13t-49 -13
zM100 0q-26 0 -50 13t-37 37t-13 50v1300q0 26 13.5 50t37.5 37t49 13h1300q25 0 49 -13t37.5 -37t13.5 -50v-1300q0 -26 -13 -50t-37 -37t-50 -13h-1300z" />
    <glyph glyph-name="C" unicode="C" 
d="M201 587q-24 -13 -37.5 -37t-13.5 -50t13 -50t37 -37t50 -13t50 13t37 37t13 50t-13.5 50t-37.5 37t-49 13t-49 -13zM201 837q-24 -13 -37.5 -37t-13.5 -50t13 -50t37 -37t50 -13t50 13t37 37t13 50t-13.5 50t-37.5 37t-49 13t-49 -13zM201 1087q-24 -13 -37.5 -37
t-13.5 -50t13 -50t37 -37t50 -13t50 13t37 37t13 50t-13.5 50t-37.5 37t-49 13t-49 -13zM451 337q-24 -13 -37.5 -37t-13.5 -50t13 -50t37 -37t50 -13t50 13t37 37t13 50t-13.5 50t-37.5 37t-49 13t-49 -13zM451 1337q-24 -13 -37.5 -37t-13.5 -50t13 -50t37 -37t50 -13
t50 13t37 37t13 50t-13.5 50t-37.5 37t-49 13t-49 -13zM701 337q-24 -13 -37.5 -37t-13.5 -50t13 -50t37 -37t50 -13t50 13t37 37t13 50t-13.5 50t-37.5 37t-49 13t-49 -13zM701 1337q-24 -13 -37.5 -37t-13.5 -50t13 -50t37 -37t50 -13t50 13t37 37t13 50t-13.5 50
t-37.5 37t-49 13t-49 -13zM951 337q-24 -13 -37.5 -37t-13.5 -50t13 -50t37 -37t50 -13t50 13t37 37t13 50t-13.5 50t-37.5 37t-49 13t-49 -13zM951 1337q-24 -13 -37.5 -37t-13.5 -50t13 -50t37 -37t50 -13t50 13t37 37t13 50t-13.5 50t-37.5 37t-49 13t-49 -13zM1201 587
q-24 -13 -37.5 -37t-13.5 -50t13 -50t37 -37t50 -13t50 13t37 37t13 50t-13.5 50t-37.5 37t-49 13t-49 -13zM1201 1087q-24 -13 -37.5 -37t-13.5 -50t13 -50t37 -37t50 -13t50 13t37 37t13 50t-13.5 50t-37.5 37t-49 13t-49 -13zM100 0q-26 0 -50 13t-37 37t-13 50v1300
q0 26 13.5 50t37.5 37t49 13h1300q25 0 49 -13t37.5 -37t13.5 -50v-1300q0 -26 -13 -50t-37 -37t-50 -13h-1300z" />
    <glyph glyph-name="D" unicode="D" 
d="M201 337q-24 -13 -37.5 -37t-13.5 -50t13 -50t37 -37t50 -13t50 13t37 37t13 50t-13.5 50t-37.5 37t-49 13t-49 -13zM201 587q-24 -13 -37.5 -37t-13.5 -50t13 -50t37 -37t50 -13t50 13t37 37t13 50t-13.5 50t-37.5 37t-49 13t-49 -13zM201 837q-24 -13 -37.5 -37
t-13.5 -50t13 -50t37 -37t50 -13t50 13t37 37t13 50t-13.5 50t-37.5 37t-49 13t-49 -13zM201 1087q-24 -13 -37.5 -37t-13.5 -50t13 -50t37 -37t50 -13t50 13t37 37t13 50t-13.5 50t-37.5 37t-49 13t-49 -13zM201 1337q-24 -13 -37.5 -37t-13.5 -50t13 -50t37 -37t50 -13
t50 13t37 37t13 50t-13.5 50t-37.5 37t-49 13t-49 -13zM451 337q-24 -13 -37.5 -37t-13.5 -50t13 -50t37 -37t50 -13t50 13t37 37t13 50t-13.5 50t-37.5 37t-49 13t-49 -13zM451 1337q-24 -13 -37.5 -37t-13.5 -50t13 -50t37 -37t50 -13t50 13t37 37t13 50t-13.5 50
t-37.5 37t-49 13t-49 -13zM701 337q-24 -13 -37.5 -37t-13.5 -50t13 -50t37 -37t50 -13t50 13t37 37t13 50t-13.5 50t-37.5 37t-49 13t-49 -13zM701 1337q-24 -13 -37.5 -37t-13.5 -50t13 -50t37 -37t50 -13t50 13t37 37t13 50t-13.5 50t-37.5 37t-49 13t-49 -13zM951 337
q-24 -13 -37.5 -37t-13.5 -50t13 -50t37 -37t50 -13t50 13t37 37t13 50t-13.5 50t-37.5 37t-49 13t-49 -13zM951 1337q-24 -13 -37.5 -37t-13.5 -50t13 -50t37 -37t50 -13t50 13t37 37t13 50t-13.5 50t-37.5 37t-49 13t-49 -13zM1201 587q-24 -13 -37.5 -37t-13.5 -50
t13 -50t37 -37t50 -13t50 13t37 37t13 50t-13.5 50t-37.5 37t-49 13t-49 -13zM1201 837q-24 -13 -37.5 -37t-13.5 -50t13 -50t37 -37t50 -13t50 13t37 37t13 50t-13.5 50t-37.5 37t-49 13t-49 -13zM1201 1087q-24 -13 -37.5 -37t-13.5 -50t13 -50t37 -37t50 -13t50 13t37 37
t13 50t-13.5 50t-37.5 37t-49 13t-49 -13zM100 0q-26 0 -50 13t-37 37t-13 50v1300q0 26 13.5 50t37.5 37t49 13h1300q25 0 49 -13t37.5 -37t13.5 -50v-1300q0 -26 -13 -50t-37 -37t-50 -13h-1300z" />
    <glyph glyph-name="E" unicode="E" 
d="M201 337q-24 -13 -37.5 -37t-13.5 -50t13 -50t37 -37t50 -13t50 13t37 37t13 50t-13.5 50t-37.5 37t-49 13t-49 -13zM201 587q-24 -13 -37.5 -37t-13.5 -50t13 -50t37 -37t50 -13t50 13t37 37t13 50t-13.5 50t-37.5 37t-49 13t-49 -13zM201 837q-24 -13 -37.5 -37
t-13.5 -50t13 -50t37 -37t50 -13t50 13t37 37t13 50t-13.5 50t-37.5 37t-49 13t-49 -13zM201 1087q-24 -13 -37.5 -37t-13.5 -50t13 -50t37 -37t50 -13t50 13t37 37t13 50t-13.5 50t-37.5 37t-49 13t-49 -13zM201 1337q-24 -13 -37.5 -37t-13.5 -50t13 -50t37 -37t50 -13
t50 13t37 37t13 50t-13.5 50t-37.5 37t-49 13t-49 -13zM451 337q-24 -13 -37.5 -37t-13.5 -50t13 -50t37 -37t50 -13t50 13t37 37t13 50t-13.5 50t-37.5 37t-49 13t-49 -13zM451 837q-24 -13 -37.5 -37t-13.5 -50t13 -50t37 -37t50 -13t50 13t37 37t13 50t-13.5 50t-37.5 37
t-49 13t-49 -13zM451 1337q-24 -13 -37.5 -37t-13.5 -50t13 -50t37 -37t50 -13t50 13t37 37t13 50t-13.5 50t-37.5 37t-49 13t-49 -13zM701 337q-24 -13 -37.5 -37t-13.5 -50t13 -50t37 -37t50 -13t50 13t37 37t13 50t-13.5 50t-37.5 37t-49 13t-49 -13zM701 837
q-24 -13 -37.5 -37t-13.5 -50t13 -50t37 -37t50 -13t50 13t37 37t13 50t-13.5 50t-37.5 37t-49 13t-49 -13zM701 1337q-24 -13 -37.5 -37t-13.5 -50t13 -50t37 -37t50 -13t50 13t37 37t13 50t-13.5 50t-37.5 37t-49 13t-49 -13zM951 337q-24 -13 -37.5 -37t-13.5 -50t13 -50
t37 -37t50 -13t50 13t37 37t13 50t-13.5 50t-37.5 37t-49 13t-49 -13zM951 837q-24 -13 -37.5 -37t-13.5 -50t13 -50t37 -37t50 -13t50 13t37 37t13 50t-13.5 50t-37.5 37t-49 13t-49 -13zM951 1337q-24 -13 -37.5 -37t-13.5 -50t13 -50t37 -37t50 -13t50 13t37 37t13 50
t-13.5 50t-37.5 37t-49 13t-49 -13zM1201 337q-24 -13 -37.5 -37t-13.5 -50t13 -50t37 -37t50 -13t50 13t37 37t13 50t-13.5 50t-37.5 37t-49 13t-49 -13zM1201 837q-24 -13 -37.5 -37t-13.5 -50t13 -50t37 -37t50 -13t50 13t37 37t13 50t-13.5 50t-37.5 37t-49 13t-49 -13z
M1201 1337q-24 -13 -37.5 -37t-13.5 -50t13 -50t37 -37t50 -13t50 13t37 37t13 50t-13.5 50t-37.5 37t-49 13t-49 -13zM100 0q-26 0 -50 13t-37 37t-13 50v1300q0 26 13.5 50t37.5 37t49 13h1300q25 0 49 -13t37.5 -37t13.5 -50v-1300q0 -26 -13 -50t-37 -37t-50 -13h-1300z
" />
    <glyph glyph-name="F" unicode="F" 
d="M201 337q-24 -13 -37.5 -37t-13.5 -50t13 -50t37 -37t50 -13t50 13t37 37t13 50t-13.5 50t-37.5 37t-49 13t-49 -13zM201 587q-24 -13 -37.5 -37t-13.5 -50t13 -50t37 -37t50 -13t50 13t37 37t13 50t-13.5 50t-37.5 37t-49 13t-49 -13zM201 837q-24 -13 -37.5 -37
t-13.5 -50t13 -50t37 -37t50 -13t50 13t37 37t13 50t-13.5 50t-37.5 37t-49 13t-49 -13zM201 1087q-24 -13 -37.5 -37t-13.5 -50t13 -50t37 -37t50 -13t50 13t37 37t13 50t-13.5 50t-37.5 37t-49 13t-49 -13zM201 1337q-24 -13 -37.5 -37t-13.5 -50t13 -50t37 -37t50 -13
t50 13t37 37t13 50t-13.5 50t-37.5 37t-49 13t-49 -13zM451 837q-24 -13 -37.5 -37t-13.5 -50t13 -50t37 -37t50 -13t50 13t37 37t13 50t-13.5 50t-37.5 37t-49 13t-49 -13zM451 1337q-24 -13 -37.5 -37t-13.5 -50t13 -50t37 -37t50 -13t50 13t37 37t13 50t-13.5 50
t-37.5 37t-49 13t-49 -13zM701 837q-24 -13 -37.5 -37t-13.5 -50t13 -50t37 -37t50 -13t50 13t37 37t13 50t-13.5 50t-37.5 37t-49 13t-49 -13zM701 1337q-24 -13 -37.5 -37t-13.5 -50t13 -50t37 -37t50 -13t50 13t37 37t13 50t-13.5 50t-37.5 37t-49 13t-49 -13zM951 837
q-24 -13 -37.5 -37t-13.5 -50t13 -50t37 -37t50 -13t50 13t37 37t13 50t-13.5 50t-37.5 37t-49 13t-49 -13zM951 1337q-24 -13 -37.5 -37t-13.5 -50t13 -50t37 -37t50 -13t50 13t37 37t13 50t-13.5 50t-37.5 37t-49 13t-49 -13zM1201 837q-24 -13 -37.5 -37t-13.5 -50
t13 -50t37 -37t50 -13t50 13t37 37t13 50t-13.5 50t-37.5 37t-49 13t-49 -13zM1201 1337q-24 -13 -37.5 -37t-13.5 -50t13 -50t37 -37t50 -13t50 13t37 37t13 50t-13.5 50t-37.5 37t-49 13t-49 -13zM100 0q-26 0 -50 13t-37 37t-13 50v1300q0 26 13.5 50t37.5 37t49 13h1300
q25 0 49 -13t37.5 -37t13.5 -50v-1300q0 -26 -13 -50t-37 -37t-50 -13h-1300z" />
    <glyph glyph-name="G" unicode="G" 
d="M201 587q-24 -13 -37.5 -37t-13.5 -50t13 -50t37 -37t50 -13t50 13t37 37t13 50t-13.5 50t-37.5 37t-49 13t-49 -13zM201 837q-24 -13 -37.5 -37t-13.5 -50t13 -50t37 -37t50 -13t50 13t37 37t13 50t-13.5 50t-37.5 37t-49 13t-49 -13zM201 1087q-24 -13 -37.5 -37
t-13.5 -50t13 -50t37 -37t50 -13t50 13t37 37t13 50t-13.5 50t-37.5 37t-49 13t-49 -13zM451 337q-24 -13 -37.5 -37t-13.5 -50t13 -50t37 -37t50 -13t50 13t37 37t13 50t-13.5 50t-37.5 37t-49 13t-49 -13zM451 1337q-24 -13 -37.5 -37t-13.5 -50t13 -50t37 -37t50 -13
t50 13t37 37t13 50t-13.5 50t-37.5 37t-49 13t-49 -13zM701 337q-24 -13 -37.5 -37t-13.5 -50t13 -50t37 -37t50 -13t50 13t37 37t13 50t-13.5 50t-37.5 37t-49 13t-49 -13zM701 837q-24 -13 -37.5 -37t-13.5 -50t13 -50t37 -37t50 -13t50 13t37 37t13 50t-13.5 50t-37.5 37
t-49 13t-49 -13zM701 1337q-24 -13 -37.5 -37t-13.5 -50t13 -50t37 -37t50 -13t50 13t37 37t13 50t-13.5 50t-37.5 37t-49 13t-49 -13zM951 337q-24 -13 -37.5 -37t-13.5 -50t13 -50t37 -37t50 -13t50 13t37 37t13 50t-13.5 50t-37.5 37t-49 13t-49 -13zM951 837
q-24 -13 -37.5 -37t-13.5 -50t13 -50t37 -37t50 -13t50 13t37 37t13 50t-13.5 50t-37.5 37t-49 13t-49 -13zM951 1337q-24 -13 -37.5 -37t-13.5 -50t13 -50t37 -37t50 -13t50 13t37 37t13 50t-13.5 50t-37.5 37t-49 13t-49 -13zM1201 337q-24 -13 -37.5 -37t-13.5 -50
t13 -50t37 -37t50 -13t50 13t37 37t13 50t-13.5 50t-37.5 37t-49 13t-49 -13zM1201 587q-24 -13 -37.5 -37t-13.5 -50t13 -50t37 -37t50 -13t50 13t37 37t13 50t-13.5 50t-37.5 37t-49 13t-49 -13zM1201 837q-24 -13 -37.5 -37t-13.5 -50t13 -50t37 -37t50 -13t50 13t37 37
t13 50t-13.5 50t-37.5 37t-49 13t-49 -13zM1201 1337q-24 -13 -37.5 -37t-13.5 -50t13 -50t37 -37t50 -13t50 13t37 37t13 50t-13.5 50t-37.5 37t-49 13t-49 -13zM100 0q-26 0 -50 13t-37 37t-13 50v1300q0 26 13.5 50t37.5 37t49 13h1300q25 0 49 -13t37.5 -37t13.5 -50
v-1300q0 -26 -13 -50t-37 -37t-50 -13h-1300z" />
    <glyph glyph-name="H" unicode="H" 
d="M201 337q-24 -13 -37.5 -37t-13.5 -50t13 -50t37 -37t50 -13t50 13t37 37t13 50t-13.5 50t-37.5 37t-49 13t-49 -13zM201 587q-24 -13 -37.5 -37t-13.5 -50t13 -50t37 -37t50 -13t50 13t37 37t13 50t-13.5 50t-37.5 37t-49 13t-49 -13zM201 837q-24 -13 -37.5 -37
t-13.5 -50t13 -50t37 -37t50 -13t50 13t37 37t13 50t-13.5 50t-37.5 37t-49 13t-49 -13zM201 1087q-24 -13 -37.5 -37t-13.5 -50t13 -50t37 -37t50 -13t50 13t37 37t13 50t-13.5 50t-37.5 37t-49 13t-49 -13zM201 1337q-24 -13 -37.5 -37t-13.5 -50t13 -50t37 -37t50 -13
t50 13t37 37t13 50t-13.5 50t-37.5 37t-49 13t-49 -13zM451 837q-24 -13 -37.5 -37t-13.5 -50t13 -50t37 -37t50 -13t50 13t37 37t13 50t-13.5 50t-37.5 37t-49 13t-49 -13zM701 837q-24 -13 -37.5 -37t-13.5 -50t13 -50t37 -37t50 -13t50 13t37 37t13 50t-13.5 50t-37.5 37
t-49 13t-49 -13zM951 837q-24 -13 -37.5 -37t-13.5 -50t13 -50t37 -37t50 -13t50 13t37 37t13 50t-13.5 50t-37.5 37t-49 13t-49 -13zM1201 337q-24 -13 -37.5 -37t-13.5 -50t13 -50t37 -37t50 -13t50 13t37 37t13 50t-13.5 50t-37.5 37t-49 13t-49 -13zM1201 587
q-24 -13 -37.5 -37t-13.5 -50t13 -50t37 -37t50 -13t50 13t37 37t13 50t-13.5 50t-37.5 37t-49 13t-49 -13zM1201 837q-24 -13 -37.5 -37t-13.5 -50t13 -50t37 -37t50 -13t50 13t37 37t13 50t-13.5 50t-37.5 37t-49 13t-49 -13zM1201 1087q-24 -13 -37.5 -37t-13.5 -50
t13 -50t37 -37t50 -13t50 13t37 37t13 50t-13.5 50t-37.5 37t-49 13t-49 -13zM1201 1337q-24 -13 -37.5 -37t-13.5 -50t13 -50t37 -37t50 -13t50 13t37 37t13 50t-13.5 50t-37.5 37t-49 13t-49 -13zM100 0q-26 0 -50 13t-37 37t-13 50v1300q0 26 13.5 50t37.5 37t49 13h1300
q25 0 49 -13t37.5 -37t13.5 -50v-1300q0 -26 -13 -50t-37 -37t-50 -13h-1300z" />
    <glyph glyph-name="I" unicode="I" 
d="M201 337q-24 -13 -37.5 -37t-13.5 -50t13 -50t37 -37t50 -13t50 13t37 37t13 50t-13.5 50t-37.5 37t-49 13t-49 -13zM201 1337q-24 -13 -37.5 -37t-13.5 -50t13 -50t37 -37t50 -13t50 13t37 37t13 50t-13.5 50t-37.5 37t-49 13t-49 -13zM451 337q-24 -13 -37.5 -37
t-13.5 -50t13 -50t37 -37t50 -13t50 13t37 37t13 50t-13.5 50t-37.5 37t-49 13t-49 -13zM451 1337q-24 -13 -37.5 -37t-13.5 -50t13 -50t37 -37t50 -13t50 13t37 37t13 50t-13.5 50t-37.5 37t-49 13t-49 -13zM701 337q-24 -13 -37.5 -37t-13.5 -50t13 -50t37 -37t50 -13
t50 13t37 37t13 50t-13.5 50t-37.5 37t-49 13t-49 -13zM701 587q-24 -13 -37.5 -37t-13.5 -50t13 -50t37 -37t50 -13t50 13t37 37t13 50t-13.5 50t-37.5 37t-49 13t-49 -13zM701 837q-24 -13 -37.5 -37t-13.5 -50t13 -50t37 -37t50 -13t50 13t37 37t13 50t-13.5 50t-37.5 37
t-49 13t-49 -13zM701 1087q-24 -13 -37.5 -37t-13.5 -50t13 -50t37 -37t50 -13t50 13t37 37t13 50t-13.5 50t-37.5 37t-49 13t-49 -13zM701 1337q-24 -13 -37.5 -37t-13.5 -50t13 -50t37 -37t50 -13t50 13t37 37t13 50t-13.5 50t-37.5 37t-49 13t-49 -13zM951 337
q-24 -13 -37.5 -37t-13.5 -50t13 -50t37 -37t50 -13t50 13t37 37t13 50t-13.5 50t-37.5 37t-49 13t-49 -13zM951 1337q-24 -13 -37.5 -37t-13.5 -50t13 -50t37 -37t50 -13t50 13t37 37t13 50t-13.5 50t-37.5 37t-49 13t-49 -13zM1201 337q-24 -13 -37.5 -37t-13.5 -50
t13 -50t37 -37t50 -13t50 13t37 37t13 50t-13.5 50t-37.5 37t-49 13t-49 -13zM1201 1337q-24 -13 -37.5 -37t-13.5 -50t13 -50t37 -37t50 -13t50 13t37 37t13 50t-13.5 50t-37.5 37t-49 13t-49 -13zM100 0q-26 0 -50 13t-37 37t-13 50v1300q0 26 13.5 50t37.5 37t49 13h1300
q25 0 49 -13t37.5 -37t13.5 -50v-1300q0 -26 -13 -50t-37 -37t-50 -13h-1300z" />
    <glyph glyph-name="J" unicode="J" 
d="M201 587q-24 -13 -37.5 -37t-13.5 -50t13 -50t37 -37t50 -13t50 13t37 37t13 50t-13.5 50t-37.5 37t-49 13t-49 -13zM201 837q-24 -13 -37.5 -37t-13.5 -50t13 -50t37 -37t50 -13t50 13t37 37t13 50t-13.5 50t-37.5 37t-49 13t-49 -13zM451 337q-24 -13 -37.5 -37
t-13.5 -50t13 -50t37 -37t50 -13t50 13t37 37t13 50t-13.5 50t-37.5 37t-49 13t-49 -13zM701 337q-24 -13 -37.5 -37t-13.5 -50t13 -50t37 -37t50 -13t50 13t37 37t13 50t-13.5 50t-37.5 37t-49 13t-49 -13zM951 337q-24 -13 -37.5 -37t-13.5 -50t13 -50t37 -37t50 -13
t50 13t37 37t13 50t-13.5 50t-37.5 37t-49 13t-49 -13zM1201 587q-24 -13 -37.5 -37t-13.5 -50t13 -50t37 -37t50 -13t50 13t37 37t13 50t-13.5 50t-37.5 37t-49 13t-49 -13zM1201 837q-24 -13 -37.5 -37t-13.5 -50t13 -50t37 -37t50 -13t50 13t37 37t13 50t-13.5 50
t-37.5 37t-49 13t-49 -13zM1201 1087q-24 -13 -37.5 -37t-13.5 -50t13 -50t37 -37t50 -13t50 13t37 37t13 50t-13.5 50t-37.5 37t-49 13t-49 -13zM1201 1337q-24 -13 -37.5 -37t-13.5 -50t13 -50t37 -37t50 -13t50 13t37 37t13 50t-13.5 50t-37.5 37t-49 13t-49 -13zM100 0
q-26 0 -50 13t-37 37t-13 50v1300q0 26 13.5 50t37.5 37t49 13h1300q25 0 49 -13t37.5 -37t13.5 -50v-1300q0 -26 -13 -50t-37 -37t-50 -13h-1300z" />
    <glyph glyph-name="K" unicode="K" 
d="M201 337q-24 -13 -37.5 -37t-13.5 -50t13 -50t37 -37t50 -13t50 13t37 37t13 50t-13.5 50t-37.5 37t-49 13t-49 -13zM201 587q-24 -13 -37.5 -37t-13.5 -50t13 -50t37 -37t50 -13t50 13t37 37t13 50t-13.5 50t-37.5 37t-49 13t-49 -13zM201 837q-24 -13 -37.5 -37
t-13.5 -50t13 -50t37 -37t50 -13t50 13t37 37t13 50t-13.5 50t-37.5 37t-49 13t-49 -13zM201 1087q-24 -13 -37.5 -37t-13.5 -50t13 -50t37 -37t50 -13t50 13t37 37t13 50t-13.5 50t-37.5 37t-49 13t-49 -13zM201 1337q-24 -13 -37.5 -37t-13.5 -50t13 -50t37 -37t50 -13
t50 13t37 37t13 50t-13.5 50t-37.5 37t-49 13t-49 -13zM451 837q-24 -13 -37.5 -37t-13.5 -50t13 -50t37 -37t50 -13t50 13t37 37t13 50t-13.5 50t-37.5 37t-49 13t-49 -13zM701 837q-24 -13 -37.5 -37t-13.5 -50t13 -50t37 -37t50 -13t50 13t37 37t13 50t-13.5 50t-37.5 37
t-49 13t-49 -13zM951 587q-24 -13 -37.5 -37t-13.5 -50t13 -50t37 -37t50 -13t50 13t37 37t13 50t-13.5 50t-37.5 37t-49 13t-49 -13zM951 1087q-24 -13 -37.5 -37t-13.5 -50t13 -50t37 -37t50 -13t50 13t37 37t13 50t-13.5 50t-37.5 37t-49 13t-49 -13zM1201 337
q-24 -13 -37.5 -37t-13.5 -50t13 -50t37 -37t50 -13t50 13t37 37t13 50t-13.5 50t-37.5 37t-49 13t-49 -13zM1201 1337q-24 -13 -37.5 -37t-13.5 -50t13 -50t37 -37t50 -13t50 13t37 37t13 50t-13.5 50t-37.5 37t-49 13t-49 -13zM100 0q-26 0 -50 13t-37 37t-13 50v1300
q0 26 13.5 50t37.5 37t49 13h1300q25 0 49 -13t37.5 -37t13.5 -50v-1300q0 -26 -13 -50t-37 -37t-50 -13h-1300z" />
    <glyph glyph-name="L" unicode="L" 
d="M201 337q-24 -13 -37.5 -37t-13.5 -50t13 -50t37 -37t50 -13t50 13t37 37t13 50t-13.5 50t-37.5 37t-49 13t-49 -13zM201 587q-24 -13 -37.5 -37t-13.5 -50t13 -50t37 -37t50 -13t50 13t37 37t13 50t-13.5 50t-37.5 37t-49 13t-49 -13zM201 837q-24 -13 -37.5 -37
t-13.5 -50t13 -50t37 -37t50 -13t50 13t37 37t13 50t-13.5 50t-37.5 37t-49 13t-49 -13zM201 1087q-24 -13 -37.5 -37t-13.5 -50t13 -50t37 -37t50 -13t50 13t37 37t13 50t-13.5 50t-37.5 37t-49 13t-49 -13zM201 1337q-24 -13 -37.5 -37t-13.5 -50t13 -50t37 -37t50 -13
t50 13t37 37t13 50t-13.5 50t-37.5 37t-49 13t-49 -13zM451 337q-24 -13 -37.5 -37t-13.5 -50t13 -50t37 -37t50 -13t50 13t37 37t13 50t-13.5 50t-37.5 37t-49 13t-49 -13zM701 337q-24 -13 -37.5 -37t-13.5 -50t13 -50t37 -37t50 -13t50 13t37 37t13 50t-13.5 50t-37.5 37
t-49 13t-49 -13zM951 337q-24 -13 -37.5 -37t-13.5 -50t13 -50t37 -37t50 -13t50 13t37 37t13 50t-13.5 50t-37.5 37t-49 13t-49 -13zM1201 337q-24 -13 -37.5 -37t-13.5 -50t13 -50t37 -37t50 -13t50 13t37 37t13 50t-13.5 50t-37.5 37t-49 13t-49 -13zM100 0q-26 0 -50 13
t-37 37t-13 50v1300q0 26 13.5 50t37.5 37t49 13h1300q25 0 49 -13t37.5 -37t13.5 -50v-1300q0 -26 -13 -50t-37 -37t-50 -13h-1300z" />
    <glyph glyph-name="M" unicode="M" 
d="M201 337q-24 -13 -37.5 -37t-13.5 -50t13 -50t37 -37t50 -13t50 13t37 37t13 50t-13.5 50t-37.5 37t-49 13t-49 -13zM201 587q-24 -13 -37.5 -37t-13.5 -50t13 -50t37 -37t50 -13t50 13t37 37t13 50t-13.5 50t-37.5 37t-49 13t-49 -13zM201 837q-24 -13 -37.5 -37
t-13.5 -50t13 -50t37 -37t50 -13t50 13t37 37t13 50t-13.5 50t-37.5 37t-49 13t-49 -13zM201 1087q-24 -13 -37.5 -37t-13.5 -50t13 -50t37 -37t50 -13t50 13t37 37t13 50t-13.5 50t-37.5 37t-49 13t-49 -13zM201 1337q-24 -13 -37.5 -37t-13.5 -50t13 -50t37 -37t50 -13
t50 13t37 37t13 50t-13.5 50t-37.5 37t-49 13t-49 -13zM451 1087q-24 -13 -37.5 -37t-13.5 -50t13 -50t37 -37t50 -13t50 13t37 37t13 50t-13.5 50t-37.5 37t-49 13t-49 -13zM701 837q-24 -13 -37.5 -37t-13.5 -50t13 -50t37 -37t50 -13t50 13t37 37t13 50t-13.5 50
t-37.5 37t-49 13t-49 -13zM951 1087q-24 -13 -37.5 -37t-13.5 -50t13 -50t37 -37t50 -13t50 13t37 37t13 50t-13.5 50t-37.5 37t-49 13t-49 -13zM1201 337q-24 -13 -37.5 -37t-13.5 -50t13 -50t37 -37t50 -13t50 13t37 37t13 50t-13.5 50t-37.5 37t-49 13t-49 -13zM1201 587
q-24 -13 -37.5 -37t-13.5 -50t13 -50t37 -37t50 -13t50 13t37 37t13 50t-13.5 50t-37.5 37t-49 13t-49 -13zM1201 837q-24 -13 -37.5 -37t-13.5 -50t13 -50t37 -37t50 -13t50 13t37 37t13 50t-13.5 50t-37.5 37t-49 13t-49 -13zM1201 1087q-24 -13 -37.5 -37t-13.5 -50
t13 -50t37 -37t50 -13t50 13t37 37t13 50t-13.5 50t-37.5 37t-49 13t-49 -13zM1201 1337q-24 -13 -37.5 -37t-13.5 -50t13 -50t37 -37t50 -13t50 13t37 37t13 50t-13.5 50t-37.5 37t-49 13t-49 -13zM100 0q-26 0 -50 13t-37 37t-13 50v1300q0 26 13.5 50t37.5 37t49 13h1300
q25 0 49 -13t37.5 -37t13.5 -50v-1300q0 -26 -13 -50t-37 -37t-50 -13h-1300z" />
    <glyph glyph-name="N" unicode="N" 
d="M201 337q-24 -13 -37.5 -37t-13.5 -50t13 -50t37 -37t50 -13t50 13t37 37t13 50t-13.5 50t-37.5 37t-49 13t-49 -13zM201 587q-24 -13 -37.5 -37t-13.5 -50t13 -50t37 -37t50 -13t50 13t37 37t13 50t-13.5 50t-37.5 37t-49 13t-49 -13zM201 837q-24 -13 -37.5 -37
t-13.5 -50t13 -50t37 -37t50 -13t50 13t37 37t13 50t-13.5 50t-37.5 37t-49 13t-49 -13zM201 1087q-24 -13 -37.5 -37t-13.5 -50t13 -50t37 -37t50 -13t50 13t37 37t13 50t-13.5 50t-37.5 37t-49 13t-49 -13zM201 1337q-24 -13 -37.5 -37t-13.5 -50t13 -50t37 -37t50 -13
t50 13t37 37t13 50t-13.5 50t-37.5 37t-49 13t-49 -13zM451 1087q-24 -13 -37.5 -37t-13.5 -50t13 -50t37 -37t50 -13t50 13t37 37t13 50t-13.5 50t-37.5 37t-49 13t-49 -13zM701 837q-24 -13 -37.5 -37t-13.5 -50t13 -50t37 -37t50 -13t50 13t37 37t13 50t-13.5 50
t-37.5 37t-49 13t-49 -13zM951 587q-24 -13 -37.5 -37t-13.5 -50t13 -50t37 -37t50 -13t50 13t37 37t13 50t-13.5 50t-37.5 37t-49 13t-49 -13zM1201 337q-24 -13 -37.5 -37t-13.5 -50t13 -50t37 -37t50 -13t50 13t37 37t13 50t-13.5 50t-37.5 37t-49 13t-49 -13zM1201 587
q-24 -13 -37.5 -37t-13.5 -50t13 -50t37 -37t50 -13t50 13t37 37t13 50t-13.5 50t-37.5 37t-49 13t-49 -13zM1201 837q-24 -13 -37.5 -37t-13.5 -50t13 -50t37 -37t50 -13t50 13t37 37t13 50t-13.5 50t-37.5 37t-49 13t-49 -13zM1201 1087q-24 -13 -37.5 -37t-13.5 -50
t13 -50t37 -37t50 -13t50 13t37 37t13 50t-13.5 50t-37.5 37t-49 13t-49 -13zM1201 1337q-24 -13 -37.5 -37t-13.5 -50t13 -50t37 -37t50 -13t50 13t37 37t13 50t-13.5 50t-37.5 37t-49 13t-49 -13zM100 0q-26 0 -50 13t-37 37t-13 50v1300q0 26 13.5 50t37.5 37t49 13h1300
q25 0 49 -13t37.5 -37t13.5 -50v-1300q0 -26 -13 -50t-37 -37t-50 -13h-1300z" />
    <glyph glyph-name="O" unicode="O" 
d="M201 587q-24 -13 -37.5 -37t-13.5 -50t13 -50t37 -37t50 -13t50 13t37 37t13 50t-13.5 50t-37.5 37t-49 13t-49 -13zM201 837q-24 -13 -37.5 -37t-13.5 -50t13 -50t37 -37t50 -13t50 13t37 37t13 50t-13.5 50t-37.5 37t-49 13t-49 -13zM201 1087q-24 -13 -37.5 -37
t-13.5 -50t13 -50t37 -37t50 -13t50 13t37 37t13 50t-13.5 50t-37.5 37t-49 13t-49 -13zM451 337q-24 -13 -37.5 -37t-13.5 -50t13 -50t37 -37t50 -13t50 13t37 37t13 50t-13.5 50t-37.5 37t-49 13t-49 -13zM451 1337q-24 -13 -37.5 -37t-13.5 -50t13 -50t37 -37t50 -13
t50 13t37 37t13 50t-13.5 50t-37.5 37t-49 13t-49 -13zM701 337q-24 -13 -37.5 -37t-13.5 -50t13 -50t37 -37t50 -13t50 13t37 37t13 50t-13.5 50t-37.5 37t-49 13t-49 -13zM701 1337q-24 -13 -37.5 -37t-13.5 -50t13 -50t37 -37t50 -13t50 13t37 37t13 50t-13.5 50
t-37.5 37t-49 13t-49 -13zM951 337q-24 -13 -37.5 -37t-13.5 -50t13 -50t37 -37t50 -13t50 13t37 37t13 50t-13.5 50t-37.5 37t-49 13t-49 -13zM951 1337q-24 -13 -37.5 -37t-13.5 -50t13 -50t37 -37t50 -13t50 13t37 37t13 50t-13.5 50t-37.5 37t-49 13t-49 -13zM1201 587
q-24 -13 -37.5 -37t-13.5 -50t13 -50t37 -37t50 -13t50 13t37 37t13 50t-13.5 50t-37.5 37t-49 13t-49 -13zM1201 837q-24 -13 -37.5 -37t-13.5 -50t13 -50t37 -37t50 -13t50 13t37 37t13 50t-13.5 50t-37.5 37t-49 13t-49 -13zM1201 1087q-24 -13 -37.5 -37t-13.5 -50
t13 -50t37 -37t50 -13t50 13t37 37t13 50t-13.5 50t-37.5 37t-49 13t-49 -13zM100 0q-26 0 -50 13t-37 37t-13 50v1300q0 26 13.5 50t37.5 37t49 13h1300q25 0 49 -13t37.5 -37t13.5 -50v-1300q0 -26 -13 -50t-37 -37t-50 -13h-1300z" />
    <glyph glyph-name="P" unicode="P" 
d="M201 337q-24 -13 -37.5 -37t-13.5 -50t13 -50t37 -37t50 -13t50 13t37 37t13 50t-13.5 50t-37.5 37t-49 13t-49 -13zM201 587q-24 -13 -37.5 -37t-13.5 -50t13 -50t37 -37t50 -13t50 13t37 37t13 50t-13.5 50t-37.5 37t-49 13t-49 -13zM201 837q-24 -13 -37.5 -37
t-13.5 -50t13 -50t37 -37t50 -13t50 13t37 37t13 50t-13.5 50t-37.5 37t-49 13t-49 -13zM201 1087q-24 -13 -37.5 -37t-13.5 -50t13 -50t37 -37t50 -13t50 13t37 37t13 50t-13.5 50t-37.5 37t-49 13t-49 -13zM201 1337q-24 -13 -37.5 -37t-13.5 -50t13 -50t37 -37t50 -13
t50 13t37 37t13 50t-13.5 50t-37.5 37t-49 13t-49 -13zM451 837q-24 -13 -37.5 -37t-13.5 -50t13 -50t37 -37t50 -13t50 13t37 37t13 50t-13.5 50t-37.5 37t-49 13t-49 -13zM451 1337q-24 -13 -37.5 -37t-13.5 -50t13 -50t37 -37t50 -13t50 13t37 37t13 50t-13.5 50
t-37.5 37t-49 13t-49 -13zM701 837q-24 -13 -37.5 -37t-13.5 -50t13 -50t37 -37t50 -13t50 13t37 37t13 50t-13.5 50t-37.5 37t-49 13t-49 -13zM701 1337q-24 -13 -37.5 -37t-13.5 -50t13 -50t37 -37t50 -13t50 13t37 37t13 50t-13.5 50t-37.5 37t-49 13t-49 -13zM951 837
q-24 -13 -37.5 -37t-13.5 -50t13 -50t37 -37t50 -13t50 13t37 37t13 50t-13.5 50t-37.5 37t-49 13t-49 -13zM951 1337q-24 -13 -37.5 -37t-13.5 -50t13 -50t37 -37t50 -13t50 13t37 37t13 50t-13.5 50t-37.5 37t-49 13t-49 -13zM1201 1087q-24 -13 -37.5 -37t-13.5 -50
t13 -50t37 -37t50 -13t50 13t37 37t13 50t-13.5 50t-37.5 37t-49 13t-49 -13zM100 0q-26 0 -50 13t-37 37t-13 50v1300q0 26 13.5 50t37.5 37t49 13h1300q25 0 49 -13t37.5 -37t13.5 -50v-1300q0 -26 -13 -50t-37 -37t-50 -13h-1300z" />
    <glyph glyph-name="Q" unicode="Q" 
d="M201 587q-24 -13 -37.5 -37t-13.5 -50t13 -50t37 -37t50 -13t50 13t37 37t13 50t-13.5 50t-37.5 37t-49 13t-49 -13zM201 837q-24 -13 -37.5 -37t-13.5 -50t13 -50t37 -37t50 -13t50 13t37 37t13 50t-13.5 50t-37.5 37t-49 13t-49 -13zM201 1087q-24 -13 -37.5 -37
t-13.5 -50t13 -50t37 -37t50 -13t50 13t37 37t13 50t-13.5 50t-37.5 37t-49 13t-49 -13zM451 337q-24 -13 -37.5 -37t-13.5 -50t13 -50t37 -37t50 -13t50 13t37 37t13 50t-13.5 50t-37.5 37t-49 13t-49 -13zM451 1337q-24 -13 -37.5 -37t-13.5 -50t13 -50t37 -37t50 -13
t50 13t37 37t13 50t-13.5 50t-37.5 37t-49 13t-49 -13zM701 337q-24 -13 -37.5 -37t-13.5 -50t13 -50t37 -37t50 -13t50 13t37 37t13 50t-13.5 50t-37.5 37t-49 13t-49 -13zM701 1337q-24 -13 -37.5 -37t-13.5 -50t13 -50t37 -37t50 -13t50 13t37 37t13 50t-13.5 50
t-37.5 37t-49 13t-49 -13zM951 337q-24 -13 -37.5 -37t-13.5 -50t13 -50t37 -37t50 -13t50 13t37 37t13 50t-13.5 50t-37.5 37t-49 13t-49 -13zM951 587q-24 -13 -37.5 -37t-13.5 -50t13 -50t37 -37t50 -13t50 13t37 37t13 50t-13.5 50t-37.5 37t-49 13t-49 -13zM951 1337
q-24 -13 -37.5 -37t-13.5 -50t13 -50t37 -37t50 -13t50 13t37 37t13 50t-13.5 50t-37.5 37t-49 13t-49 -13zM1201 337q-24 -13 -37.5 -37t-13.5 -50t13 -50t37 -37t50 -13t50 13t37 37t13 50t-13.5 50t-37.5 37t-49 13t-49 -13zM1201 587q-24 -13 -37.5 -37t-13.5 -50
t13 -50t37 -37t50 -13t50 13t37 37t13 50t-13.5 50t-37.5 37t-49 13t-49 -13zM1201 837q-24 -13 -37.5 -37t-13.5 -50t13 -50t37 -37t50 -13t50 13t37 37t13 50t-13.5 50t-37.5 37t-49 13t-49 -13zM1201 1087q-24 -13 -37.5 -37t-13.5 -50t13 -50t37 -37t50 -13t50 13t37 37
t13 50t-13.5 50t-37.5 37t-49 13t-49 -13zM100 0q-26 0 -50 13t-37 37t-13 50v1300q0 26 13.5 50t37.5 37t49 13h1300q25 0 49 -13t37.5 -37t13.5 -50v-1300q0 -26 -13 -50t-37 -37t-50 -13h-1300z" />
    <glyph glyph-name="R" unicode="R" 
d="M201 337q-24 -13 -37.5 -37t-13.5 -50t13 -50t37 -37t50 -13t50 13t37 37t13 50t-13.5 50t-37.5 37t-49 13t-49 -13zM201 587q-24 -13 -37.5 -37t-13.5 -50t13 -50t37 -37t50 -13t50 13t37 37t13 50t-13.5 50t-37.5 37t-49 13t-49 -13zM201 837q-24 -13 -37.5 -37
t-13.5 -50t13 -50t37 -37t50 -13t50 13t37 37t13 50t-13.5 50t-37.5 37t-49 13t-49 -13zM201 1087q-24 -13 -37.5 -37t-13.5 -50t13 -50t37 -37t50 -13t50 13t37 37t13 50t-13.5 50t-37.5 37t-49 13t-49 -13zM201 1337q-24 -13 -37.5 -37t-13.5 -50t13 -50t37 -37t50 -13
t50 13t37 37t13 50t-13.5 50t-37.5 37t-49 13t-49 -13zM451 837q-24 -13 -37.5 -37t-13.5 -50t13 -50t37 -37t50 -13t50 13t37 37t13 50t-13.5 50t-37.5 37t-49 13t-49 -13zM451 1337q-24 -13 -37.5 -37t-13.5 -50t13 -50t37 -37t50 -13t50 13t37 37t13 50t-13.5 50
t-37.5 37t-49 13t-49 -13zM701 837q-24 -13 -37.5 -37t-13.5 -50t13 -50t37 -37t50 -13t50 13t37 37t13 50t-13.5 50t-37.5 37t-49 13t-49 -13zM701 1337q-24 -13 -37.5 -37t-13.5 -50t13 -50t37 -37t50 -13t50 13t37 37t13 50t-13.5 50t-37.5 37t-49 13t-49 -13zM951 837
q-24 -13 -37.5 -37t-13.5 -50t13 -50t37 -37t50 -13t50 13t37 37t13 50t-13.5 50t-37.5 37t-49 13t-49 -13zM951 1337q-24 -13 -37.5 -37t-13.5 -50t13 -50t37 -37t50 -13t50 13t37 37t13 50t-13.5 50t-37.5 37t-49 13t-49 -13zM1201 337q-24 -13 -37.5 -37t-13.5 -50
t13 -50t37 -37t50 -13t50 13t37 37t13 50t-13.5 50t-37.5 37t-49 13t-49 -13zM1201 587q-24 -13 -37.5 -37t-13.5 -50t13 -50t37 -37t50 -13t50 13t37 37t13 50t-13.5 50t-37.5 37t-49 13t-49 -13zM1201 1087q-24 -13 -37.5 -37t-13.5 -50t13 -50t37 -37t50 -13t50 13t37 37
t13 50t-13.5 50t-37.5 37t-49 13t-49 -13zM100 0q-26 0 -50 13t-37 37t-13 50v1300q0 26 13.5 50t37.5 37t49 13h1300q25 0 49 -13t37.5 -37t13.5 -50v-1300q0 -26 -13 -50t-37 -37t-50 -13h-1300z" />
    <glyph glyph-name="S" unicode="S" 
d="M201 337q-24 -13 -37.5 -37t-13.5 -50t13 -50t37 -37t50 -13t50 13t37 37t13 50t-13.5 50t-37.5 37t-49 13t-49 -13zM201 1087q-24 -13 -37.5 -37t-13.5 -50t13 -50t37 -37t50 -13t50 13t37 37t13 50t-13.5 50t-37.5 37t-49 13t-49 -13zM451 337q-24 -13 -37.5 -37
t-13.5 -50t13 -50t37 -37t50 -13t50 13t37 37t13 50t-13.5 50t-37.5 37t-49 13t-49 -13zM451 837q-24 -13 -37.5 -37t-13.5 -50t13 -50t37 -37t50 -13t50 13t37 37t13 50t-13.5 50t-37.5 37t-49 13t-49 -13zM451 1337q-24 -13 -37.5 -37t-13.5 -50t13 -50t37 -37t50 -13
t50 13t37 37t13 50t-13.5 50t-37.5 37t-49 13t-49 -13zM701 337q-24 -13 -37.5 -37t-13.5 -50t13 -50t37 -37t50 -13t50 13t37 37t13 50t-13.5 50t-37.5 37t-49 13t-49 -13zM701 837q-24 -13 -37.5 -37t-13.5 -50t13 -50t37 -37t50 -13t50 13t37 37t13 50t-13.5 50t-37.5 37
t-49 13t-49 -13zM701 1337q-24 -13 -37.5 -37t-13.5 -50t13 -50t37 -37t50 -13t50 13t37 37t13 50t-13.5 50t-37.5 37t-49 13t-49 -13zM951 337q-24 -13 -37.5 -37t-13.5 -50t13 -50t37 -37t50 -13t50 13t37 37t13 50t-13.5 50t-37.5 37t-49 13t-49 -13zM951 837
q-24 -13 -37.5 -37t-13.5 -50t13 -50t37 -37t50 -13t50 13t37 37t13 50t-13.5 50t-37.5 37t-49 13t-49 -13zM951 1337q-24 -13 -37.5 -37t-13.5 -50t13 -50t37 -37t50 -13t50 13t37 37t13 50t-13.5 50t-37.5 37t-49 13t-49 -13zM1201 587q-24 -13 -37.5 -37t-13.5 -50
t13 -50t37 -37t50 -13t50 13t37 37t13 50t-13.5 50t-37.5 37t-49 13t-49 -13zM1201 1337q-24 -13 -37.5 -37t-13.5 -50t13 -50t37 -37t50 -13t50 13t37 37t13 50t-13.5 50t-37.5 37t-49 13t-49 -13zM100 0q-26 0 -50 13t-37 37t-13 50v1300q0 26 13.5 50t37.5 37t49 13h1300
q25 0 49 -13t37.5 -37t13.5 -50v-1300q0 -26 -13 -50t-37 -37t-50 -13h-1300z" />
    <glyph glyph-name="T" unicode="T" 
d="M201 1337q-24 -13 -37.5 -37t-13.5 -50t13 -50t37 -37t50 -13t50 13t37 37t13 50t-13.5 50t-37.5 37t-49 13t-49 -13zM451 1337q-24 -13 -37.5 -37t-13.5 -50t13 -50t37 -37t50 -13t50 13t37 37t13 50t-13.5 50t-37.5 37t-49 13t-49 -13zM701 337q-24 -13 -37.5 -37
t-13.5 -50t13 -50t37 -37t50 -13t50 13t37 37t13 50t-13.5 50t-37.5 37t-49 13t-49 -13zM701 587q-24 -13 -37.5 -37t-13.5 -50t13 -50t37 -37t50 -13t50 13t37 37t13 50t-13.5 50t-37.5 37t-49 13t-49 -13zM701 837q-24 -13 -37.5 -37t-13.5 -50t13 -50t37 -37t50 -13
t50 13t37 37t13 50t-13.5 50t-37.5 37t-49 13t-49 -13zM701 1087q-24 -13 -37.5 -37t-13.5 -50t13 -50t37 -37t50 -13t50 13t37 37t13 50t-13.5 50t-37.5 37t-49 13t-49 -13zM701 1337q-24 -13 -37.5 -37t-13.5 -50t13 -50t37 -37t50 -13t50 13t37 37t13 50t-13.5 50
t-37.5 37t-49 13t-49 -13zM951 1337q-24 -13 -37.5 -37t-13.5 -50t13 -50t37 -37t50 -13t50 13t37 37t13 50t-13.5 50t-37.5 37t-49 13t-49 -13zM1201 1337q-24 -13 -37.5 -37t-13.5 -50t13 -50t37 -37t50 -13t50 13t37 37t13 50t-13.5 50t-37.5 37t-49 13t-49 -13zM100 0
q-26 0 -50 13t-37 37t-13 50v1300q0 26 13.5 50t37.5 37t49 13h1300q25 0 49 -13t37.5 -37t13.5 -50v-1300q0 -26 -13 -50t-37 -37t-50 -13h-1300z" />
    <glyph glyph-name="U" unicode="U" 
d="M201 587q-24 -13 -37.5 -37t-13.5 -50t13 -50t37 -37t50 -13t50 13t37 37t13 50t-13.5 50t-37.5 37t-49 13t-49 -13zM201 837q-24 -13 -37.5 -37t-13.5 -50t13 -50t37 -37t50 -13t50 13t37 37t13 50t-13.5 50t-37.5 37t-49 13t-49 -13zM201 1087q-24 -13 -37.5 -37
t-13.5 -50t13 -50t37 -37t50 -13t50 13t37 37t13 50t-13.5 50t-37.5 37t-49 13t-49 -13zM201 1337q-24 -13 -37.5 -37t-13.5 -50t13 -50t37 -37t50 -13t50 13t37 37t13 50t-13.5 50t-37.5 37t-49 13t-49 -13zM451 337q-24 -13 -37.5 -37t-13.5 -50t13 -50t37 -37t50 -13
t50 13t37 37t13 50t-13.5 50t-37.5 37t-49 13t-49 -13zM701 337q-24 -13 -37.5 -37t-13.5 -50t13 -50t37 -37t50 -13t50 13t37 37t13 50t-13.5 50t-37.5 37t-49 13t-49 -13zM951 337q-24 -13 -37.5 -37t-13.5 -50t13 -50t37 -37t50 -13t50 13t37 37t13 50t-13.5 50t-37.5 37
t-49 13t-49 -13zM1201 587q-24 -13 -37.5 -37t-13.5 -50t13 -50t37 -37t50 -13t50 13t37 37t13 50t-13.5 50t-37.5 37t-49 13t-49 -13zM1201 837q-24 -13 -37.5 -37t-13.5 -50t13 -50t37 -37t50 -13t50 13t37 37t13 50t-13.5 50t-37.5 37t-49 13t-49 -13zM1201 1087
q-24 -13 -37.5 -37t-13.5 -50t13 -50t37 -37t50 -13t50 13t37 37t13 50t-13.5 50t-37.5 37t-49 13t-49 -13zM1201 1337q-24 -13 -37.5 -37t-13.5 -50t13 -50t37 -37t50 -13t50 13t37 37t13 50t-13.5 50t-37.5 37t-49 13t-49 -13zM100 0q-26 0 -50 13t-37 37t-13 50v1300
q0 26 13.5 50t37.5 37t49 13h1300q25 0 49 -13t37.5 -37t13.5 -50v-1300q0 -26 -13 -50t-37 -37t-50 -13h-1300z" />
    <glyph glyph-name="V" unicode="V" 
d="M201 837q-24 -13 -37.5 -37t-13.5 -50t13 -50t37 -37t50 -13t50 13t37 37t13 50t-13.5 50t-37.5 37t-49 13t-49 -13zM201 1087q-24 -13 -37.5 -37t-13.5 -50t13 -50t37 -37t50 -13t50 13t37 37t13 50t-13.5 50t-37.5 37t-49 13t-49 -13zM201 1337q-24 -13 -37.5 -37
t-13.5 -50t13 -50t37 -37t50 -13t50 13t37 37t13 50t-13.5 50t-37.5 37t-49 13t-49 -13zM451 587q-24 -13 -37.5 -37t-13.5 -50t13 -50t37 -37t50 -13t50 13t37 37t13 50t-13.5 50t-37.5 37t-49 13t-49 -13zM701 337q-24 -13 -37.5 -37t-13.5 -50t13 -50t37 -37t50 -13
t50 13t37 37t13 50t-13.5 50t-37.5 37t-49 13t-49 -13zM951 587q-24 -13 -37.5 -37t-13.5 -50t13 -50t37 -37t50 -13t50 13t37 37t13 50t-13.5 50t-37.5 37t-49 13t-49 -13zM1201 837q-24 -13 -37.5 -37t-13.5 -50t13 -50t37 -37t50 -13t50 13t37 37t13 50t-13.5 50
t-37.5 37t-49 13t-49 -13zM1201 1087q-24 -13 -37.5 -37t-13.5 -50t13 -50t37 -37t50 -13t50 13t37 37t13 50t-13.5 50t-37.5 37t-49 13t-49 -13zM1201 1337q-24 -13 -37.5 -37t-13.5 -50t13 -50t37 -37t50 -13t50 13t37 37t13 50t-13.5 50t-37.5 37t-49 13t-49 -13zM100 0
q-26 0 -50 13t-37 37t-13 50v1300q0 26 13.5 50t37.5 37t49 13h1300q25 0 49 -13t37.5 -37t13.5 -50v-1300q0 -26 -13 -50t-37 -37t-50 -13h-1300z" />
    <glyph glyph-name="W" unicode="W" 
d="M201 337q-24 -13 -37.5 -37t-13.5 -50t13 -50t37 -37t50 -13t50 13t37 37t13 50t-13.5 50t-37.5 37t-49 13t-49 -13zM201 587q-24 -13 -37.5 -37t-13.5 -50t13 -50t37 -37t50 -13t50 13t37 37t13 50t-13.5 50t-37.5 37t-49 13t-49 -13zM201 837q-24 -13 -37.5 -37
t-13.5 -50t13 -50t37 -37t50 -13t50 13t37 37t13 50t-13.5 50t-37.5 37t-49 13t-49 -13zM201 1087q-24 -13 -37.5 -37t-13.5 -50t13 -50t37 -37t50 -13t50 13t37 37t13 50t-13.5 50t-37.5 37t-49 13t-49 -13zM201 1337q-24 -13 -37.5 -37t-13.5 -50t13 -50t37 -37t50 -13
t50 13t37 37t13 50t-13.5 50t-37.5 37t-49 13t-49 -13zM451 587q-24 -13 -37.5 -37t-13.5 -50t13 -50t37 -37t50 -13t50 13t37 37t13 50t-13.5 50t-37.5 37t-49 13t-49 -13zM701 837q-24 -13 -37.5 -37t-13.5 -50t13 -50t37 -37t50 -13t50 13t37 37t13 50t-13.5 50t-37.5 37
t-49 13t-49 -13zM951 587q-24 -13 -37.5 -37t-13.5 -50t13 -50t37 -37t50 -13t50 13t37 37t13 50t-13.5 50t-37.5 37t-49 13t-49 -13zM1201 337q-24 -13 -37.5 -37t-13.5 -50t13 -50t37 -37t50 -13t50 13t37 37t13 50t-13.5 50t-37.5 37t-49 13t-49 -13zM1201 587
q-24 -13 -37.5 -37t-13.5 -50t13 -50t37 -37t50 -13t50 13t37 37t13 50t-13.5 50t-37.5 37t-49 13t-49 -13zM1201 837q-24 -13 -37.5 -37t-13.5 -50t13 -50t37 -37t50 -13t50 13t37 37t13 50t-13.5 50t-37.5 37t-49 13t-49 -13zM1201 1087q-24 -13 -37.5 -37t-13.5 -50
t13 -50t37 -37t50 -13t50 13t37 37t13 50t-13.5 50t-37.5 37t-49 13t-49 -13zM1201 1337q-24 -13 -37.5 -37t-13.5 -50t13 -50t37 -37t50 -13t50 13t37 37t13 50t-13.5 50t-37.5 37t-49 13t-49 -13zM100 0q-26 0 -50 13t-37 37t-13 50v1300q0 26 13.5 50t37.5 37t49 13h1300
q25 0 49 -13t37.5 -37t13.5 -50v-1300q0 -26 -13 -50t-37 -37t-50 -13h-1300z" />
    <glyph glyph-name="X" unicode="X" 
d="M201 337q-24 -13 -37.5 -37t-13.5 -50t13 -50t37 -37t50 -13t50 13t37 37t13 50t-13.5 50t-37.5 37t-49 13t-49 -13zM201 1337q-24 -13 -37.5 -37t-13.5 -50t13 -50t37 -37t50 -13t50 13t37 37t13 50t-13.5 50t-37.5 37t-49 13t-49 -13zM451 587q-24 -13 -37.5 -37
t-13.5 -50t13 -50t37 -37t50 -13t50 13t37 37t13 50t-13.5 50t-37.5 37t-49 13t-49 -13zM451 1087q-24 -13 -37.5 -37t-13.5 -50t13 -50t37 -37t50 -13t50 13t37 37t13 50t-13.5 50t-37.5 37t-49 13t-49 -13zM701 837q-24 -13 -37.5 -37t-13.5 -50t13 -50t37 -37t50 -13
t50 13t37 37t13 50t-13.5 50t-37.5 37t-49 13t-49 -13zM951 587q-24 -13 -37.5 -37t-13.5 -50t13 -50t37 -37t50 -13t50 13t37 37t13 50t-13.5 50t-37.5 37t-49 13t-49 -13zM951 1087q-24 -13 -37.5 -37t-13.5 -50t13 -50t37 -37t50 -13t50 13t37 37t13 50t-13.5 50
t-37.5 37t-49 13t-49 -13zM1201 337q-24 -13 -37.5 -37t-13.5 -50t13 -50t37 -37t50 -13t50 13t37 37t13 50t-13.5 50t-37.5 37t-49 13t-49 -13zM1201 1337q-24 -13 -37.5 -37t-13.5 -50t13 -50t37 -37t50 -13t50 13t37 37t13 50t-13.5 50t-37.5 37t-49 13t-49 -13zM100 0
q-26 0 -50 13t-37 37t-13 50v1300q0 26 13.5 50t37.5 37t49 13h1300q25 0 49 -13t37.5 -37t13.5 -50v-1300q0 -26 -13 -50t-37 -37t-50 -13h-1300z" />
    <glyph glyph-name="Y" unicode="Y" 
d="M201 1337q-24 -13 -37.5 -37t-13.5 -50t13 -50t37 -37t50 -13t50 13t37 37t13 50t-13.5 50t-37.5 37t-49 13t-49 -13zM451 1087q-24 -13 -37.5 -37t-13.5 -50t13 -50t37 -37t50 -13t50 13t37 37t13 50t-13.5 50t-37.5 37t-49 13t-49 -13zM701 337q-24 -13 -37.5 -37
t-13.5 -50t13 -50t37 -37t50 -13t50 13t37 37t13 50t-13.5 50t-37.5 37t-49 13t-49 -13zM701 587q-24 -13 -37.5 -37t-13.5 -50t13 -50t37 -37t50 -13t50 13t37 37t13 50t-13.5 50t-37.5 37t-49 13t-49 -13zM701 837q-24 -13 -37.5 -37t-13.5 -50t13 -50t37 -37t50 -13
t50 13t37 37t13 50t-13.5 50t-37.5 37t-49 13t-49 -13zM951 1087q-24 -13 -37.5 -37t-13.5 -50t13 -50t37 -37t50 -13t50 13t37 37t13 50t-13.5 50t-37.5 37t-49 13t-49 -13zM1201 1337q-24 -13 -37.5 -37t-13.5 -50t13 -50t37 -37t50 -13t50 13t37 37t13 50t-13.5 50
t-37.5 37t-49 13t-49 -13zM100 0q-26 0 -50 13t-37 37t-13 50v1300q0 26 13.5 50t37.5 37t49 13h1300q25 0 49 -13t37.5 -37t13.5 -50v-1300q0 -26 -13 -50t-37 -37t-50 -13h-1300z" />
    <glyph glyph-name="Z" unicode="Z" 
d="M201 337q-24 -13 -37.5 -37t-13.5 -50t13 -50t37 -37t50 -13t50 13t37 37t13 50t-13.5 50t-37.5 37t-49 13t-49 -13zM201 1337q-24 -13 -37.5 -37t-13.5 -50t13 -50t37 -37t50 -13t50 13t37 37t13 50t-13.5 50t-37.5 37t-49 13t-49 -13zM451 337q-24 -13 -37.5 -37
t-13.5 -50t13 -50t37 -37t50 -13t50 13t37 37t13 50t-13.5 50t-37.5 37t-49 13t-49 -13zM451 587q-24 -13 -37.5 -37t-13.5 -50t13 -50t37 -37t50 -13t50 13t37 37t13 50t-13.5 50t-37.5 37t-49 13t-49 -13zM451 1337q-24 -13 -37.5 -37t-13.5 -50t13 -50t37 -37t50 -13
t50 13t37 37t13 50t-13.5 50t-37.5 37t-49 13t-49 -13zM701 337q-24 -13 -37.5 -37t-13.5 -50t13 -50t37 -37t50 -13t50 13t37 37t13 50t-13.5 50t-37.5 37t-49 13t-49 -13zM701 837q-24 -13 -37.5 -37t-13.5 -50t13 -50t37 -37t50 -13t50 13t37 37t13 50t-13.5 50t-37.5 37
t-49 13t-49 -13zM701 1337q-24 -13 -37.5 -37t-13.5 -50t13 -50t37 -37t50 -13t50 13t37 37t13 50t-13.5 50t-37.5 37t-49 13t-49 -13zM951 337q-24 -13 -37.5 -37t-13.5 -50t13 -50t37 -37t50 -13t50 13t37 37t13 50t-13.5 50t-37.5 37t-49 13t-49 -13zM951 1087
q-24 -13 -37.5 -37t-13.5 -50t13 -50t37 -37t50 -13t50 13t37 37t13 50t-13.5 50t-37.5 37t-49 13t-49 -13zM951 1337q-24 -13 -37.5 -37t-13.5 -50t13 -50t37 -37t50 -13t50 13t37 37t13 50t-13.5 50t-37.5 37t-49 13t-49 -13zM1201 337q-24 -13 -37.5 -37t-13.5 -50
t13 -50t37 -37t50 -13t50 13t37 37t13 50t-13.5 50t-37.5 37t-49 13t-49 -13zM1201 1337q-24 -13 -37.5 -37t-13.5 -50t13 -50t37 -37t50 -13t50 13t37 37t13 50t-13.5 50t-37.5 37t-49 13t-49 -13zM100 0q-26 0 -50 13t-37 37t-13 50v1300q0 26 13.5 50t37.5 37t49 13h1300
q25 0 49 -13t37.5 -37t13.5 -50v-1300q0 -26 -13 -50t-37 -37t-50 -13h-1300z" />
    <glyph glyph-name="bracketleft" unicode="[" 
d="M451 337q-24 -13 -37.5 -37t-13.5 -50t13 -50t37 -37t50 -13t50 13t37 37t13 50t-13.5 50t-37.5 37t-49 13t-49 -13zM451 587q-24 -13 -37.5 -37t-13.5 -50t13 -50t37 -37t50 -13t50 13t37 37t13 50t-13.5 50t-37.5 37t-49 13t-49 -13zM451 837q-24 -13 -37.5 -37
t-13.5 -50t13 -50t37 -37t50 -13t50 13t37 37t13 50t-13.5 50t-37.5 37t-49 13t-49 -13zM451 1087q-24 -13 -37.5 -37t-13.5 -50t13 -50t37 -37t50 -13t50 13t37 37t13 50t-13.5 50t-37.5 37t-49 13t-49 -13zM451 1337q-24 -13 -37.5 -37t-13.5 -50t13 -50t37 -37t50 -13
t50 13t37 37t13 50t-13.5 50t-37.5 37t-49 13t-49 -13zM701 337q-24 -13 -37.5 -37t-13.5 -50t13 -50t37 -37t50 -13t50 13t37 37t13 50t-13.5 50t-37.5 37t-49 13t-49 -13zM701 1337q-24 -13 -37.5 -37t-13.5 -50t13 -50t37 -37t50 -13t50 13t37 37t13 50t-13.5 50
t-37.5 37t-49 13t-49 -13zM951 337q-24 -13 -37.5 -37t-13.5 -50t13 -50t37 -37t50 -13t50 13t37 37t13 50t-13.5 50t-37.5 37t-49 13t-49 -13zM951 1337q-24 -13 -37.5 -37t-13.5 -50t13 -50t37 -37t50 -13t50 13t37 37t13 50t-13.5 50t-37.5 37t-49 13t-49 -13zM100 0
q-26 0 -50 13t-37 37t-13 50v1300q0 26 13.5 50t37.5 37t49 13h1300q25 0 49 -13t37.5 -37t13.5 -50v-1300q0 -26 -13 -50t-37 -37t-50 -13h-1300z" />
    <glyph glyph-name="backslash" unicode="\" 
d="M201 1337q-24 -13 -37.5 -37t-13.5 -50t13 -50t37 -37t50 -13t50 13t37 37t13 50t-13.5 50t-37.5 37t-49 13t-49 -13zM451 1087q-24 -13 -37.5 -37t-13.5 -50t13 -50t37 -37t50 -13t50 13t37 37t13 50t-13.5 50t-37.5 37t-49 13t-49 -13zM701 837q-24 -13 -37.5 -37
t-13.5 -50t13 -50t37 -37t50 -13t50 13t37 37t13 50t-13.5 50t-37.5 37t-49 13t-49 -13zM951 587q-24 -13 -37.5 -37t-13.5 -50t13 -50t37 -37t50 -13t50 13t37 37t13 50t-13.5 50t-37.5 37t-49 13t-49 -13zM1201 337q-24 -13 -37.5 -37t-13.5 -50t13 -50t37 -37t50 -13
t50 13t37 37t13 50t-13.5 50t-37.5 37t-49 13t-49 -13zM100 0q-26 0 -50 13t-37 37t-13 50v1300q0 26 13.5 50t37.5 37t49 13h1300q25 0 49 -13t37.5 -37t13.5 -50v-1300q0 -26 -13 -50t-37 -37t-50 -13h-1300z" />
    <glyph glyph-name="bracketright" unicode="]" 
d="M451 337q-24 -13 -37.5 -37t-13.5 -50t13 -50t37 -37t50 -13t50 13t37 37t13 50t-13.5 50t-37.5 37t-49 13t-49 -13zM451 1337q-24 -13 -37.5 -37t-13.5 -50t13 -50t37 -37t50 -13t50 13t37 37t13 50t-13.5 50t-37.5 37t-49 13t-49 -13zM701 337q-24 -13 -37.5 -37
t-13.5 -50t13 -50t37 -37t50 -13t50 13t37 37t13 50t-13.5 50t-37.5 37t-49 13t-49 -13zM701 1337q-24 -13 -37.5 -37t-13.5 -50t13 -50t37 -37t50 -13t50 13t37 37t13 50t-13.5 50t-37.5 37t-49 13t-49 -13zM951 337q-24 -13 -37.5 -37t-13.5 -50t13 -50t37 -37t50 -13
t50 13t37 37t13 50t-13.5 50t-37.5 37t-49 13t-49 -13zM951 587q-24 -13 -37.5 -37t-13.5 -50t13 -50t37 -37t50 -13t50 13t37 37t13 50t-13.5 50t-37.5 37t-49 13t-49 -13zM951 837q-24 -13 -37.5 -37t-13.5 -50t13 -50t37 -37t50 -13t50 13t37 37t13 50t-13.5 50t-37.5 37
t-49 13t-49 -13zM951 1087q-24 -13 -37.5 -37t-13.5 -50t13 -50t37 -37t50 -13t50 13t37 37t13 50t-13.5 50t-37.5 37t-49 13t-49 -13zM951 1337q-24 -13 -37.5 -37t-13.5 -50t13 -50t37 -37t50 -13t50 13t37 37t13 50t-13.5 50t-37.5 37t-49 13t-49 -13zM100 0
q-26 0 -50 13t-37 37t-13 50v1300q0 26 13.5 50t37.5 37t49 13h1300q25 0 49 -13t37.5 -37t13.5 -50v-1300q0 -26 -13 -50t-37 -37t-50 -13h-1300z" />
    <glyph glyph-name="asciicircum" unicode="^" 
d="M201 837q-24 -13 -37.5 -37t-13.5 -50t13 -50t37 -37t50 -13t50 13t37 37t13 50t-13.5 50t-37.5 37t-49 13t-49 -13zM451 1087q-24 -13 -37.5 -37t-13.5 -50t13 -50t37 -37t50 -13t50 13t37 37t13 50t-13.5 50t-37.5 37t-49 13t-49 -13zM701 1337q-24 -13 -37.5 -37
t-13.5 -50t13 -50t37 -37t50 -13t50 13t37 37t13 50t-13.5 50t-37.5 37t-49 13t-49 -13zM951 1087q-24 -13 -37.5 -37t-13.5 -50t13 -50t37 -37t50 -13t50 13t37 37t13 50t-13.5 50t-37.5 37t-49 13t-49 -13zM1201 837q-24 -13 -37.5 -37t-13.5 -50t13 -50t37 -37t50 -13
t50 13t37 37t13 50t-13.5 50t-37.5 37t-49 13t-49 -13zM100 0q-26 0 -50 13t-37 37t-13 50v1300q0 26 13.5 50t37.5 37t49 13h1300q25 0 49 -13t37.5 -37t13.5 -50v-1300q0 -26 -13 -50t-37 -37t-50 -13h-1300z" />
    <glyph glyph-name="underscore" unicode="_" 
d="M201 337q-24 -13 -37.5 -37t-13.5 -50t13 -50t37 -37t50 -13t50 13t37 37t13 50t-13.5 50t-37.5 37t-49 13t-49 -13zM451 337q-24 -13 -37.5 -37t-13.5 -50t13 -50t37 -37t50 -13t50 13t37 37t13 50t-13.5 50t-37.5 37t-49 13t-49 -13zM701 337q-24 -13 -37.5 -37
t-13.5 -50t13 -50t37 -37t50 -13t50 13t37 37t13 50t-13.5 50t-37.5 37t-49 13t-49 -13zM951 337q-24 -13 -37.5 -37t-13.5 -50t13 -50t37 -37t50 -13t50 13t37 37t13 50t-13.5 50t-37.5 37t-49 13t-49 -13zM1201 337q-24 -13 -37.5 -37t-13.5 -50t13 -50t37 -37t50 -13
t50 13t37 37t13 50t-13.5 50t-37.5 37t-49 13t-49 -13zM100 0q-26 0 -50 13t-37 37t-13 50v1300q0 26 13.5 50t37.5 37t49 13h1300q25 0 49 -13t37.5 -37t13.5 -50v-1300q0 -26 -13 -50t-37 -37t-50 -13h-1300z" />
    <glyph glyph-name="grave" unicode="`" 
d="M451 1337q-24 -13 -37.5 -37t-13.5 -50t13 -50t37 -37t50 -13t50 13t37 37t13 50t-13.5 50t-37.5 37t-49 13t-49 -13zM701 1087q-24 -13 -37.5 -37t-13.5 -50t13 -50t37 -37t50 -13t50 13t37 37t13 50t-13.5 50t-37.5 37t-49 13t-49 -13zM100 0q-26 0 -50 13t-37 37
t-13 50v1300q0 26 13.5 50t37.5 37t49 13h1300q25 0 49 -13t37.5 -37t13.5 -50v-1300q0 -26 -13 -50t-37 -37t-50 -13h-1300z" />
    <glyph glyph-name="a" unicode="a" 
d="M201 337q-24 -13 -37.5 -37t-13.5 -50t13 -50t37 -37t50 -13t50 13t37 37t13 50t-13.5 50t-37.5 37t-49 13t-49 -13zM201 587q-24 -13 -37.5 -37t-13.5 -50t13 -50t37 -37t50 -13t50 13t37 37t13 50t-13.5 50t-37.5 37t-49 13t-49 -13zM201 837q-24 -13 -37.5 -37
t-13.5 -50t13 -50t37 -37t50 -13t50 13t37 37t13 50t-13.5 50t-37.5 37t-49 13t-49 -13zM451 587q-24 -13 -37.5 -37t-13.5 -50t13 -50t37 -37t50 -13t50 13t37 37t13 50t-13.5 50t-37.5 37t-49 13t-49 -13zM451 1087q-24 -13 -37.5 -37t-13.5 -50t13 -50t37 -37t50 -13
t50 13t37 37t13 50t-13.5 50t-37.5 37t-49 13t-49 -13zM701 587q-24 -13 -37.5 -37t-13.5 -50t13 -50t37 -37t50 -13t50 13t37 37t13 50t-13.5 50t-37.5 37t-49 13t-49 -13zM701 1337q-24 -13 -37.5 -37t-13.5 -50t13 -50t37 -37t50 -13t50 13t37 37t13 50t-13.5 50
t-37.5 37t-49 13t-49 -13zM951 587q-24 -13 -37.5 -37t-13.5 -50t13 -50t37 -37t50 -13t50 13t37 37t13 50t-13.5 50t-37.5 37t-49 13t-49 -13zM951 1087q-24 -13 -37.5 -37t-13.5 -50t13 -50t37 -37t50 -13t50 13t37 37t13 50t-13.5 50t-37.5 37t-49 13t-49 -13zM1201 337
q-24 -13 -37.5 -37t-13.5 -50t13 -50t37 -37t50 -13t50 13t37 37t13 50t-13.5 50t-37.5 37t-49 13t-49 -13zM1201 587q-24 -13 -37.5 -37t-13.5 -50t13 -50t37 -37t50 -13t50 13t37 37t13 50t-13.5 50t-37.5 37t-49 13t-49 -13zM1201 837q-24 -13 -37.5 -37t-13.5 -50
t13 -50t37 -37t50 -13t50 13t37 37t13 50t-13.5 50t-37.5 37t-49 13t-49 -13zM100 0q-26 0 -50 13t-37 37t-13 50v1300q0 26 13.5 50t37.5 37t49 13h1300q25 0 49 -13t37.5 -37t13.5 -50v-1300q0 -26 -13 -50t-37 -37t-50 -13h-1300zM1357 50q24 0 46.5 12t34.5 34.5
t12 46.5v1214q0 24 -12.5 46.5t-35 34.5t-45.5 12h-1214q-23 0 -45.5 -12t-35 -34.5t-12.5 -46.5v-1214q0 -24 12 -46.5t34.5 -34.5t46.5 -12h1214z" />
    <glyph glyph-name="b" unicode="b" 
d="M201 337q-24 -13 -37.5 -37t-13.5 -50t13 -50t37 -37t50 -13t50 13t37 37t13 50t-13.5 50t-37.5 37t-49 13t-49 -13zM201 587q-24 -13 -37.5 -37t-13.5 -50t13 -50t37 -37t50 -13t50 13t37 37t13 50t-13.5 50t-37.5 37t-49 13t-49 -13zM201 837q-24 -13 -37.5 -37
t-13.5 -50t13 -50t37 -37t50 -13t50 13t37 37t13 50t-13.5 50t-37.5 37t-49 13t-49 -13zM201 1087q-24 -13 -37.5 -37t-13.5 -50t13 -50t37 -37t50 -13t50 13t37 37t13 50t-13.5 50t-37.5 37t-49 13t-49 -13zM201 1337q-24 -13 -37.5 -37t-13.5 -50t13 -50t37 -37t50 -13
t50 13t37 37t13 50t-13.5 50t-37.5 37t-49 13t-49 -13zM451 337q-24 -13 -37.5 -37t-13.5 -50t13 -50t37 -37t50 -13t50 13t37 37t13 50t-13.5 50t-37.5 37t-49 13t-49 -13zM451 837q-24 -13 -37.5 -37t-13.5 -50t13 -50t37 -37t50 -13t50 13t37 37t13 50t-13.5 50t-37.5 37
t-49 13t-49 -13zM451 1337q-24 -13 -37.5 -37t-13.5 -50t13 -50t37 -37t50 -13t50 13t37 37t13 50t-13.5 50t-37.5 37t-49 13t-49 -13zM701 337q-24 -13 -37.5 -37t-13.5 -50t13 -50t37 -37t50 -13t50 13t37 37t13 50t-13.5 50t-37.5 37t-49 13t-49 -13zM701 837
q-24 -13 -37.5 -37t-13.5 -50t13 -50t37 -37t50 -13t50 13t37 37t13 50t-13.5 50t-37.5 37t-49 13t-49 -13zM701 1337q-24 -13 -37.5 -37t-13.5 -50t13 -50t37 -37t50 -13t50 13t37 37t13 50t-13.5 50t-37.5 37t-49 13t-49 -13zM951 337q-24 -13 -37.5 -37t-13.5 -50t13 -50
t37 -37t50 -13t50 13t37 37t13 50t-13.5 50t-37.5 37t-49 13t-49 -13zM951 837q-24 -13 -37.5 -37t-13.5 -50t13 -50t37 -37t50 -13t50 13t37 37t13 50t-13.5 50t-37.5 37t-49 13t-49 -13zM951 1337q-24 -13 -37.5 -37t-13.5 -50t13 -50t37 -37t50 -13t50 13t37 37t13 50
t-13.5 50t-37.5 37t-49 13t-49 -13zM1201 587q-24 -13 -37.5 -37t-13.5 -50t13 -50t37 -37t50 -13t50 13t37 37t13 50t-13.5 50t-37.5 37t-49 13t-49 -13zM1201 1087q-24 -13 -37.5 -37t-13.5 -50t13 -50t37 -37t50 -13t50 13t37 37t13 50t-13.5 50t-37.5 37t-49 13t-49 -13
zM100 0q-26 0 -50 13t-37 37t-13 50v1300q0 26 13.5 50t37.5 37t49 13h1300q25 0 49 -13t37.5 -37t13.5 -50v-1300q0 -26 -13 -50t-37 -37t-50 -13h-1300zM1357 50q24 0 46.5 12t34.5 34.5t12 46.5v1214q0 24 -12.5 46.5t-35 34.5t-45.5 12h-1214q-23 0 -45.5 -12t-35 -34.5
t-12.5 -46.5v-1214q0 -24 12 -46.5t34.5 -34.5t46.5 -12h1214z" />
    <glyph glyph-name="c" unicode="c" 
d="M201 587q-24 -13 -37.5 -37t-13.5 -50t13 -50t37 -37t50 -13t50 13t37 37t13 50t-13.5 50t-37.5 37t-49 13t-49 -13zM201 837q-24 -13 -37.5 -37t-13.5 -50t13 -50t37 -37t50 -13t50 13t37 37t13 50t-13.5 50t-37.5 37t-49 13t-49 -13zM201 1087q-24 -13 -37.5 -37
t-13.5 -50t13 -50t37 -37t50 -13t50 13t37 37t13 50t-13.5 50t-37.5 37t-49 13t-49 -13zM451 337q-24 -13 -37.5 -37t-13.5 -50t13 -50t37 -37t50 -13t50 13t37 37t13 50t-13.5 50t-37.5 37t-49 13t-49 -13zM451 1337q-24 -13 -37.5 -37t-13.5 -50t13 -50t37 -37t50 -13
t50 13t37 37t13 50t-13.5 50t-37.5 37t-49 13t-49 -13zM701 337q-24 -13 -37.5 -37t-13.5 -50t13 -50t37 -37t50 -13t50 13t37 37t13 50t-13.5 50t-37.5 37t-49 13t-49 -13zM701 1337q-24 -13 -37.5 -37t-13.5 -50t13 -50t37 -37t50 -13t50 13t37 37t13 50t-13.5 50
t-37.5 37t-49 13t-49 -13zM951 337q-24 -13 -37.5 -37t-13.5 -50t13 -50t37 -37t50 -13t50 13t37 37t13 50t-13.5 50t-37.5 37t-49 13t-49 -13zM951 1337q-24 -13 -37.5 -37t-13.5 -50t13 -50t37 -37t50 -13t50 13t37 37t13 50t-13.5 50t-37.5 37t-49 13t-49 -13zM1201 587
q-24 -13 -37.5 -37t-13.5 -50t13 -50t37 -37t50 -13t50 13t37 37t13 50t-13.5 50t-37.5 37t-49 13t-49 -13zM1201 1087q-24 -13 -37.5 -37t-13.5 -50t13 -50t37 -37t50 -13t50 13t37 37t13 50t-13.5 50t-37.5 37t-49 13t-49 -13zM100 0q-26 0 -50 13t-37 37t-13 50v1300
q0 26 13.5 50t37.5 37t49 13h1300q25 0 49 -13t37.5 -37t13.5 -50v-1300q0 -26 -13 -50t-37 -37t-50 -13h-1300zM1357 50q24 0 46.5 12t34.5 34.5t12 46.5v1214q0 24 -12.5 46.5t-35 34.5t-45.5 12h-1214q-23 0 -45.5 -12t-35 -34.5t-12.5 -46.5v-1214q0 -24 12 -46.5
t34.5 -34.5t46.5 -12h1214z" />
    <glyph glyph-name="d" unicode="d" 
d="M201 337q-24 -13 -37.5 -37t-13.5 -50t13 -50t37 -37t50 -13t50 13t37 37t13 50t-13.5 50t-37.5 37t-49 13t-49 -13zM201 587q-24 -13 -37.5 -37t-13.5 -50t13 -50t37 -37t50 -13t50 13t37 37t13 50t-13.5 50t-37.5 37t-49 13t-49 -13zM201 837q-24 -13 -37.5 -37
t-13.5 -50t13 -50t37 -37t50 -13t50 13t37 37t13 50t-13.5 50t-37.5 37t-49 13t-49 -13zM201 1087q-24 -13 -37.5 -37t-13.5 -50t13 -50t37 -37t50 -13t50 13t37 37t13 50t-13.5 50t-37.5 37t-49 13t-49 -13zM201 1337q-24 -13 -37.5 -37t-13.5 -50t13 -50t37 -37t50 -13
t50 13t37 37t13 50t-13.5 50t-37.5 37t-49 13t-49 -13zM451 337q-24 -13 -37.5 -37t-13.5 -50t13 -50t37 -37t50 -13t50 13t37 37t13 50t-13.5 50t-37.5 37t-49 13t-49 -13zM451 1337q-24 -13 -37.5 -37t-13.5 -50t13 -50t37 -37t50 -13t50 13t37 37t13 50t-13.5 50
t-37.5 37t-49 13t-49 -13zM701 337q-24 -13 -37.5 -37t-13.5 -50t13 -50t37 -37t50 -13t50 13t37 37t13 50t-13.5 50t-37.5 37t-49 13t-49 -13zM701 1337q-24 -13 -37.5 -37t-13.5 -50t13 -50t37 -37t50 -13t50 13t37 37t13 50t-13.5 50t-37.5 37t-49 13t-49 -13zM951 337
q-24 -13 -37.5 -37t-13.5 -50t13 -50t37 -37t50 -13t50 13t37 37t13 50t-13.5 50t-37.5 37t-49 13t-49 -13zM951 1337q-24 -13 -37.5 -37t-13.5 -50t13 -50t37 -37t50 -13t50 13t37 37t13 50t-13.5 50t-37.5 37t-49 13t-49 -13zM1201 587q-24 -13 -37.5 -37t-13.5 -50
t13 -50t37 -37t50 -13t50 13t37 37t13 50t-13.5 50t-37.5 37t-49 13t-49 -13zM1201 837q-24 -13 -37.5 -37t-13.5 -50t13 -50t37 -37t50 -13t50 13t37 37t13 50t-13.5 50t-37.5 37t-49 13t-49 -13zM1201 1087q-24 -13 -37.5 -37t-13.5 -50t13 -50t37 -37t50 -13t50 13t37 37
t13 50t-13.5 50t-37.5 37t-49 13t-49 -13zM100 0q-26 0 -50 13t-37 37t-13 50v1300q0 26 13.5 50t37.5 37t49 13h1300q25 0 49 -13t37.5 -37t13.5 -50v-1300q0 -26 -13 -50t-37 -37t-50 -13h-1300zM1357 50q24 0 46.5 12t34.5 34.5t12 46.5v1214q0 24 -12.5 46.5t-35 34.5
t-45.5 12h-1214q-23 0 -45.5 -12t-35 -34.5t-12.5 -46.5v-1214q0 -24 12 -46.5t34.5 -34.5t46.5 -12h1214z" />
    <glyph glyph-name="e" unicode="e" 
d="M201 337q-24 -13 -37.5 -37t-13.5 -50t13 -50t37 -37t50 -13t50 13t37 37t13 50t-13.5 50t-37.5 37t-49 13t-49 -13zM201 587q-24 -13 -37.5 -37t-13.5 -50t13 -50t37 -37t50 -13t50 13t37 37t13 50t-13.5 50t-37.5 37t-49 13t-49 -13zM201 837q-24 -13 -37.5 -37
t-13.5 -50t13 -50t37 -37t50 -13t50 13t37 37t13 50t-13.5 50t-37.5 37t-49 13t-49 -13zM201 1087q-24 -13 -37.5 -37t-13.5 -50t13 -50t37 -37t50 -13t50 13t37 37t13 50t-13.5 50t-37.5 37t-49 13t-49 -13zM201 1337q-24 -13 -37.5 -37t-13.5 -50t13 -50t37 -37t50 -13
t50 13t37 37t13 50t-13.5 50t-37.5 37t-49 13t-49 -13zM451 337q-24 -13 -37.5 -37t-13.5 -50t13 -50t37 -37t50 -13t50 13t37 37t13 50t-13.5 50t-37.5 37t-49 13t-49 -13zM451 837q-24 -13 -37.5 -37t-13.5 -50t13 -50t37 -37t50 -13t50 13t37 37t13 50t-13.5 50t-37.5 37
t-49 13t-49 -13zM451 1337q-24 -13 -37.5 -37t-13.5 -50t13 -50t37 -37t50 -13t50 13t37 37t13 50t-13.5 50t-37.5 37t-49 13t-49 -13zM701 337q-24 -13 -37.5 -37t-13.5 -50t13 -50t37 -37t50 -13t50 13t37 37t13 50t-13.5 50t-37.5 37t-49 13t-49 -13zM701 837
q-24 -13 -37.5 -37t-13.5 -50t13 -50t37 -37t50 -13t50 13t37 37t13 50t-13.5 50t-37.5 37t-49 13t-49 -13zM701 1337q-24 -13 -37.5 -37t-13.5 -50t13 -50t37 -37t50 -13t50 13t37 37t13 50t-13.5 50t-37.5 37t-49 13t-49 -13zM951 337q-24 -13 -37.5 -37t-13.5 -50t13 -50
t37 -37t50 -13t50 13t37 37t13 50t-13.5 50t-37.5 37t-49 13t-49 -13zM951 837q-24 -13 -37.5 -37t-13.5 -50t13 -50t37 -37t50 -13t50 13t37 37t13 50t-13.5 50t-37.5 37t-49 13t-49 -13zM951 1337q-24 -13 -37.5 -37t-13.5 -50t13 -50t37 -37t50 -13t50 13t37 37t13 50
t-13.5 50t-37.5 37t-49 13t-49 -13zM1201 337q-24 -13 -37.5 -37t-13.5 -50t13 -50t37 -37t50 -13t50 13t37 37t13 50t-13.5 50t-37.5 37t-49 13t-49 -13zM1201 837q-24 -13 -37.5 -37t-13.5 -50t13 -50t37 -37t50 -13t50 13t37 37t13 50t-13.5 50t-37.5 37t-49 13t-49 -13z
M1201 1337q-24 -13 -37.5 -37t-13.5 -50t13 -50t37 -37t50 -13t50 13t37 37t13 50t-13.5 50t-37.5 37t-49 13t-49 -13zM100 0q-26 0 -50 13t-37 37t-13 50v1300q0 26 13.5 50t37.5 37t49 13h1300q25 0 49 -13t37.5 -37t13.5 -50v-1300q0 -26 -13 -50t-37 -37t-50 -13h-1300z
M1357 50q24 0 46.5 12t34.5 34.5t12 46.5v1214q0 24 -12.5 46.5t-35 34.5t-45.5 12h-1214q-23 0 -45.5 -12t-35 -34.5t-12.5 -46.5v-1214q0 -24 12 -46.5t34.5 -34.5t46.5 -12h1214z" />
    <glyph glyph-name="f" unicode="f" 
d="M201 337q-24 -13 -37.5 -37t-13.5 -50t13 -50t37 -37t50 -13t50 13t37 37t13 50t-13.5 50t-37.5 37t-49 13t-49 -13zM201 587q-24 -13 -37.5 -37t-13.5 -50t13 -50t37 -37t50 -13t50 13t37 37t13 50t-13.5 50t-37.5 37t-49 13t-49 -13zM201 837q-24 -13 -37.5 -37
t-13.5 -50t13 -50t37 -37t50 -13t50 13t37 37t13 50t-13.5 50t-37.5 37t-49 13t-49 -13zM201 1087q-24 -13 -37.5 -37t-13.5 -50t13 -50t37 -37t50 -13t50 13t37 37t13 50t-13.5 50t-37.5 37t-49 13t-49 -13zM201 1337q-24 -13 -37.5 -37t-13.5 -50t13 -50t37 -37t50 -13
t50 13t37 37t13 50t-13.5 50t-37.5 37t-49 13t-49 -13zM451 837q-24 -13 -37.5 -37t-13.5 -50t13 -50t37 -37t50 -13t50 13t37 37t13 50t-13.5 50t-37.5 37t-49 13t-49 -13zM451 1337q-24 -13 -37.5 -37t-13.5 -50t13 -50t37 -37t50 -13t50 13t37 37t13 50t-13.5 50
t-37.5 37t-49 13t-49 -13zM701 837q-24 -13 -37.5 -37t-13.5 -50t13 -50t37 -37t50 -13t50 13t37 37t13 50t-13.5 50t-37.5 37t-49 13t-49 -13zM701 1337q-24 -13 -37.5 -37t-13.5 -50t13 -50t37 -37t50 -13t50 13t37 37t13 50t-13.5 50t-37.5 37t-49 13t-49 -13zM951 837
q-24 -13 -37.5 -37t-13.5 -50t13 -50t37 -37t50 -13t50 13t37 37t13 50t-13.5 50t-37.5 37t-49 13t-49 -13zM951 1337q-24 -13 -37.5 -37t-13.5 -50t13 -50t37 -37t50 -13t50 13t37 37t13 50t-13.5 50t-37.5 37t-49 13t-49 -13zM1201 837q-24 -13 -37.5 -37t-13.5 -50
t13 -50t37 -37t50 -13t50 13t37 37t13 50t-13.5 50t-37.5 37t-49 13t-49 -13zM1201 1337q-24 -13 -37.5 -37t-13.5 -50t13 -50t37 -37t50 -13t50 13t37 37t13 50t-13.5 50t-37.5 37t-49 13t-49 -13zM100 0q-26 0 -50 13t-37 37t-13 50v1300q0 26 13.5 50t37.5 37t49 13h1300
q25 0 49 -13t37.5 -37t13.5 -50v-1300q0 -26 -13 -50t-37 -37t-50 -13h-1300zM1357 50q24 0 46.5 12t34.5 34.5t12 46.5v1214q0 24 -12.5 46.5t-35 34.5t-45.5 12h-1214q-23 0 -45.5 -12t-35 -34.5t-12.5 -46.5v-1214q0 -24 12 -46.5t34.5 -34.5t46.5 -12h1214z" />
    <glyph glyph-name="g" unicode="g" 
d="M201 587q-24 -13 -37.5 -37t-13.5 -50t13 -50t37 -37t50 -13t50 13t37 37t13 50t-13.5 50t-37.5 37t-49 13t-49 -13zM201 837q-24 -13 -37.5 -37t-13.5 -50t13 -50t37 -37t50 -13t50 13t37 37t13 50t-13.5 50t-37.5 37t-49 13t-49 -13zM201 1087q-24 -13 -37.5 -37
t-13.5 -50t13 -50t37 -37t50 -13t50 13t37 37t13 50t-13.5 50t-37.5 37t-49 13t-49 -13zM451 337q-24 -13 -37.5 -37t-13.5 -50t13 -50t37 -37t50 -13t50 13t37 37t13 50t-13.5 50t-37.5 37t-49 13t-49 -13zM451 1337q-24 -13 -37.5 -37t-13.5 -50t13 -50t37 -37t50 -13
t50 13t37 37t13 50t-13.5 50t-37.5 37t-49 13t-49 -13zM701 337q-24 -13 -37.5 -37t-13.5 -50t13 -50t37 -37t50 -13t50 13t37 37t13 50t-13.5 50t-37.5 37t-49 13t-49 -13zM701 837q-24 -13 -37.5 -37t-13.5 -50t13 -50t37 -37t50 -13t50 13t37 37t13 50t-13.5 50t-37.5 37
t-49 13t-49 -13zM701 1337q-24 -13 -37.5 -37t-13.5 -50t13 -50t37 -37t50 -13t50 13t37 37t13 50t-13.5 50t-37.5 37t-49 13t-49 -13zM951 337q-24 -13 -37.5 -37t-13.5 -50t13 -50t37 -37t50 -13t50 13t37 37t13 50t-13.5 50t-37.5 37t-49 13t-49 -13zM951 837
q-24 -13 -37.5 -37t-13.5 -50t13 -50t37 -37t50 -13t50 13t37 37t13 50t-13.5 50t-37.5 37t-49 13t-49 -13zM951 1337q-24 -13 -37.5 -37t-13.5 -50t13 -50t37 -37t50 -13t50 13t37 37t13 50t-13.5 50t-37.5 37t-49 13t-49 -13zM1201 337q-24 -13 -37.5 -37t-13.5 -50
t13 -50t37 -37t50 -13t50 13t37 37t13 50t-13.5 50t-37.5 37t-49 13t-49 -13zM1201 587q-24 -13 -37.5 -37t-13.5 -50t13 -50t37 -37t50 -13t50 13t37 37t13 50t-13.5 50t-37.5 37t-49 13t-49 -13zM1201 837q-24 -13 -37.5 -37t-13.5 -50t13 -50t37 -37t50 -13t50 13t37 37
t13 50t-13.5 50t-37.5 37t-49 13t-49 -13zM1201 1337q-24 -13 -37.5 -37t-13.5 -50t13 -50t37 -37t50 -13t50 13t37 37t13 50t-13.5 50t-37.5 37t-49 13t-49 -13zM100 0q-26 0 -50 13t-37 37t-13 50v1300q0 26 13.5 50t37.5 37t49 13h1300q25 0 49 -13t37.5 -37t13.5 -50
v-1300q0 -26 -13 -50t-37 -37t-50 -13h-1300zM1357 50q24 0 46.5 12t34.5 34.5t12 46.5v1214q0 24 -12.5 46.5t-35 34.5t-45.5 12h-1214q-23 0 -45.5 -12t-35 -34.5t-12.5 -46.5v-1214q0 -24 12 -46.5t34.5 -34.5t46.5 -12h1214z" />
    <glyph glyph-name="h" unicode="h" 
d="M201 337q-24 -13 -37.5 -37t-13.5 -50t13 -50t37 -37t50 -13t50 13t37 37t13 50t-13.5 50t-37.5 37t-49 13t-49 -13zM201 587q-24 -13 -37.5 -37t-13.5 -50t13 -50t37 -37t50 -13t50 13t37 37t13 50t-13.5 50t-37.5 37t-49 13t-49 -13zM201 837q-24 -13 -37.5 -37
t-13.5 -50t13 -50t37 -37t50 -13t50 13t37 37t13 50t-13.5 50t-37.5 37t-49 13t-49 -13zM201 1087q-24 -13 -37.5 -37t-13.5 -50t13 -50t37 -37t50 -13t50 13t37 37t13 50t-13.5 50t-37.5 37t-49 13t-49 -13zM201 1337q-24 -13 -37.5 -37t-13.5 -50t13 -50t37 -37t50 -13
t50 13t37 37t13 50t-13.5 50t-37.5 37t-49 13t-49 -13zM451 837q-24 -13 -37.5 -37t-13.5 -50t13 -50t37 -37t50 -13t50 13t37 37t13 50t-13.5 50t-37.5 37t-49 13t-49 -13zM701 837q-24 -13 -37.5 -37t-13.5 -50t13 -50t37 -37t50 -13t50 13t37 37t13 50t-13.5 50t-37.5 37
t-49 13t-49 -13zM951 837q-24 -13 -37.5 -37t-13.5 -50t13 -50t37 -37t50 -13t50 13t37 37t13 50t-13.5 50t-37.5 37t-49 13t-49 -13zM1201 337q-24 -13 -37.5 -37t-13.5 -50t13 -50t37 -37t50 -13t50 13t37 37t13 50t-13.5 50t-37.5 37t-49 13t-49 -13zM1201 587
q-24 -13 -37.5 -37t-13.5 -50t13 -50t37 -37t50 -13t50 13t37 37t13 50t-13.5 50t-37.5 37t-49 13t-49 -13zM1201 837q-24 -13 -37.5 -37t-13.5 -50t13 -50t37 -37t50 -13t50 13t37 37t13 50t-13.5 50t-37.5 37t-49 13t-49 -13zM1201 1087q-24 -13 -37.5 -37t-13.5 -50
t13 -50t37 -37t50 -13t50 13t37 37t13 50t-13.5 50t-37.5 37t-49 13t-49 -13zM1201 1337q-24 -13 -37.5 -37t-13.5 -50t13 -50t37 -37t50 -13t50 13t37 37t13 50t-13.5 50t-37.5 37t-49 13t-49 -13zM100 0q-26 0 -50 13t-37 37t-13 50v1300q0 26 13.5 50t37.5 37t49 13h1300
q25 0 49 -13t37.5 -37t13.5 -50v-1300q0 -26 -13 -50t-37 -37t-50 -13h-1300zM1357 50q24 0 46.5 12t34.5 34.5t12 46.5v1214q0 24 -12.5 46.5t-35 34.5t-45.5 12h-1214q-23 0 -45.5 -12t-35 -34.5t-12.5 -46.5v-1214q0 -24 12 -46.5t34.5 -34.5t46.5 -12h1214z" />
    <glyph glyph-name="i" unicode="i" 
d="M201 337q-24 -13 -37.5 -37t-13.5 -50t13 -50t37 -37t50 -13t50 13t37 37t13 50t-13.5 50t-37.5 37t-49 13t-49 -13zM201 1337q-24 -13 -37.5 -37t-13.5 -50t13 -50t37 -37t50 -13t50 13t37 37t13 50t-13.5 50t-37.5 37t-49 13t-49 -13zM451 337q-24 -13 -37.5 -37
t-13.5 -50t13 -50t37 -37t50 -13t50 13t37 37t13 50t-13.5 50t-37.5 37t-49 13t-49 -13zM451 1337q-24 -13 -37.5 -37t-13.5 -50t13 -50t37 -37t50 -13t50 13t37 37t13 50t-13.5 50t-37.5 37t-49 13t-49 -13zM701 337q-24 -13 -37.5 -37t-13.5 -50t13 -50t37 -37t50 -13
t50 13t37 37t13 50t-13.5 50t-37.5 37t-49 13t-49 -13zM701 587q-24 -13 -37.5 -37t-13.5 -50t13 -50t37 -37t50 -13t50 13t37 37t13 50t-13.5 50t-37.5 37t-49 13t-49 -13zM701 837q-24 -13 -37.5 -37t-13.5 -50t13 -50t37 -37t50 -13t50 13t37 37t13 50t-13.5 50t-37.5 37
t-49 13t-49 -13zM701 1087q-24 -13 -37.5 -37t-13.5 -50t13 -50t37 -37t50 -13t50 13t37 37t13 50t-13.5 50t-37.5 37t-49 13t-49 -13zM701 1337q-24 -13 -37.5 -37t-13.5 -50t13 -50t37 -37t50 -13t50 13t37 37t13 50t-13.5 50t-37.5 37t-49 13t-49 -13zM951 337
q-24 -13 -37.5 -37t-13.5 -50t13 -50t37 -37t50 -13t50 13t37 37t13 50t-13.5 50t-37.5 37t-49 13t-49 -13zM951 1337q-24 -13 -37.5 -37t-13.5 -50t13 -50t37 -37t50 -13t50 13t37 37t13 50t-13.5 50t-37.5 37t-49 13t-49 -13zM1201 337q-24 -13 -37.5 -37t-13.5 -50
t13 -50t37 -37t50 -13t50 13t37 37t13 50t-13.5 50t-37.5 37t-49 13t-49 -13zM1201 1337q-24 -13 -37.5 -37t-13.5 -50t13 -50t37 -37t50 -13t50 13t37 37t13 50t-13.5 50t-37.5 37t-49 13t-49 -13zM100 0q-26 0 -50 13t-37 37t-13 50v1300q0 26 13.5 50t37.5 37t49 13h1300
q25 0 49 -13t37.5 -37t13.5 -50v-1300q0 -26 -13 -50t-37 -37t-50 -13h-1300zM1357 50q24 0 46.5 12t34.5 34.5t12 46.5v1214q0 24 -12.5 46.5t-35 34.5t-45.5 12h-1214q-23 0 -45.5 -12t-35 -34.5t-12.5 -46.5v-1214q0 -24 12 -46.5t34.5 -34.5t46.5 -12h1214z" />
    <glyph glyph-name="j" unicode="j" 
d="M201 587q-24 -13 -37.5 -37t-13.5 -50t13 -50t37 -37t50 -13t50 13t37 37t13 50t-13.5 50t-37.5 37t-49 13t-49 -13zM201 837q-24 -13 -37.5 -37t-13.5 -50t13 -50t37 -37t50 -13t50 13t37 37t13 50t-13.5 50t-37.5 37t-49 13t-49 -13zM451 337q-24 -13 -37.5 -37
t-13.5 -50t13 -50t37 -37t50 -13t50 13t37 37t13 50t-13.5 50t-37.5 37t-49 13t-49 -13zM701 337q-24 -13 -37.5 -37t-13.5 -50t13 -50t37 -37t50 -13t50 13t37 37t13 50t-13.5 50t-37.5 37t-49 13t-49 -13zM951 337q-24 -13 -37.5 -37t-13.5 -50t13 -50t37 -37t50 -13
t50 13t37 37t13 50t-13.5 50t-37.5 37t-49 13t-49 -13zM1201 587q-24 -13 -37.5 -37t-13.5 -50t13 -50t37 -37t50 -13t50 13t37 37t13 50t-13.5 50t-37.5 37t-49 13t-49 -13zM1201 837q-24 -13 -37.5 -37t-13.5 -50t13 -50t37 -37t50 -13t50 13t37 37t13 50t-13.5 50
t-37.5 37t-49 13t-49 -13zM1201 1087q-24 -13 -37.5 -37t-13.5 -50t13 -50t37 -37t50 -13t50 13t37 37t13 50t-13.5 50t-37.5 37t-49 13t-49 -13zM1201 1337q-24 -13 -37.5 -37t-13.5 -50t13 -50t37 -37t50 -13t50 13t37 37t13 50t-13.5 50t-37.5 37t-49 13t-49 -13zM100 0
q-26 0 -50 13t-37 37t-13 50v1300q0 26 13.5 50t37.5 37t49 13h1300q25 0 49 -13t37.5 -37t13.5 -50v-1300q0 -26 -13 -50t-37 -37t-50 -13h-1300zM1357 50q24 0 46.5 12t34.5 34.5t12 46.5v1214q0 24 -12.5 46.5t-35 34.5t-45.5 12h-1214q-23 0 -45.5 -12t-35 -34.5
t-12.5 -46.5v-1214q0 -24 12 -46.5t34.5 -34.5t46.5 -12h1214z" />
    <glyph glyph-name="k" unicode="k" 
d="M201 337q-24 -13 -37.5 -37t-13.5 -50t13 -50t37 -37t50 -13t50 13t37 37t13 50t-13.5 50t-37.5 37t-49 13t-49 -13zM201 587q-24 -13 -37.5 -37t-13.5 -50t13 -50t37 -37t50 -13t50 13t37 37t13 50t-13.5 50t-37.5 37t-49 13t-49 -13zM201 837q-24 -13 -37.5 -37
t-13.5 -50t13 -50t37 -37t50 -13t50 13t37 37t13 50t-13.5 50t-37.5 37t-49 13t-49 -13zM201 1087q-24 -13 -37.5 -37t-13.5 -50t13 -50t37 -37t50 -13t50 13t37 37t13 50t-13.5 50t-37.5 37t-49 13t-49 -13zM201 1337q-24 -13 -37.5 -37t-13.5 -50t13 -50t37 -37t50 -13
t50 13t37 37t13 50t-13.5 50t-37.5 37t-49 13t-49 -13zM451 837q-24 -13 -37.5 -37t-13.5 -50t13 -50t37 -37t50 -13t50 13t37 37t13 50t-13.5 50t-37.5 37t-49 13t-49 -13zM701 837q-24 -13 -37.5 -37t-13.5 -50t13 -50t37 -37t50 -13t50 13t37 37t13 50t-13.5 50t-37.5 37
t-49 13t-49 -13zM951 587q-24 -13 -37.5 -37t-13.5 -50t13 -50t37 -37t50 -13t50 13t37 37t13 50t-13.5 50t-37.5 37t-49 13t-49 -13zM951 1087q-24 -13 -37.5 -37t-13.5 -50t13 -50t37 -37t50 -13t50 13t37 37t13 50t-13.5 50t-37.5 37t-49 13t-49 -13zM1201 337
q-24 -13 -37.5 -37t-13.5 -50t13 -50t37 -37t50 -13t50 13t37 37t13 50t-13.5 50t-37.5 37t-49 13t-49 -13zM1201 1337q-24 -13 -37.5 -37t-13.5 -50t13 -50t37 -37t50 -13t50 13t37 37t13 50t-13.5 50t-37.5 37t-49 13t-49 -13zM100 0q-26 0 -50 13t-37 37t-13 50v1300
q0 26 13.5 50t37.5 37t49 13h1300q25 0 49 -13t37.5 -37t13.5 -50v-1300q0 -26 -13 -50t-37 -37t-50 -13h-1300zM1357 50q24 0 46.5 12t34.5 34.5t12 46.5v1214q0 24 -12.5 46.5t-35 34.5t-45.5 12h-1214q-23 0 -45.5 -12t-35 -34.5t-12.5 -46.5v-1214q0 -24 12 -46.5
t34.5 -34.5t46.5 -12h1214z" />
    <glyph glyph-name="l" unicode="l" 
d="M201 337q-24 -13 -37.5 -37t-13.5 -50t13 -50t37 -37t50 -13t50 13t37 37t13 50t-13.5 50t-37.5 37t-49 13t-49 -13zM201 587q-24 -13 -37.5 -37t-13.5 -50t13 -50t37 -37t50 -13t50 13t37 37t13 50t-13.5 50t-37.5 37t-49 13t-49 -13zM201 837q-24 -13 -37.5 -37
t-13.5 -50t13 -50t37 -37t50 -13t50 13t37 37t13 50t-13.5 50t-37.5 37t-49 13t-49 -13zM201 1087q-24 -13 -37.5 -37t-13.5 -50t13 -50t37 -37t50 -13t50 13t37 37t13 50t-13.5 50t-37.5 37t-49 13t-49 -13zM201 1337q-24 -13 -37.5 -37t-13.5 -50t13 -50t37 -37t50 -13
t50 13t37 37t13 50t-13.5 50t-37.5 37t-49 13t-49 -13zM451 337q-24 -13 -37.5 -37t-13.5 -50t13 -50t37 -37t50 -13t50 13t37 37t13 50t-13.5 50t-37.5 37t-49 13t-49 -13zM701 337q-24 -13 -37.5 -37t-13.5 -50t13 -50t37 -37t50 -13t50 13t37 37t13 50t-13.5 50t-37.5 37
t-49 13t-49 -13zM951 337q-24 -13 -37.5 -37t-13.5 -50t13 -50t37 -37t50 -13t50 13t37 37t13 50t-13.5 50t-37.5 37t-49 13t-49 -13zM1201 337q-24 -13 -37.5 -37t-13.5 -50t13 -50t37 -37t50 -13t50 13t37 37t13 50t-13.5 50t-37.5 37t-49 13t-49 -13zM100 0q-26 0 -50 13
t-37 37t-13 50v1300q0 26 13.5 50t37.5 37t49 13h1300q25 0 49 -13t37.5 -37t13.5 -50v-1300q0 -26 -13 -50t-37 -37t-50 -13h-1300zM1357 50q24 0 46.5 12t34.5 34.5t12 46.5v1214q0 24 -12.5 46.5t-35 34.5t-45.5 12h-1214q-23 0 -45.5 -12t-35 -34.5t-12.5 -46.5v-1214
q0 -24 12 -46.5t34.5 -34.5t46.5 -12h1214z" />
    <glyph glyph-name="m" unicode="m" 
d="M201 337q-24 -13 -37.5 -37t-13.5 -50t13 -50t37 -37t50 -13t50 13t37 37t13 50t-13.5 50t-37.5 37t-49 13t-49 -13zM201 587q-24 -13 -37.5 -37t-13.5 -50t13 -50t37 -37t50 -13t50 13t37 37t13 50t-13.5 50t-37.5 37t-49 13t-49 -13zM201 837q-24 -13 -37.5 -37
t-13.5 -50t13 -50t37 -37t50 -13t50 13t37 37t13 50t-13.5 50t-37.5 37t-49 13t-49 -13zM201 1087q-24 -13 -37.5 -37t-13.5 -50t13 -50t37 -37t50 -13t50 13t37 37t13 50t-13.5 50t-37.5 37t-49 13t-49 -13zM201 1337q-24 -13 -37.5 -37t-13.5 -50t13 -50t37 -37t50 -13
t50 13t37 37t13 50t-13.5 50t-37.5 37t-49 13t-49 -13zM451 1087q-24 -13 -37.5 -37t-13.5 -50t13 -50t37 -37t50 -13t50 13t37 37t13 50t-13.5 50t-37.5 37t-49 13t-49 -13zM701 837q-24 -13 -37.5 -37t-13.5 -50t13 -50t37 -37t50 -13t50 13t37 37t13 50t-13.5 50
t-37.5 37t-49 13t-49 -13zM951 1087q-24 -13 -37.5 -37t-13.5 -50t13 -50t37 -37t50 -13t50 13t37 37t13 50t-13.5 50t-37.5 37t-49 13t-49 -13zM1201 337q-24 -13 -37.5 -37t-13.5 -50t13 -50t37 -37t50 -13t50 13t37 37t13 50t-13.5 50t-37.5 37t-49 13t-49 -13zM1201 587
q-24 -13 -37.5 -37t-13.5 -50t13 -50t37 -37t50 -13t50 13t37 37t13 50t-13.5 50t-37.5 37t-49 13t-49 -13zM1201 837q-24 -13 -37.5 -37t-13.5 -50t13 -50t37 -37t50 -13t50 13t37 37t13 50t-13.5 50t-37.5 37t-49 13t-49 -13zM1201 1087q-24 -13 -37.5 -37t-13.5 -50
t13 -50t37 -37t50 -13t50 13t37 37t13 50t-13.5 50t-37.5 37t-49 13t-49 -13zM1201 1337q-24 -13 -37.5 -37t-13.5 -50t13 -50t37 -37t50 -13t50 13t37 37t13 50t-13.5 50t-37.5 37t-49 13t-49 -13zM100 0q-26 0 -50 13t-37 37t-13 50v1300q0 26 13.5 50t37.5 37t49 13h1300
q25 0 49 -13t37.5 -37t13.5 -50v-1300q0 -26 -13 -50t-37 -37t-50 -13h-1300zM1357 50q24 0 46.5 12t34.5 34.5t12 46.5v1214q0 24 -12.5 46.5t-35 34.5t-45.5 12h-1214q-23 0 -45.5 -12t-35 -34.5t-12.5 -46.5v-1214q0 -24 12 -46.5t34.5 -34.5t46.5 -12h1214z" />
    <glyph glyph-name="n" unicode="n" 
d="M201 337q-24 -13 -37.5 -37t-13.5 -50t13 -50t37 -37t50 -13t50 13t37 37t13 50t-13.5 50t-37.5 37t-49 13t-49 -13zM201 587q-24 -13 -37.5 -37t-13.5 -50t13 -50t37 -37t50 -13t50 13t37 37t13 50t-13.5 50t-37.5 37t-49 13t-49 -13zM201 837q-24 -13 -37.5 -37
t-13.5 -50t13 -50t37 -37t50 -13t50 13t37 37t13 50t-13.5 50t-37.5 37t-49 13t-49 -13zM201 1087q-24 -13 -37.5 -37t-13.5 -50t13 -50t37 -37t50 -13t50 13t37 37t13 50t-13.5 50t-37.5 37t-49 13t-49 -13zM201 1337q-24 -13 -37.5 -37t-13.5 -50t13 -50t37 -37t50 -13
t50 13t37 37t13 50t-13.5 50t-37.5 37t-49 13t-49 -13zM451 1087q-24 -13 -37.5 -37t-13.5 -50t13 -50t37 -37t50 -13t50 13t37 37t13 50t-13.5 50t-37.5 37t-49 13t-49 -13zM701 837q-24 -13 -37.5 -37t-13.5 -50t13 -50t37 -37t50 -13t50 13t37 37t13 50t-13.5 50
t-37.5 37t-49 13t-49 -13zM951 587q-24 -13 -37.5 -37t-13.5 -50t13 -50t37 -37t50 -13t50 13t37 37t13 50t-13.5 50t-37.5 37t-49 13t-49 -13zM1201 337q-24 -13 -37.5 -37t-13.5 -50t13 -50t37 -37t50 -13t50 13t37 37t13 50t-13.5 50t-37.5 37t-49 13t-49 -13zM1201 587
q-24 -13 -37.5 -37t-13.5 -50t13 -50t37 -37t50 -13t50 13t37 37t13 50t-13.5 50t-37.5 37t-49 13t-49 -13zM1201 837q-24 -13 -37.5 -37t-13.5 -50t13 -50t37 -37t50 -13t50 13t37 37t13 50t-13.5 50t-37.5 37t-49 13t-49 -13zM1201 1087q-24 -13 -37.5 -37t-13.5 -50
t13 -50t37 -37t50 -13t50 13t37 37t13 50t-13.5 50t-37.5 37t-49 13t-49 -13zM1201 1337q-24 -13 -37.5 -37t-13.5 -50t13 -50t37 -37t50 -13t50 13t37 37t13 50t-13.5 50t-37.5 37t-49 13t-49 -13zM100 0q-26 0 -50 13t-37 37t-13 50v1300q0 26 13.5 50t37.5 37t49 13h1300
q25 0 49 -13t37.5 -37t13.5 -50v-1300q0 -26 -13 -50t-37 -37t-50 -13h-1300zM1357 50q24 0 46.5 12t34.5 34.5t12 46.5v1214q0 24 -12.5 46.5t-35 34.5t-45.5 12h-1214q-23 0 -45.5 -12t-35 -34.5t-12.5 -46.5v-1214q0 -24 12 -46.5t34.5 -34.5t46.5 -12h1214z" />
    <glyph glyph-name="o" unicode="o" 
d="M201 587q-24 -13 -37.5 -37t-13.5 -50t13 -50t37 -37t50 -13t50 13t37 37t13 50t-13.5 50t-37.5 37t-49 13t-49 -13zM201 837q-24 -13 -37.5 -37t-13.5 -50t13 -50t37 -37t50 -13t50 13t37 37t13 50t-13.5 50t-37.5 37t-49 13t-49 -13zM201 1087q-24 -13 -37.5 -37
t-13.5 -50t13 -50t37 -37t50 -13t50 13t37 37t13 50t-13.5 50t-37.5 37t-49 13t-49 -13zM451 337q-24 -13 -37.5 -37t-13.5 -50t13 -50t37 -37t50 -13t50 13t37 37t13 50t-13.5 50t-37.5 37t-49 13t-49 -13zM451 1337q-24 -13 -37.5 -37t-13.5 -50t13 -50t37 -37t50 -13
t50 13t37 37t13 50t-13.5 50t-37.5 37t-49 13t-49 -13zM701 337q-24 -13 -37.5 -37t-13.5 -50t13 -50t37 -37t50 -13t50 13t37 37t13 50t-13.5 50t-37.5 37t-49 13t-49 -13zM701 1337q-24 -13 -37.5 -37t-13.5 -50t13 -50t37 -37t50 -13t50 13t37 37t13 50t-13.5 50
t-37.5 37t-49 13t-49 -13zM951 337q-24 -13 -37.5 -37t-13.5 -50t13 -50t37 -37t50 -13t50 13t37 37t13 50t-13.5 50t-37.5 37t-49 13t-49 -13zM951 1337q-24 -13 -37.5 -37t-13.5 -50t13 -50t37 -37t50 -13t50 13t37 37t13 50t-13.5 50t-37.5 37t-49 13t-49 -13zM1201 587
q-24 -13 -37.5 -37t-13.5 -50t13 -50t37 -37t50 -13t50 13t37 37t13 50t-13.5 50t-37.5 37t-49 13t-49 -13zM1201 837q-24 -13 -37.5 -37t-13.5 -50t13 -50t37 -37t50 -13t50 13t37 37t13 50t-13.5 50t-37.5 37t-49 13t-49 -13zM1201 1087q-24 -13 -37.5 -37t-13.5 -50
t13 -50t37 -37t50 -13t50 13t37 37t13 50t-13.5 50t-37.5 37t-49 13t-49 -13zM100 0q-26 0 -50 13t-37 37t-13 50v1300q0 26 13.5 50t37.5 37t49 13h1300q25 0 49 -13t37.5 -37t13.5 -50v-1300q0 -26 -13 -50t-37 -37t-50 -13h-1300zM1357 50q24 0 46.5 12t34.5 34.5
t12 46.5v1214q0 24 -12.5 46.5t-35 34.5t-45.5 12h-1214q-23 0 -45.5 -12t-35 -34.5t-12.5 -46.5v-1214q0 -24 12 -46.5t34.5 -34.5t46.5 -12h1214z" />
    <glyph glyph-name="p" unicode="p" 
d="M201 337q-24 -13 -37.5 -37t-13.5 -50t13 -50t37 -37t50 -13t50 13t37 37t13 50t-13.5 50t-37.5 37t-49 13t-49 -13zM201 587q-24 -13 -37.5 -37t-13.5 -50t13 -50t37 -37t50 -13t50 13t37 37t13 50t-13.5 50t-37.5 37t-49 13t-49 -13zM201 837q-24 -13 -37.5 -37
t-13.5 -50t13 -50t37 -37t50 -13t50 13t37 37t13 50t-13.5 50t-37.5 37t-49 13t-49 -13zM201 1087q-24 -13 -37.5 -37t-13.5 -50t13 -50t37 -37t50 -13t50 13t37 37t13 50t-13.5 50t-37.5 37t-49 13t-49 -13zM201 1337q-24 -13 -37.5 -37t-13.5 -50t13 -50t37 -37t50 -13
t50 13t37 37t13 50t-13.5 50t-37.5 37t-49 13t-49 -13zM451 837q-24 -13 -37.5 -37t-13.5 -50t13 -50t37 -37t50 -13t50 13t37 37t13 50t-13.5 50t-37.5 37t-49 13t-49 -13zM451 1337q-24 -13 -37.5 -37t-13.5 -50t13 -50t37 -37t50 -13t50 13t37 37t13 50t-13.5 50
t-37.5 37t-49 13t-49 -13zM701 837q-24 -13 -37.5 -37t-13.5 -50t13 -50t37 -37t50 -13t50 13t37 37t13 50t-13.5 50t-37.5 37t-49 13t-49 -13zM701 1337q-24 -13 -37.5 -37t-13.5 -50t13 -50t37 -37t50 -13t50 13t37 37t13 50t-13.5 50t-37.5 37t-49 13t-49 -13zM951 837
q-24 -13 -37.5 -37t-13.5 -50t13 -50t37 -37t50 -13t50 13t37 37t13 50t-13.5 50t-37.5 37t-49 13t-49 -13zM951 1337q-24 -13 -37.5 -37t-13.5 -50t13 -50t37 -37t50 -13t50 13t37 37t13 50t-13.5 50t-37.5 37t-49 13t-49 -13zM1201 1087q-24 -13 -37.5 -37t-13.5 -50
t13 -50t37 -37t50 -13t50 13t37 37t13 50t-13.5 50t-37.5 37t-49 13t-49 -13zM100 0q-26 0 -50 13t-37 37t-13 50v1300q0 26 13.5 50t37.5 37t49 13h1300q25 0 49 -13t37.5 -37t13.5 -50v-1300q0 -26 -13 -50t-37 -37t-50 -13h-1300zM1357 50q24 0 46.5 12t34.5 34.5
t12 46.5v1214q0 24 -12.5 46.5t-35 34.5t-45.5 12h-1214q-23 0 -45.5 -12t-35 -34.5t-12.5 -46.5v-1214q0 -24 12 -46.5t34.5 -34.5t46.5 -12h1214z" />
    <glyph glyph-name="q" unicode="q" 
d="M201 587q-24 -13 -37.5 -37t-13.5 -50t13 -50t37 -37t50 -13t50 13t37 37t13 50t-13.5 50t-37.5 37t-49 13t-49 -13zM201 837q-24 -13 -37.5 -37t-13.5 -50t13 -50t37 -37t50 -13t50 13t37 37t13 50t-13.5 50t-37.5 37t-49 13t-49 -13zM201 1087q-24 -13 -37.5 -37
t-13.5 -50t13 -50t37 -37t50 -13t50 13t37 37t13 50t-13.5 50t-37.5 37t-49 13t-49 -13zM451 337q-24 -13 -37.5 -37t-13.5 -50t13 -50t37 -37t50 -13t50 13t37 37t13 50t-13.5 50t-37.5 37t-49 13t-49 -13zM451 1337q-24 -13 -37.5 -37t-13.5 -50t13 -50t37 -37t50 -13
t50 13t37 37t13 50t-13.5 50t-37.5 37t-49 13t-49 -13zM701 337q-24 -13 -37.5 -37t-13.5 -50t13 -50t37 -37t50 -13t50 13t37 37t13 50t-13.5 50t-37.5 37t-49 13t-49 -13zM701 1337q-24 -13 -37.5 -37t-13.5 -50t13 -50t37 -37t50 -13t50 13t37 37t13 50t-13.5 50
t-37.5 37t-49 13t-49 -13zM951 337q-24 -13 -37.5 -37t-13.5 -50t13 -50t37 -37t50 -13t50 13t37 37t13 50t-13.5 50t-37.5 37t-49 13t-49 -13zM951 587q-24 -13 -37.5 -37t-13.5 -50t13 -50t37 -37t50 -13t50 13t37 37t13 50t-13.5 50t-37.5 37t-49 13t-49 -13zM951 1337
q-24 -13 -37.5 -37t-13.5 -50t13 -50t37 -37t50 -13t50 13t37 37t13 50t-13.5 50t-37.5 37t-49 13t-49 -13zM1201 337q-24 -13 -37.5 -37t-13.5 -50t13 -50t37 -37t50 -13t50 13t37 37t13 50t-13.5 50t-37.5 37t-49 13t-49 -13zM1201 587q-24 -13 -37.5 -37t-13.5 -50
t13 -50t37 -37t50 -13t50 13t37 37t13 50t-13.5 50t-37.5 37t-49 13t-49 -13zM1201 837q-24 -13 -37.5 -37t-13.5 -50t13 -50t37 -37t50 -13t50 13t37 37t13 50t-13.5 50t-37.5 37t-49 13t-49 -13zM1201 1087q-24 -13 -37.5 -37t-13.5 -50t13 -50t37 -37t50 -13t50 13t37 37
t13 50t-13.5 50t-37.5 37t-49 13t-49 -13zM100 0q-26 0 -50 13t-37 37t-13 50v1300q0 26 13.5 50t37.5 37t49 13h1300q25 0 49 -13t37.5 -37t13.5 -50v-1300q0 -26 -13 -50t-37 -37t-50 -13h-1300zM1357 50q24 0 46.5 12t34.5 34.5t12 46.5v1214q0 24 -12.5 46.5t-35 34.5
t-45.5 12h-1214q-23 0 -45.5 -12t-35 -34.5t-12.5 -46.5v-1214q0 -24 12 -46.5t34.5 -34.5t46.5 -12h1214z" />
    <glyph glyph-name="r" unicode="r" 
d="M201 337q-24 -13 -37.5 -37t-13.5 -50t13 -50t37 -37t50 -13t50 13t37 37t13 50t-13.5 50t-37.5 37t-49 13t-49 -13zM201 587q-24 -13 -37.5 -37t-13.5 -50t13 -50t37 -37t50 -13t50 13t37 37t13 50t-13.5 50t-37.5 37t-49 13t-49 -13zM201 837q-24 -13 -37.5 -37
t-13.5 -50t13 -50t37 -37t50 -13t50 13t37 37t13 50t-13.5 50t-37.5 37t-49 13t-49 -13zM201 1087q-24 -13 -37.5 -37t-13.5 -50t13 -50t37 -37t50 -13t50 13t37 37t13 50t-13.5 50t-37.5 37t-49 13t-49 -13zM201 1337q-24 -13 -37.5 -37t-13.5 -50t13 -50t37 -37t50 -13
t50 13t37 37t13 50t-13.5 50t-37.5 37t-49 13t-49 -13zM451 837q-24 -13 -37.5 -37t-13.5 -50t13 -50t37 -37t50 -13t50 13t37 37t13 50t-13.5 50t-37.5 37t-49 13t-49 -13zM451 1337q-24 -13 -37.5 -37t-13.5 -50t13 -50t37 -37t50 -13t50 13t37 37t13 50t-13.5 50
t-37.5 37t-49 13t-49 -13zM701 837q-24 -13 -37.5 -37t-13.5 -50t13 -50t37 -37t50 -13t50 13t37 37t13 50t-13.5 50t-37.5 37t-49 13t-49 -13zM701 1337q-24 -13 -37.5 -37t-13.5 -50t13 -50t37 -37t50 -13t50 13t37 37t13 50t-13.5 50t-37.5 37t-49 13t-49 -13zM951 837
q-24 -13 -37.5 -37t-13.5 -50t13 -50t37 -37t50 -13t50 13t37 37t13 50t-13.5 50t-37.5 37t-49 13t-49 -13zM951 1337q-24 -13 -37.5 -37t-13.5 -50t13 -50t37 -37t50 -13t50 13t37 37t13 50t-13.5 50t-37.5 37t-49 13t-49 -13zM1201 337q-24 -13 -37.5 -37t-13.5 -50
t13 -50t37 -37t50 -13t50 13t37 37t13 50t-13.5 50t-37.5 37t-49 13t-49 -13zM1201 587q-24 -13 -37.5 -37t-13.5 -50t13 -50t37 -37t50 -13t50 13t37 37t13 50t-13.5 50t-37.5 37t-49 13t-49 -13zM1201 1087q-24 -13 -37.5 -37t-13.5 -50t13 -50t37 -37t50 -13t50 13t37 37
t13 50t-13.5 50t-37.5 37t-49 13t-49 -13zM100 0q-26 0 -50 13t-37 37t-13 50v1300q0 26 13.5 50t37.5 37t49 13h1300q25 0 49 -13t37.5 -37t13.5 -50v-1300q0 -26 -13 -50t-37 -37t-50 -13h-1300zM1357 50q24 0 46.5 12t34.5 34.5t12 46.5v1214q0 24 -12.5 46.5t-35 34.5
t-45.5 12h-1214q-23 0 -45.5 -12t-35 -34.5t-12.5 -46.5v-1214q0 -24 12 -46.5t34.5 -34.5t46.5 -12h1214z" />
    <glyph glyph-name="s" unicode="s" 
d="M201 337q-24 -13 -37.5 -37t-13.5 -50t13 -50t37 -37t50 -13t50 13t37 37t13 50t-13.5 50t-37.5 37t-49 13t-49 -13zM201 1087q-24 -13 -37.5 -37t-13.5 -50t13 -50t37 -37t50 -13t50 13t37 37t13 50t-13.5 50t-37.5 37t-49 13t-49 -13zM451 337q-24 -13 -37.5 -37
t-13.5 -50t13 -50t37 -37t50 -13t50 13t37 37t13 50t-13.5 50t-37.5 37t-49 13t-49 -13zM451 837q-24 -13 -37.5 -37t-13.5 -50t13 -50t37 -37t50 -13t50 13t37 37t13 50t-13.5 50t-37.5 37t-49 13t-49 -13zM451 1337q-24 -13 -37.5 -37t-13.5 -50t13 -50t37 -37t50 -13
t50 13t37 37t13 50t-13.5 50t-37.5 37t-49 13t-49 -13zM701 337q-24 -13 -37.5 -37t-13.5 -50t13 -50t37 -37t50 -13t50 13t37 37t13 50t-13.5 50t-37.5 37t-49 13t-49 -13zM701 837q-24 -13 -37.5 -37t-13.5 -50t13 -50t37 -37t50 -13t50 13t37 37t13 50t-13.5 50t-37.5 37
t-49 13t-49 -13zM701 1337q-24 -13 -37.5 -37t-13.5 -50t13 -50t37 -37t50 -13t50 13t37 37t13 50t-13.5 50t-37.5 37t-49 13t-49 -13zM951 337q-24 -13 -37.5 -37t-13.5 -50t13 -50t37 -37t50 -13t50 13t37 37t13 50t-13.5 50t-37.5 37t-49 13t-49 -13zM951 837
q-24 -13 -37.5 -37t-13.5 -50t13 -50t37 -37t50 -13t50 13t37 37t13 50t-13.5 50t-37.5 37t-49 13t-49 -13zM951 1337q-24 -13 -37.5 -37t-13.5 -50t13 -50t37 -37t50 -13t50 13t37 37t13 50t-13.5 50t-37.5 37t-49 13t-49 -13zM1201 587q-24 -13 -37.5 -37t-13.5 -50
t13 -50t37 -37t50 -13t50 13t37 37t13 50t-13.5 50t-37.5 37t-49 13t-49 -13zM1201 1337q-24 -13 -37.5 -37t-13.5 -50t13 -50t37 -37t50 -13t50 13t37 37t13 50t-13.5 50t-37.5 37t-49 13t-49 -13zM100 0q-26 0 -50 13t-37 37t-13 50v1300q0 26 13.5 50t37.5 37t49 13h1300
q25 0 49 -13t37.5 -37t13.5 -50v-1300q0 -26 -13 -50t-37 -37t-50 -13h-1300zM1357 50q24 0 46.5 12t34.5 34.5t12 46.5v1214q0 24 -12.5 46.5t-35 34.5t-45.5 12h-1214q-23 0 -45.5 -12t-35 -34.5t-12.5 -46.5v-1214q0 -24 12 -46.5t34.5 -34.5t46.5 -12h1214z" />
    <glyph glyph-name="t" unicode="t" 
d="M201 1337q-24 -13 -37.5 -37t-13.5 -50t13 -50t37 -37t50 -13t50 13t37 37t13 50t-13.5 50t-37.5 37t-49 13t-49 -13zM451 1337q-24 -13 -37.5 -37t-13.5 -50t13 -50t37 -37t50 -13t50 13t37 37t13 50t-13.5 50t-37.5 37t-49 13t-49 -13zM701 337q-24 -13 -37.5 -37
t-13.5 -50t13 -50t37 -37t50 -13t50 13t37 37t13 50t-13.5 50t-37.5 37t-49 13t-49 -13zM701 587q-24 -13 -37.5 -37t-13.5 -50t13 -50t37 -37t50 -13t50 13t37 37t13 50t-13.5 50t-37.5 37t-49 13t-49 -13zM701 837q-24 -13 -37.5 -37t-13.5 -50t13 -50t37 -37t50 -13
t50 13t37 37t13 50t-13.5 50t-37.5 37t-49 13t-49 -13zM701 1087q-24 -13 -37.5 -37t-13.5 -50t13 -50t37 -37t50 -13t50 13t37 37t13 50t-13.5 50t-37.5 37t-49 13t-49 -13zM701 1337q-24 -13 -37.5 -37t-13.5 -50t13 -50t37 -37t50 -13t50 13t37 37t13 50t-13.5 50
t-37.5 37t-49 13t-49 -13zM951 1337q-24 -13 -37.5 -37t-13.5 -50t13 -50t37 -37t50 -13t50 13t37 37t13 50t-13.5 50t-37.5 37t-49 13t-49 -13zM1201 1337q-24 -13 -37.5 -37t-13.5 -50t13 -50t37 -37t50 -13t50 13t37 37t13 50t-13.5 50t-37.5 37t-49 13t-49 -13zM100 0
q-26 0 -50 13t-37 37t-13 50v1300q0 26 13.5 50t37.5 37t49 13h1300q25 0 49 -13t37.5 -37t13.5 -50v-1300q0 -26 -13 -50t-37 -37t-50 -13h-1300zM1357 50q24 0 46.5 12t34.5 34.5t12 46.5v1214q0 24 -12.5 46.5t-35 34.5t-45.5 12h-1214q-23 0 -45.5 -12t-35 -34.5
t-12.5 -46.5v-1214q0 -24 12 -46.5t34.5 -34.5t46.5 -12h1214z" />
    <glyph glyph-name="u" unicode="u" 
d="M201 587q-24 -13 -37.5 -37t-13.5 -50t13 -50t37 -37t50 -13t50 13t37 37t13 50t-13.5 50t-37.5 37t-49 13t-49 -13zM201 837q-24 -13 -37.5 -37t-13.5 -50t13 -50t37 -37t50 -13t50 13t37 37t13 50t-13.5 50t-37.5 37t-49 13t-49 -13zM201 1087q-24 -13 -37.5 -37
t-13.5 -50t13 -50t37 -37t50 -13t50 13t37 37t13 50t-13.5 50t-37.5 37t-49 13t-49 -13zM201 1337q-24 -13 -37.5 -37t-13.5 -50t13 -50t37 -37t50 -13t50 13t37 37t13 50t-13.5 50t-37.5 37t-49 13t-49 -13zM451 337q-24 -13 -37.5 -37t-13.5 -50t13 -50t37 -37t50 -13
t50 13t37 37t13 50t-13.5 50t-37.5 37t-49 13t-49 -13zM701 337q-24 -13 -37.5 -37t-13.5 -50t13 -50t37 -37t50 -13t50 13t37 37t13 50t-13.5 50t-37.5 37t-49 13t-49 -13zM951 337q-24 -13 -37.5 -37t-13.5 -50t13 -50t37 -37t50 -13t50 13t37 37t13 50t-13.5 50t-37.5 37
t-49 13t-49 -13zM1201 587q-24 -13 -37.5 -37t-13.5 -50t13 -50t37 -37t50 -13t50 13t37 37t13 50t-13.5 50t-37.5 37t-49 13t-49 -13zM1201 837q-24 -13 -37.5 -37t-13.5 -50t13 -50t37 -37t50 -13t50 13t37 37t13 50t-13.5 50t-37.5 37t-49 13t-49 -13zM1201 1087
q-24 -13 -37.5 -37t-13.5 -50t13 -50t37 -37t50 -13t50 13t37 37t13 50t-13.5 50t-37.5 37t-49 13t-49 -13zM1201 1337q-24 -13 -37.5 -37t-13.5 -50t13 -50t37 -37t50 -13t50 13t37 37t13 50t-13.5 50t-37.5 37t-49 13t-49 -13zM100 0q-26 0 -50 13t-37 37t-13 50v1300
q0 26 13.5 50t37.5 37t49 13h1300q25 0 49 -13t37.5 -37t13.5 -50v-1300q0 -26 -13 -50t-37 -37t-50 -13h-1300zM1357 50q24 0 46.5 12t34.5 34.5t12 46.5v1214q0 24 -12.5 46.5t-35 34.5t-45.5 12h-1214q-23 0 -45.5 -12t-35 -34.5t-12.5 -46.5v-1214q0 -24 12 -46.5
t34.5 -34.5t46.5 -12h1214z" />
    <glyph glyph-name="v" unicode="v" 
d="M201 837q-24 -13 -37.5 -37t-13.5 -50t13 -50t37 -37t50 -13t50 13t37 37t13 50t-13.5 50t-37.5 37t-49 13t-49 -13zM201 1087q-24 -13 -37.5 -37t-13.5 -50t13 -50t37 -37t50 -13t50 13t37 37t13 50t-13.5 50t-37.5 37t-49 13t-49 -13zM201 1337q-24 -13 -37.5 -37
t-13.5 -50t13 -50t37 -37t50 -13t50 13t37 37t13 50t-13.5 50t-37.5 37t-49 13t-49 -13zM451 587q-24 -13 -37.5 -37t-13.5 -50t13 -50t37 -37t50 -13t50 13t37 37t13 50t-13.5 50t-37.5 37t-49 13t-49 -13zM701 337q-24 -13 -37.5 -37t-13.5 -50t13 -50t37 -37t50 -13
t50 13t37 37t13 50t-13.5 50t-37.5 37t-49 13t-49 -13zM951 587q-24 -13 -37.5 -37t-13.5 -50t13 -50t37 -37t50 -13t50 13t37 37t13 50t-13.5 50t-37.5 37t-49 13t-49 -13zM1201 837q-24 -13 -37.5 -37t-13.5 -50t13 -50t37 -37t50 -13t50 13t37 37t13 50t-13.5 50
t-37.5 37t-49 13t-49 -13zM1201 1087q-24 -13 -37.5 -37t-13.5 -50t13 -50t37 -37t50 -13t50 13t37 37t13 50t-13.5 50t-37.5 37t-49 13t-49 -13zM1201 1337q-24 -13 -37.5 -37t-13.5 -50t13 -50t37 -37t50 -13t50 13t37 37t13 50t-13.5 50t-37.5 37t-49 13t-49 -13zM100 0
q-26 0 -50 13t-37 37t-13 50v1300q0 26 13.5 50t37.5 37t49 13h1300q25 0 49 -13t37.5 -37t13.5 -50v-1300q0 -26 -13 -50t-37 -37t-50 -13h-1300zM1357 50q24 0 46.5 12t34.5 34.5t12 46.5v1214q0 24 -12.5 46.5t-35 34.5t-45.5 12h-1214q-23 0 -45.5 -12t-35 -34.5
t-12.5 -46.5v-1214q0 -24 12 -46.5t34.5 -34.5t46.5 -12h1214z" />
    <glyph glyph-name="w" unicode="w" 
d="M201 337q-24 -13 -37.5 -37t-13.5 -50t13 -50t37 -37t50 -13t50 13t37 37t13 50t-13.5 50t-37.5 37t-49 13t-49 -13zM201 587q-24 -13 -37.5 -37t-13.5 -50t13 -50t37 -37t50 -13t50 13t37 37t13 50t-13.5 50t-37.5 37t-49 13t-49 -13zM201 837q-24 -13 -37.5 -37
t-13.5 -50t13 -50t37 -37t50 -13t50 13t37 37t13 50t-13.5 50t-37.5 37t-49 13t-49 -13zM201 1087q-24 -13 -37.5 -37t-13.5 -50t13 -50t37 -37t50 -13t50 13t37 37t13 50t-13.5 50t-37.5 37t-49 13t-49 -13zM201 1337q-24 -13 -37.5 -37t-13.5 -50t13 -50t37 -37t50 -13
t50 13t37 37t13 50t-13.5 50t-37.5 37t-49 13t-49 -13zM451 587q-24 -13 -37.5 -37t-13.5 -50t13 -50t37 -37t50 -13t50 13t37 37t13 50t-13.5 50t-37.5 37t-49 13t-49 -13zM701 837q-24 -13 -37.5 -37t-13.5 -50t13 -50t37 -37t50 -13t50 13t37 37t13 50t-13.5 50t-37.5 37
t-49 13t-49 -13zM951 587q-24 -13 -37.5 -37t-13.5 -50t13 -50t37 -37t50 -13t50 13t37 37t13 50t-13.5 50t-37.5 37t-49 13t-49 -13zM1201 337q-24 -13 -37.5 -37t-13.5 -50t13 -50t37 -37t50 -13t50 13t37 37t13 50t-13.5 50t-37.5 37t-49 13t-49 -13zM1201 587
q-24 -13 -37.5 -37t-13.5 -50t13 -50t37 -37t50 -13t50 13t37 37t13 50t-13.5 50t-37.5 37t-49 13t-49 -13zM1201 837q-24 -13 -37.5 -37t-13.5 -50t13 -50t37 -37t50 -13t50 13t37 37t13 50t-13.5 50t-37.5 37t-49 13t-49 -13zM1201 1087q-24 -13 -37.5 -37t-13.5 -50
t13 -50t37 -37t50 -13t50 13t37 37t13 50t-13.5 50t-37.5 37t-49 13t-49 -13zM1201 1337q-24 -13 -37.5 -37t-13.5 -50t13 -50t37 -37t50 -13t50 13t37 37t13 50t-13.5 50t-37.5 37t-49 13t-49 -13zM100 0q-26 0 -50 13t-37 37t-13 50v1300q0 26 13.5 50t37.5 37t49 13h1300
q25 0 49 -13t37.5 -37t13.5 -50v-1300q0 -26 -13 -50t-37 -37t-50 -13h-1300zM1357 50q24 0 46.5 12t34.5 34.5t12 46.5v1214q0 24 -12.5 46.5t-35 34.5t-45.5 12h-1214q-23 0 -45.5 -12t-35 -34.5t-12.5 -46.5v-1214q0 -24 12 -46.5t34.5 -34.5t46.5 -12h1214z" />
    <glyph glyph-name="x" unicode="x" 
d="M201 337q-24 -13 -37.5 -37t-13.5 -50t13 -50t37 -37t50 -13t50 13t37 37t13 50t-13.5 50t-37.5 37t-49 13t-49 -13zM201 1337q-24 -13 -37.5 -37t-13.5 -50t13 -50t37 -37t50 -13t50 13t37 37t13 50t-13.5 50t-37.5 37t-49 13t-49 -13zM451 587q-24 -13 -37.5 -37
t-13.5 -50t13 -50t37 -37t50 -13t50 13t37 37t13 50t-13.5 50t-37.5 37t-49 13t-49 -13zM451 1087q-24 -13 -37.5 -37t-13.5 -50t13 -50t37 -37t50 -13t50 13t37 37t13 50t-13.5 50t-37.5 37t-49 13t-49 -13zM701 837q-24 -13 -37.5 -37t-13.5 -50t13 -50t37 -37t50 -13
t50 13t37 37t13 50t-13.5 50t-37.5 37t-49 13t-49 -13zM951 587q-24 -13 -37.5 -37t-13.5 -50t13 -50t37 -37t50 -13t50 13t37 37t13 50t-13.5 50t-37.5 37t-49 13t-49 -13zM951 1087q-24 -13 -37.5 -37t-13.5 -50t13 -50t37 -37t50 -13t50 13t37 37t13 50t-13.5 50
t-37.5 37t-49 13t-49 -13zM1201 337q-24 -13 -37.5 -37t-13.5 -50t13 -50t37 -37t50 -13t50 13t37 37t13 50t-13.5 50t-37.5 37t-49 13t-49 -13zM1201 1337q-24 -13 -37.5 -37t-13.5 -50t13 -50t37 -37t50 -13t50 13t37 37t13 50t-13.5 50t-37.5 37t-49 13t-49 -13zM100 0
q-26 0 -50 13t-37 37t-13 50v1300q0 26 13.5 50t37.5 37t49 13h1300q25 0 49 -13t37.5 -37t13.5 -50v-1300q0 -26 -13 -50t-37 -37t-50 -13h-1300zM1357 50q24 0 46.5 12t34.5 34.5t12 46.5v1214q0 24 -12.5 46.5t-35 34.5t-45.5 12h-1214q-23 0 -45.5 -12t-35 -34.5
t-12.5 -46.5v-1214q0 -24 12 -46.5t34.5 -34.5t46.5 -12h1214z" />
    <glyph glyph-name="y" unicode="y" 
d="M201 1337q-24 -13 -37.5 -37t-13.5 -50t13 -50t37 -37t50 -13t50 13t37 37t13 50t-13.5 50t-37.5 37t-49 13t-49 -13zM451 1087q-24 -13 -37.5 -37t-13.5 -50t13 -50t37 -37t50 -13t50 13t37 37t13 50t-13.5 50t-37.5 37t-49 13t-49 -13zM701 337q-24 -13 -37.5 -37
t-13.5 -50t13 -50t37 -37t50 -13t50 13t37 37t13 50t-13.5 50t-37.5 37t-49 13t-49 -13zM701 587q-24 -13 -37.5 -37t-13.5 -50t13 -50t37 -37t50 -13t50 13t37 37t13 50t-13.5 50t-37.5 37t-49 13t-49 -13zM701 837q-24 -13 -37.5 -37t-13.5 -50t13 -50t37 -37t50 -13
t50 13t37 37t13 50t-13.5 50t-37.5 37t-49 13t-49 -13zM951 1087q-24 -13 -37.5 -37t-13.5 -50t13 -50t37 -37t50 -13t50 13t37 37t13 50t-13.5 50t-37.5 37t-49 13t-49 -13zM1201 1337q-24 -13 -37.5 -37t-13.5 -50t13 -50t37 -37t50 -13t50 13t37 37t13 50t-13.5 50
t-37.5 37t-49 13t-49 -13zM100 0q-26 0 -50 13t-37 37t-13 50v1300q0 26 13.5 50t37.5 37t49 13h1300q25 0 49 -13t37.5 -37t13.5 -50v-1300q0 -26 -13 -50t-37 -37t-50 -13h-1300zM1357 50q24 0 46.5 12t34.5 34.5t12 46.5v1214q0 24 -12.5 46.5t-35 34.5t-45.5 12h-1214
q-23 0 -45.5 -12t-35 -34.5t-12.5 -46.5v-1214q0 -24 12 -46.5t34.5 -34.5t46.5 -12h1214z" />
    <glyph glyph-name="z" unicode="z" 
d="M201 337q-24 -13 -37.5 -37t-13.5 -50t13 -50t37 -37t50 -13t50 13t37 37t13 50t-13.5 50t-37.5 37t-49 13t-49 -13zM201 1337q-24 -13 -37.5 -37t-13.5 -50t13 -50t37 -37t50 -13t50 13t37 37t13 50t-13.5 50t-37.5 37t-49 13t-49 -13zM451 337q-24 -13 -37.5 -37
t-13.5 -50t13 -50t37 -37t50 -13t50 13t37 37t13 50t-13.5 50t-37.5 37t-49 13t-49 -13zM451 587q-24 -13 -37.5 -37t-13.5 -50t13 -50t37 -37t50 -13t50 13t37 37t13 50t-13.5 50t-37.5 37t-49 13t-49 -13zM451 1337q-24 -13 -37.5 -37t-13.5 -50t13 -50t37 -37t50 -13
t50 13t37 37t13 50t-13.5 50t-37.5 37t-49 13t-49 -13zM701 337q-24 -13 -37.5 -37t-13.5 -50t13 -50t37 -37t50 -13t50 13t37 37t13 50t-13.5 50t-37.5 37t-49 13t-49 -13zM701 837q-24 -13 -37.5 -37t-13.5 -50t13 -50t37 -37t50 -13t50 13t37 37t13 50t-13.5 50t-37.5 37
t-49 13t-49 -13zM701 1337q-24 -13 -37.5 -37t-13.5 -50t13 -50t37 -37t50 -13t50 13t37 37t13 50t-13.5 50t-37.5 37t-49 13t-49 -13zM951 337q-24 -13 -37.5 -37t-13.5 -50t13 -50t37 -37t50 -13t50 13t37 37t13 50t-13.5 50t-37.5 37t-49 13t-49 -13zM951 1087
q-24 -13 -37.5 -37t-13.5 -50t13 -50t37 -37t50 -13t50 13t37 37t13 50t-13.5 50t-37.5 37t-49 13t-49 -13zM951 1337q-24 -13 -37.5 -37t-13.5 -50t13 -50t37 -37t50 -13t50 13t37 37t13 50t-13.5 50t-37.5 37t-49 13t-49 -13zM1201 337q-24 -13 -37.5 -37t-13.5 -50
t13 -50t37 -37t50 -13t50 13t37 37t13 50t-13.5 50t-37.5 37t-49 13t-49 -13zM1201 1337q-24 -13 -37.5 -37t-13.5 -50t13 -50t37 -37t50 -13t50 13t37 37t13 50t-13.5 50t-37.5 37t-49 13t-49 -13zM100 0q-26 0 -50 13t-37 37t-13 50v1300q0 26 13.5 50t37.5 37t49 13h1300
q25 0 49 -13t37.5 -37t13.5 -50v-1300q0 -26 -13 -50t-37 -37t-50 -13h-1300zM1357 50q24 0 46.5 12t34.5 34.5t12 46.5v1214q0 24 -12.5 46.5t-35 34.5t-45.5 12h-1214q-23 0 -45.5 -12t-35 -34.5t-12.5 -46.5v-1214q0 -24 12 -46.5t34.5 -34.5t46.5 -12h1214z" />
    <glyph glyph-name="braceleft" unicode="{" 
d="M451 837q-24 -13 -37.5 -37t-13.5 -50t13 -50t37 -37t50 -13t50 13t37 37t13 50t-13.5 50t-37.5 37t-49 13t-49 -13zM701 337q-24 -13 -37.5 -37t-13.5 -50t13 -50t37 -37t50 -13t50 13t37 37t13 50t-13.5 50t-37.5 37t-49 13t-49 -13zM701 587q-24 -13 -37.5 -37
t-13.5 -50t13 -50t37 -37t50 -13t50 13t37 37t13 50t-13.5 50t-37.5 37t-49 13t-49 -13zM701 1087q-24 -13 -37.5 -37t-13.5 -50t13 -50t37 -37t50 -13t50 13t37 37t13 50t-13.5 50t-37.5 37t-49 13t-49 -13zM701 1337q-24 -13 -37.5 -37t-13.5 -50t13 -50t37 -37t50 -13
t50 13t37 37t13 50t-13.5 50t-37.5 37t-49 13t-49 -13zM951 337q-24 -13 -37.5 -37t-13.5 -50t13 -50t37 -37t50 -13t50 13t37 37t13 50t-13.5 50t-37.5 37t-49 13t-49 -13zM951 1337q-24 -13 -37.5 -37t-13.5 -50t13 -50t37 -37t50 -13t50 13t37 37t13 50t-13.5 50
t-37.5 37t-49 13t-49 -13zM100 0q-26 0 -50 13t-37 37t-13 50v1300q0 26 13.5 50t37.5 37t49 13h1300q25 0 49 -13t37.5 -37t13.5 -50v-1300q0 -26 -13 -50t-37 -37t-50 -13h-1300z" />
    <glyph glyph-name="bar" unicode="|" 
d="M701 337q-24 -13 -37.5 -37t-13.5 -50t13 -50t37 -37t50 -13t50 13t37 37t13 50t-13.5 50t-37.5 37t-49 13t-49 -13zM701 587q-24 -13 -37.5 -37t-13.5 -50t13 -50t37 -37t50 -13t50 13t37 37t13 50t-13.5 50t-37.5 37t-49 13t-49 -13zM701 837q-24 -13 -37.5 -37
t-13.5 -50t13 -50t37 -37t50 -13t50 13t37 37t13 50t-13.5 50t-37.5 37t-49 13t-49 -13zM701 1087q-24 -13 -37.5 -37t-13.5 -50t13 -50t37 -37t50 -13t50 13t37 37t13 50t-13.5 50t-37.5 37t-49 13t-49 -13zM701 1337q-24 -13 -37.5 -37t-13.5 -50t13 -50t37 -37t50 -13
t50 13t37 37t13 50t-13.5 50t-37.5 37t-49 13t-49 -13zM100 0q-26 0 -50 13t-37 37t-13 50v1300q0 26 13.5 50t37.5 37t49 13h1300q25 0 49 -13t37.5 -37t13.5 -50v-1300q0 -26 -13 -50t-37 -37t-50 -13h-1300z" />
    <glyph glyph-name="braceright" unicode="}" 
d="M451 337q-24 -13 -37.5 -37t-13.5 -50t13 -50t37 -37t50 -13t50 13t37 37t13 50t-13.5 50t-37.5 37t-49 13t-49 -13zM451 1337q-24 -13 -37.5 -37t-13.5 -50t13 -50t37 -37t50 -13t50 13t37 37t13 50t-13.5 50t-37.5 37t-49 13t-49 -13zM701 337q-24 -13 -37.5 -37
t-13.5 -50t13 -50t37 -37t50 -13t50 13t37 37t13 50t-13.5 50t-37.5 37t-49 13t-49 -13zM701 587q-24 -13 -37.5 -37t-13.5 -50t13 -50t37 -37t50 -13t50 13t37 37t13 50t-13.5 50t-37.5 37t-49 13t-49 -13zM701 1087q-24 -13 -37.5 -37t-13.5 -50t13 -50t37 -37t50 -13
t50 13t37 37t13 50t-13.5 50t-37.5 37t-49 13t-49 -13zM701 1337q-24 -13 -37.5 -37t-13.5 -50t13 -50t37 -37t50 -13t50 13t37 37t13 50t-13.5 50t-37.5 37t-49 13t-49 -13zM951 837q-24 -13 -37.5 -37t-13.5 -50t13 -50t37 -37t50 -13t50 13t37 37t13 50t-13.5 50
t-37.5 37t-49 13t-49 -13zM100 0q-26 0 -50 13t-37 37t-13 50v1300q0 26 13.5 50t37.5 37t49 13h1300q25 0 49 -13t37.5 -37t13.5 -50v-1300q0 -26 -13 -50t-37 -37t-50 -13h-1300z" />
    <glyph glyph-name="asciitilde" unicode="~" 
d="M201 587q-24 -13 -37.5 -37t-13.5 -50t13 -50t37 -37t50 -13t50 13t37 37t13 50t-13.5 50t-37.5 37t-49 13t-49 -13zM201 837q-24 -13 -37.5 -37t-13.5 -50t13 -50t37 -37t50 -13t50 13t37 37t13 50t-13.5 50t-37.5 37t-49 13t-49 -13zM451 1087q-24 -13 -37.5 -37
t-13.5 -50t13 -50t37 -37t50 -13t50 13t37 37t13 50t-13.5 50t-37.5 37t-49 13t-49 -13zM701 837q-24 -13 -37.5 -37t-13.5 -50t13 -50t37 -37t50 -13t50 13t37 37t13 50t-13.5 50t-37.5 37t-49 13t-49 -13zM951 587q-24 -13 -37.5 -37t-13.5 -50t13 -50t37 -37t50 -13
t50 13t37 37t13 50t-13.5 50t-37.5 37t-49 13t-49 -13zM1201 837q-24 -13 -37.5 -37t-13.5 -50t13 -50t37 -37t50 -13t50 13t37 37t13 50t-13.5 50t-37.5 37t-49 13t-49 -13zM1201 1087q-24 -13 -37.5 -37t-13.5 -50t13 -50t37 -37t50 -13t50 13t37 37t13 50t-13.5 50
t-37.5 37t-49 13t-49 -13zM100 0q-26 0 -50 13t-37 37t-13 50v1300q0 26 13.5 50t37.5 37t49 13h1300q25 0 49 -13t37.5 -37t13.5 -50v-1300q0 -26 -13 -50t-37 -37t-50 -13h-1300z" />
    <glyph glyph-name="exclamdown" unicode="&#xa1;" 
d="M799 687q24 13 37.5 37t13.5 50t-13 50t-37 37t-50 13t-50 -13t-37 -37t-13 -50t13.5 -50t37.5 -37t49 -13t49 13zM799 187q24 13 37.5 37t13.5 50t-13 50t-37 37t-50 13t-50 -13t-37 -37t-13 -50t13.5 -50t37.5 -37t49 -13t49 13zM799 -63q24 13 37.5 37t13.5 50t-13 50
t-37 37t-50 13t-50 -13t-37 -37t-13 -50t13.5 -50t37.5 -37t49 -13t49 13zM799 -313q24 13 37.5 37t13.5 50t-13 50t-37 37t-50 13t-50 -13t-37 -37t-13 -50t13.5 -50t37.5 -37t49 -13t49 13zM1400 1024q26 0 50 -13t37 -37t13 -50v-1300q0 -26 -13.5 -50t-37.5 -37t-49 -13
h-1300q-25 0 -49 13t-37.5 37t-13.5 50v1300q0 26 13 50t37 37t50 13h1300z" />
    <glyph glyph-name="questiondown" unicode="&#xbf;" 
d="M1049 -313q24 13 37.5 37t13.5 50t-13 50t-37 37t-50 13t-50 -13t-37 -37t-13 -50t13.5 -50t37.5 -37t49 -13t49 13zM799 687q24 13 37.5 37t13.5 50t-13 50t-37 37t-50 13t-50 -13t-37 -37t-13 -50t13.5 -50t37.5 -37t49 -13t49 13zM799 187q24 13 37.5 37t13.5 50
t-13 50t-37 37t-50 13t-50 -13t-37 -37t-13 -50t13.5 -50t37.5 -37t49 -13t49 13zM799 -313q24 13 37.5 37t13.5 50t-13 50t-37 37t-50 13t-50 -13t-37 -37t-13 -50t13.5 -50t37.5 -37t49 -13t49 13zM549 187q24 13 37.5 37t13.5 50t-13 50t-37 37t-50 13t-50 -13t-37 -37
t-13 -50t13.5 -50t37.5 -37t49 -13t49 13zM549 -313q24 13 37.5 37t13.5 50t-13 50t-37 37t-50 13t-50 -13t-37 -37t-13 -50t13.5 -50t37.5 -37t49 -13t49 13zM299 187q24 13 37.5 37t13.5 50t-13 50t-37 37t-50 13t-50 -13t-37 -37t-13 -50t13.5 -50t37.5 -37t49 -13t49 13
zM299 -63q24 13 37.5 37t13.5 50t-13 50t-37 37t-50 13t-50 -13t-37 -37t-13 -50t13.5 -50t37.5 -37t49 -13t49 13zM1400 1024q26 0 50 -13t37 -37t13 -50v-1300q0 -26 -13.5 -50t-37.5 -37t-49 -13h-1300q-25 0 -49 13t-37.5 37t-13.5 50v1300q0 26 13 50t37 37t50 13h1300
zM1299 -313q24 13 37.5 37t13.5 50t-13 50t-37 37t-50 13t-50 -13t-37 -37t-13 -50t13.5 -50t37.5 -37t49 -13t49 13z" />
    <glyph glyph-name="multiply" unicode="&#xd7;" 
d="M451 587q-24 -13 -37.5 -37t-13.5 -50t13 -50t37 -37t50 -13t50 13t37 37t13 50t-13.5 50t-37.5 37t-49 13t-49 -13zM451 1087q-24 -13 -37.5 -37t-13.5 -50t13 -50t37 -37t50 -13t50 13t37 37t13 50t-13.5 50t-37.5 37t-49 13t-49 -13zM701 837q-24 -13 -37.5 -37
t-13.5 -50t13 -50t37 -37t50 -13t50 13t37 37t13 50t-13.5 50t-37.5 37t-49 13t-49 -13zM951 587q-24 -13 -37.5 -37t-13.5 -50t13 -50t37 -37t50 -13t50 13t37 37t13 50t-13.5 50t-37.5 37t-49 13t-49 -13zM951 1087q-24 -13 -37.5 -37t-13.5 -50t13 -50t37 -37t50 -13
t50 13t37 37t13 50t-13.5 50t-37.5 37t-49 13t-49 -13zM100 0q-26 0 -50 13t-37 37t-13 50v1300q0 26 13.5 50t37.5 37t49 13h1300q25 0 49 -13t37.5 -37t13.5 -50v-1300q0 -26 -13 -50t-37 -37t-50 -13h-1300z" />
    <glyph glyph-name="divide" unicode="&#xf7;" 
d="M201 837q-24 -13 -37.5 -37t-13.5 -50t13 -50t37 -37t50 -13t50 13t37 37t13 50t-13.5 50t-37.5 37t-49 13t-49 -13zM451 837q-24 -13 -37.5 -37t-13.5 -50t13 -50t37 -37t50 -13t50 13t37 37t13 50t-13.5 50t-37.5 37t-49 13t-49 -13zM701 337q-24 -13 -37.5 -37
t-13.5 -50t13 -50t37 -37t50 -13t50 13t37 37t13 50t-13.5 50t-37.5 37t-49 13t-49 -13zM701 837q-24 -13 -37.5 -37t-13.5 -50t13 -50t37 -37t50 -13t50 13t37 37t13 50t-13.5 50t-37.5 37t-49 13t-49 -13zM701 1337q-24 -13 -37.5 -37t-13.5 -50t13 -50t37 -37t50 -13
t50 13t37 37t13 50t-13.5 50t-37.5 37t-49 13t-49 -13zM951 837q-24 -13 -37.5 -37t-13.5 -50t13 -50t37 -37t50 -13t50 13t37 37t13 50t-13.5 50t-37.5 37t-49 13t-49 -13zM1201 837q-24 -13 -37.5 -37t-13.5 -50t13 -50t37 -37t50 -13t50 13t37 37t13 50t-13.5 50
t-37.5 37t-49 13t-49 -13zM100 0q-26 0 -50 13t-37 37t-13 50v1300q0 26 13.5 50t37.5 37t49 13h1300q25 0 49 -13t37.5 -37t13.5 -50v-1300q0 -26 -13 -50t-37 -37t-50 -13h-1300z" />
  </font>
</defs>
</svg>
